SplineFontDB: 3.0
FontName: PfennigItalic
FullName: Pfennig Italic
FamilyName: Pfennig
Weight: Medium
Copyright: Copyright 2009-2012 by Daniel Johnson.  Released under the terms of the SIL Open Font License.
UComments: "2009-7-16: Created." 
Version: 20120410
ItalicAngle: -13
UnderlinePosition: -204
UnderlineWidth: 102
Ascent: 1638
Descent: 410
LayerCount: 2
Layer: 0 0 "Back"  1
Layer: 1 1 "Fore"  0
NeedsXUIDChange: 1
XUID: [1021 1003 1579404955 6722392]
FSType: 0
OS2Version: 0
OS2_WeightWidthSlopeOnly: 0
OS2_UseTypoMetrics: 1
CreationTime: 1247766582
ModificationTime: 1334085743
PfmFamily: 33
TTFWeight: 500
TTFWidth: 5
LineGap: 0
VLineGap: 0
OS2TypoAscent: 2174
OS2TypoAOffset: 0
OS2TypoDescent: -531
OS2TypoDOffset: 0
OS2TypoLinegap: 0
OS2WinAscent: 2174
OS2WinAOffset: 0
OS2WinDescent: 531
OS2WinDOffset: 0
HheadAscent: 2174
HheadAOffset: 0
HheadDescent: -531
HheadDOffset: 0
OS2FamilyClass: 2050
OS2Vendor: 'PfEd'
Lookup: 1 0 0 "'locl' Localized Forms in Sami"  {"'locl' Localized Forms in Sami-1"  } ['locl' ('latn' <'ISM ' > 'latn' <'LSM ' > 'latn' <'NSM ' > 'latn' <'SKS ' > ) ]
Lookup: 4 0 1 "'liga' Standard Ligatures in Latin lookup 0"  {"'liga' Standard Ligatures in Latin lookup 0-1"  } ['liga' ('DFLT' <'dflt' > 'latn' <'dflt' > ) ]
Lookup: 258 0 0 "'kern' Horizontal Kerning lookup 1"  {"'kern' Horizontal Kerning lookup 1-1"  } ['kern' ('DFLT' <'dflt' > 'cyrl' <'dflt' > 'latn' <'dflt' > ) ]
Lookup: 260 0 0 "'mark' Mark Positioning in Latin lookup 0"  {"'mark' Mark Positioning in Latin lookup 0-1"  } ['mark' ('DFLT' <'dflt' > 'latn' <'dflt' > ) ]
MarkAttachClasses: 1
DEI: 91125
KernClass2: 9 9 "'kern' Horizontal Kerning lookup 1-1" 
 109 A L Agrave Aacute Acircumflex Atilde Adieresis Aring Amacron Abreve Aogonek Lacute Lcommaaccent Lcaron Lslash

StartChar: d
Encoding: 100 100 0
Width: 1142
VWidth: 0
Flags: W
HStem: -20 102<404 666 925 1088> 819 102<556 809>
VStem: 150 168<174 538> 866 102<182 586> 1090 70<93 131>
AnchorPoint: "bottom" 485 0 basechar 0
AnchorPoint: "top" 735 1004 basechar 0
LayerCount: 2
Fore
SplineSet
150 317 m 0,0,1
 150 420 150 420 189.5 527 c 128,-1,2
 229 634 229 634 297.5 722 c 128,-1,3
 366 810 366 810 469 866 c 128,-1,4
 572 922 572 922 688 922 c 0,5,6
 846 922 846 922 942 823 c 1,7,-1
 1063 1352 l 1,8,-1
 1227 1352 l 1,9,-1
 979 276 l 2,10,11
 969 232 969 232 969 182 c 0,12,13
 969 82 969 82 1012 82 c 0,14,15
 1040 82 1040 82 1062.5 96.5 c 128,-1,16
 1085 111 1085 111 1090 131 c 1,17,-1
 1159 131 l 1,18,19
 1146 68 1146 68 1088 24 c 128,-1,20
 1030 -20 1030 -20 961 -20 c 0,21,22
 908 -20 908 -20 868 6.5 c 128,-1,23
 828 33 828 33 809 78 c 1,24,25
 677 -20 677 -20 471 -20 c 0,26,27
 317 -20 317 -20 233.5 73 c 128,-1,28
 150 166 150 166 150 317 c 0,0,1
524 82 m 128,-1,30
 623 82 623 82 702.5 153 c 128,-1,31
 782 224 782 224 824 338.5 c 128,-1,32
 866 453 866 453 866 586 c 0,33,34
 866 691 866 691 825.5 755 c 128,-1,35
 785 819 785 819 694 819 c 0,36,37
 599 819 599 819 510.5 747 c 128,-1,38
 422 675 422 675 369.5 566 c 128,-1,39
 317 457 317 457 317 348 c 0,40,41
 317 236 317 236 371 159 c 128,-1,29
 425 82 425 82 524 82 c 128,-1,30
EndSplineSet
Validated: 1
EndChar

StartChar: a
Encoding: 97 97 1
Width: 1058
VWidth: 0
Flags: W
HStem: -20 102<366 693 846 1001> 819 102<532 850>
VStem: 154 158<136 521> 711 172<113 272> 1004 72<93 131>
AnchorPoint: "bottom" 446 0 basechar 0
AnchorPoint: "ogonek" 903 0 basechar 0
AnchorPoint: "top" 731 1004 basechar 0
LayerCount: 2
Fore
SplineSet
154 309 m 0,0,1
 154 420 154 420 203 533.5 c 128,-1,2
 252 647 252 647 327 731.5 c 128,-1,3
 402 816 402 816 497.5 869 c 128,-1,4
 593 922 593 922 682 922 c 0,5,6
 761 922 761 922 830 908 c 128,-1,7
 899 894 899 894 936 879 c 128,-1,8
 973 864 973 864 1024 838 c 1,9,-1
 895 276 l 2,10,11
 883 223 883 223 883 178 c 0,12,13
 883 135 883 135 894.5 108.5 c 128,-1,14
 906 82 906 82 926 82 c 0,15,16
 954 82 954 82 976.5 96.5 c 128,-1,17
 999 111 999 111 1004 131 c 1,18,-1
 1075 131 l 1,19,20
 1062 68 1062 68 1002.5 24 c 128,-1,21
 943 -20 943 -20 874 -20 c 0,22,23
 790 -20 790 -20 743 43 c 1,24,25
 592 -20 592 -20 440 -20 c 0,26,27
 308 -20 308 -20 231 72.5 c 128,-1,28
 154 165 154 165 154 309 c 0,0,1
852 797 m 1,29,30
 791 819 791 819 688 819 c 0,31,32
 616 819 616 819 556 789 c 128,-1,33
 496 759 496 759 456.5 709 c 128,-1,34
 417 659 417 659 387 600.5 c 128,-1,35
 357 542 357 542 341.5 479.5 c 128,-1,36
 326 417 326 417 318.5 368.5 c 128,-1,37
 311 320 311 320 311 283 c 0,38,39
 311 175 311 175 362 128.5 c 128,-1,40
 413 82 413 82 494 82 c 0,41,42
 604 82 604 82 711 131 c 1,43,-1
 711 156 l 2,44,45
 711 183 711 183 717 213 c 2,46,-1
 852 797 l 1,29,30
EndSplineSet
Validated: 1
EndChar

StartChar: h
Encoding: 104 104 2
Width: 1034
VWidth: 0
Flags: W
HStem: 0 43G<143 317 780 954> 819 102<560 873> 1270 102<284 461>
VStem: 213 70<1221 1259> 403 174<985 1268> 913 164<389 778>
AnchorPoint: "bottom" 549 0 basechar 0
AnchorPoint: "top" 715 1434 basechar 0
LayerCount: 2
Fore
SplineSet
391 1075 m 2,0,1
 403 1128 403 1128 403 1169 c 0,2,3
 403 1214 403 1214 391 1242 c 128,-1,4
 379 1270 379 1270 358 1270 c 0,5,6
 331 1270 331 1270 309.5 1255.5 c 128,-1,7
 288 1241 288 1241 283 1221 c 1,8,-1
 213 1221 l 1,9,10
 226 1284 226 1284 284.5 1328 c 128,-1,11
 343 1372 343 1372 412 1372 c 0,12,13
 485 1372 485 1372 531.5 1322.5 c 128,-1,14
 578 1273 578 1273 578 1196 c 0,15,16
 578 1184 578 1184 569 1139 c 1,17,-1
 508 870 l 1,18,19
 621 922 621 922 729 922 c 0,20,21
 1077 922 1077 922 1077 641 c 0,22,23
 1077 584 1077 584 1057 492 c 1,24,-1
 944 0 l 1,25,-1
 780 0 l 1,26,-1
 889 467 l 1,27,28
 913 575 913 575 913 643 c 0,29,30
 913 741 913 741 867.5 780 c 128,-1,31
 822 819 822 819 735 819 c 0,32,33
 608 819 608 819 475 723 c 1,34,-1
 307 0 l 1,35,-1
 143 0 l 1,36,-1
 391 1075 l 2,0,1
EndSplineSet
Validated: 1
EndChar

StartChar: e
Encoding: 101 101 3
Width: 964
VWidth: 0
Flags: W
HStem: -20 102<419 734> 451 102<362 869> 819 102<551 814>
VStem: 150 166<182 446> 872 160<556 758>
AnchorPoint: "cedilla" 535 0 basechar 0
AnchorPoint: "bottom" 510 0 basechar 0
AnchorPoint: "ogonek" 559 0 basechar 0
AnchorPoint: "top" 733 1004 basechar 0
LayerCount: 2
Fore
SplineSet
1032 571 m 0,0,1
 1032 451 1032 451 844 451 c 2,2,-1
 328 451 l 1,3,4
 315 391 315 391 315 340 c 0,5,6
 315 220 315 220 384 151 c 128,-1,7
 453 82 453 82 573 82 c 0,8,9
 720 82 720 82 827 205 c 1,10,-1
 940 158 l 1,11,12
 856 76 856 76 748.5 28 c 128,-1,13
 641 -20 641 -20 520 -20 c 0,14,15
 351 -20 351 -20 250.5 72.5 c 128,-1,16
 150 165 150 165 150 324 c 0,17,18
 150 443 150 443 199.5 555 c 128,-1,19
 249 667 249 667 327.5 746.5 c 128,-1,20
 406 826 406 826 504 874 c 128,-1,21
 602 922 602 922 696 922 c 0,22,23
 780 922 780 922 846 893.5 c 128,-1,24
 912 865 912 865 952 815.5 c 128,-1,25
 992 766 992 766 1012 704 c 128,-1,26
 1032 642 1032 642 1032 571 c 0,0,1
362 553 m 1,27,-1
 786 553 l 2,28,29
 831 553 831 553 851.5 562.5 c 128,-1,30
 872 572 872 572 872 596 c 0,31,32
 872 699 872 699 829.5 759 c 128,-1,33
 787 819 787 819 702 819 c 0,34,35
 598 819 598 819 506.5 744.5 c 128,-1,36
 415 670 415 670 362 553 c 1,27,-1
EndSplineSet
Validated: 1
EndChar

StartChar: n
Encoding: 110 110 4
Width: 1075
VWidth: 0
Flags: W
HStem: 0 43G<184 358 821 994> 819 102<221 380 602 914>
VStem: 150 70<770 808> 954 164<389 778>
AnchorPoint: "bottom" 578 0 basechar 0
AnchorPoint: "cedilla" 578 0 basechar 0
AnchorPoint: "top" 817 1004 basechar 0
LayerCount: 2
Fore
SplineSet
328 625 m 2,0,1
 340 678 340 678 340 719 c 0,2,3
 340 764 340 764 328 791.5 c 128,-1,4
 316 819 316 819 295 819 c 0,5,6
 267 819 267 819 245.5 804.5 c 128,-1,7
 224 790 224 790 219 770 c 1,8,-1
 150 770 l 1,9,10
 164 833 164 833 221.5 877.5 c 128,-1,11
 279 922 279 922 348 922 c 0,12,13
 442 922 442 922 489 842 c 1,14,15
 627 922 627 922 770 922 c 0,16,17
 1118 922 1118 922 1118 641 c 0,18,19
 1118 584 1118 584 1098 492 c 1,20,-1
 985 0 l 1,21,-1
 821 0 l 1,22,-1
 930 467 l 1,23,24
 954 575 954 575 954 643 c 0,25,26
 954 741 954 741 908.5 780 c 128,-1,27
 863 819 863 819 776 819 c 0,28,29
 648 819 648 819 512 721 c 1,30,31
 511 716 511 716 510 705 c 128,-1,32
 509 694 509 694 508 688 c 2,33,-1
 348 0 l 1,34,-1
 184 0 l 1,35,-1
 328 625 l 2,0,1
EndSplineSet
Validated: 1
EndChar

StartChar: c
Encoding: 99 99 5
Width: 944
VWidth: 0
Flags: W
HStem: -20 102<419 734> 819 102<553 814>
VStem: 150 166<182 543> 872 147<669 756>
AnchorPoint: "bottom" 541 0 basechar 0
AnchorPoint: "cedilla" 541 0 basechar 0
AnchorPoint: "top" 735 1004 basechar 0
LayerCount: 2
Fore
SplineSet
150 324 m 0,0,1
 150 443 150 443 199.5 555 c 128,-1,2
 249 667 249 667 327.5 746.5 c 128,-1,3
 406 826 406 826 504 874 c 128,-1,4
 602 922 602 922 696 922 c 0,5,6
 830 922 830 922 912 854.5 c 128,-1,7
 994 787 994 787 1020 676 c 1,8,-1
 872 608 l 1,9,10
 869 705 869 705 826.5 762 c 128,-1,11
 784 819 784 819 702 819 c 0,12,13
 601 819 601 819 510.5 747.5 c 128,-1,14
 420 676 420 676 367.5 565.5 c 128,-1,15
 315 455 315 455 315 340 c 0,16,17
 315 220 315 220 384 151 c 128,-1,18
 453 82 453 82 573 82 c 0,19,20
 720 82 720 82 827 205 c 1,21,-1
 940 158 l 1,22,23
 856 76 856 76 748.5 28 c 128,-1,24
 641 -20 641 -20 520 -20 c 0,25,26
 351 -20 351 -20 250.5 72.5 c 128,-1,27
 150 165 150 165 150 324 c 0,0,1
EndSplineSet
Validated: 1
EndChar

StartChar: b
Encoding: 98 98 6
Width: 1069
VWidth: 0
Flags: W
HStem: -20 102<417 739> 819 102<614 888> 1270 102<284 461>
VStem: 211 158<129 459> 213 70<1221 1259> 403 174<984 1268> 952 168<362 753>
AnchorPoint: "bottom" 494 0 basechar 0
AnchorPoint: "top" 813 1004 basechar 0
LayerCount: 2
Fore
SplineSet
1120 606 m 0,0,1
 1120 561 1120 561 1113 510 c 128,-1,2
 1106 459 1106 459 1087.5 397.5 c 128,-1,3
 1069 336 1069 336 1041 278.5 c 128,-1,4
 1013 221 1013 221 967 166 c 128,-1,5
 921 111 921 111 864 70 c 128,-1,6
 807 29 807 29 725.5 4.5 c 128,-1,7
 644 -20 644 -20 549 -20 c 0,8,9
 477 -20 477 -20 422.5 -10.5 c 128,-1,10
 368 -1 368 -1 317 24.5 c 128,-1,11
 266 50 266 50 238.5 102 c 128,-1,12
 211 154 211 154 211 231 c 0,13,14
 211 292 211 292 229 369 c 2,15,-1
 391 1075 l 2,16,17
 403 1128 403 1128 403 1169 c 0,18,19
 403 1214 403 1214 391 1242 c 128,-1,20
 379 1270 379 1270 358 1270 c 0,21,22
 331 1270 331 1270 309.5 1255.5 c 128,-1,23
 288 1241 288 1241 283 1221 c 1,24,-1
 213 1221 l 1,25,26
 226 1284 226 1284 284.5 1328 c 128,-1,27
 343 1372 343 1372 412 1372 c 0,28,29
 485 1372 485 1372 531.5 1322.5 c 128,-1,30
 578 1273 578 1273 578 1196 c 0,31,32
 578 1184 578 1184 569 1139 c 1,33,-1
 504 850 l 1,34,35
 627 922 627 922 766 922 c 0,36,37
 950 922 950 922 1035 837 c 128,-1,38
 1120 752 1120 752 1120 606 c 0,0,1
377 303 m 2,39,40
 369 270 369 270 369 236 c 0,41,42
 369 190 369 190 387.5 158 c 128,-1,43
 406 126 406 126 441 110 c 128,-1,44
 476 94 476 94 514 88 c 128,-1,45
 552 82 552 82 602 82 c 0,46,47
 678 82 678 82 745.5 130 c 128,-1,48
 813 178 813 178 857 252.5 c 128,-1,49
 901 327 901 327 926.5 414 c 128,-1,50
 952 501 952 501 952 582 c 0,51,52
 952 686 952 686 908 752.5 c 128,-1,53
 864 819 864 819 772 819 c 0,54,55
 681 819 681 819 606 770.5 c 128,-1,56
 531 722 531 722 484.5 645 c 128,-1,57
 438 568 438 568 416 471 c 2,58,-1
 377 303 l 2,39,40
EndSplineSet
Validated: 1
EndChar

StartChar: s
Encoding: 115 115 7
Width: 860
VWidth: 0
Flags: W
HStem: -20 102<279 603> 819 102<467 723>
VStem: 252 166<581 768> 688 168<168 375>
AnchorPoint: "cedilla" 422 0 basechar 0
AnchorPoint: "bottom" 422 0 basechar 0
AnchorPoint: "top" 621 1004 basechar 0
LayerCount: 2
Fore
SplineSet
252 639 m 0,0,1
 252 687 252 687 276 737 c 128,-1,2
 300 787 300 787 341 828 c 128,-1,3
 382 869 382 869 445 895.5 c 128,-1,4
 508 922 508 922 580 922 c 0,5,6
 683 922 683 922 759.5 891.5 c 128,-1,7
 836 861 836 861 913 795 c 1,8,-1
 776 723 l 1,9,10
 769 730 769 730 747 752 c 128,-1,11
 725 774 725 774 720 778 c 128,-1,12
 715 782 715 782 697.5 794.5 c 128,-1,13
 680 807 680 807 667.5 809.5 c 128,-1,14
 655 812 655 812 634 815.5 c 128,-1,15
 613 819 613 819 586 819 c 0,16,17
 539 819 539 819 503.5 801 c 128,-1,18
 468 783 468 783 451 755.5 c 128,-1,19
 434 728 434 728 426 703.5 c 128,-1,20
 418 679 418 679 418 657 c 0,21,22
 418 573 418 573 553 547 c 0,23,24
 856 488 856 488 856 313 c 0,25,26
 856 271 856 271 841.5 227 c 128,-1,27
 827 183 827 183 792.5 138 c 128,-1,28
 758 93 758 93 708 58.5 c 128,-1,29
 658 24 658 24 579 2 c 128,-1,30
 500 -20 500 -20 403 -20 c 0,31,32
 345 -20 345 -20 303.5 -12.5 c 128,-1,33
 262 -5 262 -5 222.5 17 c 128,-1,34
 183 39 183 39 160 57 c 128,-1,35
 137 75 137 75 88 117 c 1,36,-1
 195 193 l 1,37,38
 201 188 201 188 219 173 c 128,-1,39
 237 158 237 158 242 153.5 c 128,-1,40
 247 149 247 149 262 137.5 c 128,-1,41
 277 126 277 126 283.5 122.5 c 128,-1,42
 290 119 290 119 304.5 110.5 c 128,-1,43
 319 102 319 102 328.5 100 c 128,-1,44
 338 98 338 98 353.5 93 c 128,-1,45
 369 88 369 88 383.5 86.5 c 128,-1,46
 398 85 398 85 417 83.5 c 128,-1,47
 436 82 436 82 457 82 c 0,48,49
 518 82 518 82 564 103 c 128,-1,50
 610 124 610 124 632.5 151 c 128,-1,51
 655 178 655 178 668.5 212 c 128,-1,52
 682 246 682 246 685 264.5 c 128,-1,53
 688 283 688 283 688 295 c 0,54,55
 688 350 688 350 640 379.5 c 128,-1,56
 592 409 592 409 506 424 c 1,57,58
 381 449 381 449 316.5 504 c 128,-1,59
 252 559 252 559 252 639 c 0,0,1
EndSplineSet
Validated: 1
EndChar

StartChar: i
Encoding: 105 105 8
Width: 483
VWidth: 0
Flags: W
HStem: -20 102<252 428> 860 41G<292 465> 1065 164<377 502>
VStem: 135 174<85 272> 430 70<93 131>
AnchorPoint: "bottom" 172 0 basechar 0
AnchorPoint: "ogonek" 248 0 basechar 0
LayerCount: 2
Fore
SplineSet
377 1229 m 1,0,-1
 541 1229 l 1,1,-1
 502 1065 l 1,2,-1
 338 1065 l 1,3,-1
 377 1229 l 1,0,-1
319 276 m 2,4,5
 309 232 309 232 309 182 c 0,6,7
 309 82 309 82 352 82 c 0,8,9
 380 82 380 82 402.5 96.5 c 128,-1,10
 425 111 425 111 430 131 c 1,11,-1
 500 131 l 1,12,13
 487 68 487 68 428.5 24 c 128,-1,14
 370 -20 370 -20 301 -20 c 0,15,16
 228 -20 228 -20 181.5 29.5 c 128,-1,17
 135 79 135 79 135 156 c 0,18,19
 135 183 135 183 141 213 c 2,20,-1
 301 901 l 1,21,-1
 465 901 l 1,22,-1
 319 276 l 2,4,5
EndSplineSet
Validated: 1
EndChar

StartChar: o
Encoding: 111 111 9
Width: 1013
VWidth: 0
Flags: W
HStem: -20 102<385 668> 819 102<554 823>
VStem: 147 164<157 530> 897 168<366 739>
AnchorPoint: "horn" 999 635 basechar 0
AnchorPoint: "bottom" 487 0 basechar 0
AnchorPoint: "ogonek" 508 0 basechar 0
AnchorPoint: "top" 737 1004 basechar 0
LayerCount: 2
Fore
SplineSet
532 82 m 0,0,1
 608 82 608 82 677.5 127.5 c 128,-1,2
 747 173 747 173 794 244.5 c 128,-1,3
 841 316 841 316 869 403.5 c 128,-1,4
 897 491 897 491 897 575 c 0,5,6
 897 688 897 688 845.5 753.5 c 128,-1,7
 794 819 794 819 702 819 c 0,8,9
 602 819 602 819 511 748 c 128,-1,10
 420 677 420 677 365.5 559 c 128,-1,11
 311 441 311 441 311 311 c 0,12,13
 311 201 311 201 366.5 141.5 c 128,-1,14
 422 82 422 82 532 82 c 0,0,1
1065 594 m 0,15,16
 1065 546 1065 546 1056 492.5 c 128,-1,17
 1047 439 1047 439 1026 378.5 c 128,-1,18
 1005 318 1005 318 974.5 262 c 128,-1,19
 944 206 944 206 896 154 c 128,-1,20
 848 102 848 102 789.5 64 c 128,-1,21
 731 26 731 26 651 3 c 128,-1,22
 571 -20 571 -20 479 -20 c 0,23,24
 318 -20 318 -20 232.5 64.5 c 128,-1,25
 147 149 147 149 147 301 c 0,26,27
 147 430 147 430 197.5 547.5 c 128,-1,28
 248 665 248 665 327 745.5 c 128,-1,29
 406 826 406 826 504 874 c 128,-1,30
 602 922 602 922 696 922 c 0,31,32
 867 922 867 922 966 838 c 128,-1,33
 1065 754 1065 754 1065 594 c 0,15,16
EndSplineSet
Validated: 1
EndChar

StartChar: t
Encoding: 116 116 10
Width: 577
VWidth: 0
Flags: W
HStem: -20 102<346 523> 799 102<291 371 559 696>
VStem: 229 174<85 272> 524 70<93 131>
AnchorPoint: "bottom" 262 0 basechar 0
AnchorPoint: "cedilla" 393 4 basechar 0
AnchorPoint: "top" 582 1352 basechar 0
LayerCount: 2
Fore
SplineSet
414 276 m 2,0,1
 403 228 403 228 403 182 c 0,2,3
 403 82 403 82 446 82 c 0,4,5
 474 82 474 82 496.5 96.5 c 128,-1,6
 519 111 519 111 524 131 c 1,7,-1
 594 131 l 1,8,9
 581 68 581 68 522.5 24 c 128,-1,10
 464 -20 464 -20 395 -20 c 0,11,12
 322 -20 322 -20 275.5 29.5 c 128,-1,13
 229 79 229 79 229 156 c 0,14,15
 229 178 229 178 236 213 c 1,16,-1
 371 799 l 1,17,-1
 236 799 l 1,18,-1
 291 901 l 1,19,-1
 395 901 l 1,20,-1
 463 1198 l 1,21,-1
 635 1229 l 1,22,-1
 559 901 l 1,23,-1
 721 901 l 1,24,-1
 696 799 l 1,25,-1
 535 799 l 1,26,-1
 414 276 l 2,0,1
EndSplineSet
Validated: 1
EndChar

StartChar: m
Encoding: 109 109 11
Width: 1574
VWidth: 0
Flags: W
HStem: 0 43G<184 358 760 933 1317 1490> 819 102<221 380 584 880 1151 1437>
VStem: 150 70<770 808> 340 174<527 759> 1460 158<430 798>
AnchorPoint: "bottom" 844 0 basechar 0
AnchorPoint: "top" 1075 1004 basechar 0
LayerCount: 2
Fore
SplineSet
328 625 m 2,0,1
 340 678 340 678 340 719 c 0,2,3
 340 764 340 764 328 791.5 c 128,-1,4
 316 819 316 819 295 819 c 0,5,6
 267 819 267 819 245.5 804.5 c 128,-1,7
 224 790 224 790 219 770 c 1,8,-1
 150 770 l 1,9,10
 164 833 164 833 221.5 877.5 c 128,-1,11
 279 922 279 922 348 922 c 0,12,13
 442 922 442 922 489 842 c 1,14,15
 557 883 557 883 614 902.5 c 128,-1,16
 671 922 671 922 739 922 c 0,17,18
 952 922 952 922 1022 815 c 1,19,20
 1183 922 1183 922 1307 922 c 0,21,22
 1471 922 1471 922 1544.5 860.5 c 128,-1,23
 1618 799 1618 799 1618 670 c 0,24,25
 1618 598 1618 598 1593 492 c 2,26,-1
 1481 0 l 1,27,-1
 1317 0 l 1,28,-1
 1432 500 l 2,29,30
 1460 624 1460 624 1460 686 c 0,31,32
 1460 764 1460 764 1425 791.5 c 128,-1,33
 1390 819 1390 819 1313 819 c 0,34,35
 1174 819 1174 819 1090 719 c 1,36,-1
 924 0 l 1,37,-1
 760 0 l 1,38,-1
 874 500 l 2,39,40
 903 626 903 626 903 684 c 0,41,42
 903 764 903 764 865.5 791.5 c 128,-1,43
 828 819 828 819 745 819 c 0,44,45
 630 819 630 819 514 727 c 1,46,47
 514 720 514 720 511 705.5 c 128,-1,48
 508 691 508 691 508 688 c 2,49,-1
 348 0 l 1,50,-1
 184 0 l 1,51,-1
 328 625 l 2,0,1
EndSplineSet
Validated: 1
EndChar

StartChar: f
Encoding: 102 102 12
Width: 608
VWidth: 0
Flags: W
HStem: -276 102<36 145> 799 102<311 391 580 717> 1270 102<687 874>
VStem: -39 74<-170 -125>
AnchorPoint: "bottom" 215 -256 basechar 0
AnchorPoint: "top" 713 1434 basechar 0
LayerCount: 2
Fore
SplineSet
360 -43 m 2,0,1
 337 -140 337 -140 259.5 -208 c 128,-1,2
 182 -276 182 -276 94 -276 c 0,3,4
 35 -276 35 -276 -2 -243 c 128,-1,5
 -39 -210 -39 -210 -39 -158 c 0,6,7
 -39 -145 -39 -145 -35 -125 c 1,8,-1
 35 -125 l 1,9,-1
 35 -133 l 2,10,11
 35 -151 35 -151 49.5 -162.5 c 128,-1,12
 64 -174 64 -174 88 -174 c 0,13,14
 119 -174 119 -174 155.5 -116.5 c 128,-1,15
 192 -59 192 -59 211 20 c 2,16,-1
 391 799 l 1,17,-1
 256 799 l 1,18,-1
 311 901 l 1,19,-1
 416 901 l 1,20,-1
 461 1096 l 2,21,22
 491 1222 491 1222 575 1297 c 128,-1,23
 659 1372 659 1372 780 1372 c 0,24,25
 865 1372 865 1372 920 1350 c 1,26,-1
 852 1239 l 1,27,28
 833 1270 833 1270 786 1270 c 0,29,30
 722 1270 722 1270 682 1221 c 128,-1,31
 642 1172 642 1172 612 1042 c 2,32,-1
 580 901 l 1,33,-1
 741 901 l 1,34,-1
 717 799 l 1,35,-1
 555 799 l 1,36,-1
 360 -43 l 2,0,1
EndSplineSet
Validated: 1
EndChar

StartChar: j
Encoding: 106 106 13
Width: 376
VWidth: 0
Flags: W
HStem: -348 102<-190 42> 860 41G<322 496> 1065 164<408 532>
AnchorPoint: "bottom" -63 -348 basechar 0
LayerCount: 2
Fore
SplineSet
-141 -195 m 1,0,1
 -119 -246 -119 -246 -45 -246 c 0,2,3
 15 -246 15 -246 54 -187.5 c 128,-1,4
 93 -129 93 -129 123 0 c 2,5,-1
 332 901 l 1,6,-1
 496 901 l 1,7,-1
 270 -68 l 2,8,9
 248 -164 248 -164 185.5 -229.5 c 128,-1,10
 123 -295 123 -295 51 -321.5 c 128,-1,11
 -21 -348 -21 -348 -98 -348 c 0,12,13
 -228 -348 -228 -348 -285 -256 c 1,14,-1
 -141 -195 l 1,0,1
408 1229 m 1,15,-1
 571 1229 l 1,16,-1
 532 1065 l 1,17,-1
 369 1065 l 1,18,-1
 408 1229 l 1,15,-1
EndSplineSet
Validated: 1
EndChar

StartChar: l
Encoding: 108 108 15
Width: 495
VWidth: 0
Flags: W
HStem: -20 102<252 428>
VStem: 135 174<85 274> 430 70<93 131>
AnchorPoint: "bottom" 172 0 basechar 0
AnchorPoint: "cedilla" 287 -4 basechar 0
AnchorPoint: "top" 506 1434 basechar 0
LayerCount: 2
Fore
SplineSet
319 276 m 6,0,1
 309 232 309 232 309 182 c 4,2,3
 309 82 309 82 352 82 c 4,4,5
 380 82 380 82 402.5 96.5 c 132,-1,6
 425 111 425 111 430 131 c 5,7,-1
 500 131 l 5,8,9
 487 68 487 68 428.5 24 c 132,-1,10
 370 -20 370 -20 301 -20 c 4,11,12
 228 -20 228 -20 181.5 29.5 c 132,-1,13
 135 79 135 79 135 156 c 4,14,15
 135 183 135 183 141 213 c 6,16,-1
 403 1352 l 1,17,-1
 567 1352 l 1,18,-1
 319 276 l 6,0,1
EndSplineSet
Validated: 1
EndChar

StartChar: p
Encoding: 112 112 16
Width: 1107
VWidth: 0
Flags: W
HStem: -16 102<505 758> 823 102<229 383 639 924>
VStem: 150 70<770 804> 993 164<365 748>
AnchorPoint: "bottom" 635 0 basechar 0
AnchorPoint: "top" 850 1004 basechar 0
LayerCount: 2
Fore
SplineSet
635 86 m 0,0,1
 710 86 710 86 793 152.5 c 128,-1,2
 876 219 876 219 934.5 333.5 c 128,-1,3
 993 448 993 448 993 569 c 0,4,5
 993 677 993 677 949.5 750 c 128,-1,6
 906 823 906 823 825 823 c 0,7,8
 669 823 669 823 585 741.5 c 128,-1,9
 501 660 501 660 465 504 c 0,10,11
 440 399 440 399 440 322 c 0,12,13
 440 217 440 217 486 151.5 c 128,-1,14
 532 86 532 86 635 86 c 0,0,1
328 625 m 1,15,16
 348 719 348 719 348 748 c 0,17,18
 348 819 348 819 295 819 c 0,19,20
 270 819 270 819 247 804 c 128,-1,21
 224 789 224 789 219 770 c 1,22,-1
 150 770 l 1,23,24
 163 832 163 832 222 877 c 128,-1,25
 281 922 281 922 348 922 c 0,26,27
 451 922 451 922 496 834 c 1,28,29
 619 926 619 926 817 926 c 0,30,31
 975 926 975 926 1066 828 c 128,-1,32
 1157 730 1157 730 1157 575 c 0,33,34
 1157 461 1157 461 1107.5 352 c 128,-1,35
 1058 243 1058 243 978 162.5 c 128,-1,36
 898 82 898 82 792.5 33 c 128,-1,37
 687 -16 687 -16 580 -16 c 0,38,39
 440 -16 440 -16 362 59 c 1,40,-1
 254 -410 l 1,41,-1
 90 -410 l 1,42,-1
 328 625 l 1,15,16
EndSplineSet
Validated: 1
EndChar

StartChar: q
Encoding: 113 113 17
Width: 1142
VWidth: 0
Flags: W
HStem: -410 102<831 1008> -20 102<389 663> 819 102<538 861>
VStem: 156 168<148 534> 715 174<-306 -13> 909 158<450 772> 1010 70<-296 -258>
AnchorPoint: "bottom" 492 0 basechar 0
AnchorPoint: "top" 735 1004 basechar 0
LayerCount: 2
Fore
SplineSet
156 295 m 0,0,1
 156 360 156 360 170.5 435 c 128,-1,2
 185 510 185 510 225.5 598.5 c 128,-1,3
 266 687 266 687 327.5 757 c 128,-1,4
 389 827 389 827 493.5 874.5 c 128,-1,5
 598 922 598 922 729 922 c 0,6,7
 786 922 786 922 831 916.5 c 128,-1,8
 876 911 876 911 922 895 c 128,-1,9
 968 879 968 879 998.5 852 c 128,-1,10
 1029 825 1029 825 1048 778.5 c 128,-1,11
 1067 732 1067 732 1067 670 c 128,-1,12
 1067 608 1067 608 1049 532 c 2,13,-1
 899 -113 l 2,14,15
 889 -157 889 -157 889 -207 c 0,16,17
 889 -307 889 -307 932 -307 c 0,18,19
 960 -307 960 -307 982.5 -292.5 c 128,-1,20
 1005 -278 1005 -278 1010 -258 c 1,21,-1
 1079 -258 l 1,22,23
 1065 -321 1065 -321 1007.5 -365.5 c 128,-1,24
 950 -410 950 -410 881 -410 c 0,25,26
 808 -410 808 -410 761.5 -360 c 128,-1,27
 715 -310 715 -310 715 -233 c 0,28,29
 715 -206 715 -206 721 -176 c 1,30,-1
 774 49 l 1,31,32
 657 -20 657 -20 512 -20 c 0,33,34
 328 -20 328 -20 242 64.5 c 128,-1,35
 156 149 156 149 156 295 c 0,0,1
860 430 m 2,36,-1
 899 598 l 2,37,38
 909 640 909 640 909 666 c 0,39,40
 909 712 909 712 890 744 c 128,-1,41
 871 776 871 776 836 791.5 c 128,-1,42
 801 807 801 807 762.5 813 c 128,-1,43
 724 819 724 819 674 819 c 0,44,45
 598 819 598 819 530.5 771 c 128,-1,46
 463 723 463 723 419 648.5 c 128,-1,47
 375 574 375 574 349.5 487 c 128,-1,48
 324 400 324 400 324 319 c 0,49,50
 324 215 324 215 368 148.5 c 128,-1,51
 412 82 412 82 504 82 c 0,52,53
 595 82 595 82 670 130.5 c 128,-1,54
 745 179 745 179 791.5 256 c 128,-1,55
 838 333 838 333 860 430 c 2,36,-1
EndSplineSet
Validated: 1
EndChar

StartChar: r
Encoding: 114 114 18
Width: 770
VWidth: 0
Flags: W
HStem: 0 43G<184 358> 819 102<221 380 570 863>
VStem: 150 70<770 808> 340 174<629 766>
AnchorPoint: "bottom" 270 0 basechar 0
AnchorPoint: "cedilla" 262 0 basechar 0
AnchorPoint: "top" 666 1004 basechar 0
LayerCount: 2
Fore
SplineSet
881 741 m 1,0,1
 860 819 860 819 723 819 c 0,2,3
 661 819 661 819 613 797.5 c 128,-1,4
 565 776 565 776 514 731 c 1,5,6
 514 709 514 709 508 688 c 1,7,-1
 348 0 l 1,8,-1
 184 0 l 1,9,-1
 328 625 l 2,10,11
 340 678 340 678 340 719 c 0,12,13
 340 764 340 764 328 791.5 c 128,-1,14
 316 819 316 819 295 819 c 0,15,16
 267 819 267 819 245.5 804.5 c 128,-1,17
 224 790 224 790 219 770 c 1,18,-1
 150 770 l 1,19,20
 164 833 164 833 221.5 877.5 c 128,-1,21
 279 922 279 922 348 922 c 0,22,23
 442 922 442 922 489 842 c 1,24,25
 558 884 558 884 611.5 903 c 128,-1,26
 665 922 665 922 733 922 c 0,27,28
 839 922 839 922 915 893 c 1,29,-1
 881 741 l 1,0,1
EndSplineSet
Validated: 1
EndChar

StartChar: u
Encoding: 117 117 19
Width: 1110
VWidth: 0
Flags: W
HStem: -20 102<380 690 896 1055> 860 41G<281 455 918 1092>
VStem: 154 172<137 501> 762 174<142 374> 1057 70<93 131>
AnchorPoint: "bottom" 471 0 basechar 0
AnchorPoint: "horn" 1030 635 basechar 0
AnchorPoint: "ogonek" 932 0 basechar 0
AnchorPoint: "top" 719 1004 basechar 0
LayerCount: 2
Fore
SplineSet
946 276 m 2,0,1
 936 232 936 232 936 182 c 0,2,3
 936 82 936 82 979 82 c 0,4,5
 1007 82 1007 82 1029.5 96.5 c 128,-1,6
 1052 111 1052 111 1057 131 c 1,7,-1
 1126 131 l 1,8,9
 1113 68 1113 68 1055 24 c 128,-1,10
 997 -20 997 -20 928 -20 c 0,11,12
 832 -20 832 -20 784 61 c 1,13,14
 714 23 714 23 631 1.5 c 128,-1,15
 548 -20 548 -20 475 -20 c 0,16,17
 309 -20 309 -20 231.5 43.5 c 128,-1,18
 154 107 154 107 154 240 c 0,19,20
 154 311 154 311 176 410 c 1,21,-1
 291 901 l 1,22,-1
 455 901 l 1,23,-1
 346 434 l 2,24,25
 326 350 326 350 326 281 c 0,26,27
 326 171 326 171 379.5 126.5 c 128,-1,28
 433 82 433 82 528 82 c 0,29,30
 646 82 646 82 762 174 c 1,31,32
 762 177 762 177 768 213 c 1,33,-1
 928 901 l 1,34,-1
 1092 901 l 1,35,-1
 946 276 l 2,0,1
EndSplineSet
Validated: 1
EndChar

StartChar: g
Encoding: 103 103 20
Width: 1091
VWidth: 0
Flags: W
HStem: -348 102<264 592> -20 102<394 702> 819 102<529 784 1073 1185>
VStem: 147 166<162 536> 1186 74<770 815>
AnchorPoint: "bottom" 397 -330 basechar 0
AnchorPoint: "top" 709 1004 basechar 0
LayerCount: 2
Fore
SplineSet
672 819 m 128,-1,1
 590 819 590 819 520 769.5 c 128,-1,2
 450 720 450 720 406 644 c 128,-1,3
 362 568 362 568 337.5 482.5 c 128,-1,4
 313 397 313 397 313 319 c 0,5,6
 313 207 313 207 371.5 144.5 c 128,-1,7
 430 82 430 82 543 82 c 0,8,9
 652 82 652 82 733 145 c 1,10,-1
 842 608 l 1,11,12
 839 705 839 705 796.5 762 c 128,-1,0
 754 819 754 819 672 819 c 128,-1,1
705 23 m 1,13,14
 600 -20 600 -20 489 -20 c 0,15,16
 326 -20 326 -20 236.5 67 c 128,-1,17
 147 154 147 154 147 307 c 0,18,19
 147 461 147 461 220 604 c 128,-1,20
 293 747 293 747 414 834.5 c 128,-1,21
 535 922 535 922 666 922 c 0,22,23
 833 922 833 922 922 815 c 1,24,25
 962 865 962 865 1016.5 893.5 c 128,-1,26
 1071 922 1071 922 1126 922 c 0,27,28
 1185 922 1185 922 1222.5 888.5 c 128,-1,29
 1260 855 1260 855 1260 803 c 0,30,31
 1260 795 1260 795 1255 770 c 1,32,-1
 1186 770 l 1,33,-1
 1186 778 l 2,34,35
 1186 795 1186 795 1170 807 c 128,-1,36
 1154 819 1154 819 1130 819 c 0,37,38
 1099 819 1099 819 1063 761.5 c 128,-1,39
 1027 704 1027 704 1008 625 c 2,40,-1
 901 160 l 2,41,42
 876 51 876 51 854 -20.5 c 128,-1,43
 832 -92 832 -92 800.5 -153 c 128,-1,44
 769 -214 769 -214 733.5 -248.5 c 128,-1,45
 698 -283 698 -283 644 -307 c 128,-1,46
 590 -331 590 -331 524 -339.5 c 128,-1,47
 458 -348 458 -348 365 -348 c 0,48,49
 215 -348 215 -348 61 -256 c 1,50,-1
 188 -150 l 1,51,52
 304 -246 304 -246 418 -246 c 0,53,54
 489 -246 489 -246 535 -233 c 128,-1,55
 581 -220 581 -220 613 -185.5 c 128,-1,56
 645 -151 645 -151 664.5 -104 c 128,-1,57
 684 -57 684 -57 705 23 c 1,13,14
EndSplineSet
Validated: 1
EndChar

StartChar: v
Encoding: 118 118 21
Width: 931
VWidth: 0
Flags: W
HStem: 0 43G<384 577> 860 41G<270 425 901 1090>
AnchorPoint: "bottom" 467 0 basechar 0
AnchorPoint: "top" 707 1004 basechar 0
LayerCount: 2
Fore
SplineSet
553 0 m 1,0,-1
 389 0 l 1,1,-1
 270 901 l 1,2,-1
 420 901 l 1,3,-1
 512 205 l 1,4,-1
 926 901 l 1,5,-1
 1090 901 l 1,6,-1
 553 0 l 1,0,-1
EndSplineSet
Validated: 1
EndChar

StartChar: w
Encoding: 119 119 22
Width: 1587
VWidth: 0
Flags: W
HStem: 0 43G<384 577 1039 1233> 860 41G<270 425 901 1081 1557 1745>
AnchorPoint: "bottom" 799 0 basechar 0
AnchorPoint: "top" 1024 1004 basechar 0
LayerCount: 2
Fore
SplineSet
512 205 m 1,0,-1
 926 901 l 1,1,-1
 1075 901 l 1,2,-1
 1167 205 l 1,3,-1
 1581 901 l 1,4,-1
 1745 901 l 1,5,-1
 1208 0 l 1,6,-1
 1044 0 l 1,7,-1
 954 676 l 1,8,-1
 553 0 l 1,9,-1
 389 0 l 1,10,-1
 270 901 l 1,11,-1
 420 901 l 1,12,-1
 512 205 l 1,0,-1
EndSplineSet
Validated: 1
EndChar

StartChar: x
Encoding: 120 120 23
Width: 954
VWidth: 0
Flags: W
HStem: 0 43G<61 276 687 883> 860 41G<328 521 822 1034>
AnchorPoint: "bottom" 469 0 basechar 0
AnchorPoint: "top" 707 1004 basechar 0
LayerCount: 2
Fore
SplineSet
498 494 m 1,0,-1
 328 901 l 1,1,-1
 504 901 l 1,2,-1
 616 629 l 1,3,-1
 858 901 l 1,4,-1
 1034 901 l 1,5,-1
 674 494 l 1,6,-1
 883 0 l 1,7,-1
 705 0 l 1,8,-1
 555 358 l 1,9,-1
 240 0 l 1,10,-1
 61 0 l 1,11,-1
 498 494 l 1,0,-1
EndSplineSet
Validated: 1
EndChar

StartChar: y
Encoding: 121 121 24
Width: 931
VWidth: 0
Flags: W
HStem: -348 102<133 262> 860 41G<270 425 901 1090>
AnchorPoint: "ogonek" 631 0 basechar 0
AnchorPoint: "bottom" 299 -315 basechar 0
AnchorPoint: "top" 709 1004 basechar 0
LayerCount: 2
Fore
SplineSet
137 -348 m 0,0,1
 82 -348 82 -348 43 -315 c 128,-1,2
 4 -282 4 -282 -43 -213 c 1,3,-1
 102 -147 l 1,4,5
 133 -211 133 -211 151 -228.5 c 128,-1,6
 169 -246 169 -246 190 -246 c 0,7,8
 209 -246 209 -246 225.5 -236.5 c 128,-1,9
 242 -227 242 -227 265.5 -195.5 c 128,-1,10
 289 -164 289 -164 301 -145 c 128,-1,11
 313 -126 313 -126 348 -68 c 0,12,13
 357 -53 357 -53 362 -45 c 2,14,-1
 389 0 l 1,15,-1
 270 901 l 1,16,-1
 420 901 l 1,17,-1
 512 205 l 1,18,-1
 926 901 l 1,19,-1
 1090 901 l 1,20,-1
 522 -49 l 2,21,22
 434 -197 434 -197 342 -272.5 c 128,-1,23
 250 -348 250 -348 137 -348 c 0,0,1
EndSplineSet
Validated: 1
EndChar

StartChar: k
Encoding: 107 107 25
Width: 917
VWidth: 0
Flags: W
HStem: 0 43G<143 317 710 909> 860 41G<847 1081> 1270 102<284 461>
VStem: 213 70<1221 1259> 403 174<987 1268>
AnchorPoint: "bottom" 504 0 basechar 0
AnchorPoint: "cedilla" 504 0 basechar 0
AnchorPoint: "top" 715 1434 basechar 0
LayerCount: 2
Fore
SplineSet
307 0 m 1,0,-1
 143 0 l 1,1,-1
 391 1075 l 2,2,3
 403 1128 403 1128 403 1169 c 0,4,5
 403 1214 403 1214 391 1242 c 128,-1,6
 379 1270 379 1270 358 1270 c 0,7,8
 331 1270 331 1270 309.5 1255.5 c 128,-1,9
 288 1241 288 1241 283 1221 c 1,10,-1
 213 1221 l 1,11,12
 226 1284 226 1284 284.5 1328 c 128,-1,13
 343 1372 343 1372 412 1372 c 0,14,15
 485 1372 485 1372 531.5 1322.5 c 128,-1,16
 578 1273 578 1273 578 1196 c 0,17,18
 578 1184 578 1184 569 1139 c 1,19,-1
 418 477 l 1,20,-1
 893 901 l 1,21,-1
 1081 901 l 1,22,-1
 631 502 l 1,23,-1
 909 0 l 1,24,-1
 733 0 l 1,25,-1
 512 395 l 1,26,-1
 369 268 l 1,27,-1
 307 0 l 1,0,-1
EndSplineSet
Validated: 1
EndChar

StartChar: z
Encoding: 122 122 26
Width: 845
VWidth: 0
Flags: W
HStem: -233 82<181 334> 799 102<240 668>
VStem: 573 164<18 294>
AnchorPoint: "bottom" 295 -207 basechar 0
AnchorPoint: "top" 575 1004 basechar 0
LayerCount: 2
Fore
SplineSet
668 799 m 1,0,-1
 184 799 l 1,1,-1
 240 901 l 1,2,-1
 928 901 l 1,3,-1
 481 512 l 1,4,5
 514 492 514 492 544.5 470 c 128,-1,6
 575 448 575 448 611.5 413.5 c 128,-1,7
 648 379 648 379 674.5 343 c 128,-1,8
 701 307 701 307 719 259.5 c 128,-1,9
 737 212 737 212 737 164 c 0,10,11
 737 91 737 91 706.5 29 c 128,-1,12
 676 -33 676 -33 627.5 -72.5 c 128,-1,13
 579 -112 579 -112 520.5 -143 c 128,-1,14
 462 -174 462 -174 403 -190.5 c 128,-1,15
 344 -207 344 -207 296 -217 c 0,16,17
 246 -227 246 -227 216 -230 c 2,18,-1
 186 -233 l 1,19,-1
 154 -152 l 1,20,21
 163 -151 163 -151 178 -149.5 c 128,-1,22
 193 -148 193 -148 236.5 -139 c 128,-1,23
 280 -130 280 -130 319.5 -117 c 128,-1,24
 359 -104 359 -104 407.5 -79.5 c 128,-1,25
 456 -55 456 -55 490.5 -24.5 c 128,-1,26
 525 6 525 6 549 54 c 128,-1,27
 573 102 573 102 573 158 c 0,28,29
 573 200 573 200 558 240 c 128,-1,30
 543 280 543 280 518.5 311 c 128,-1,31
 494 342 494 342 465 370 c 128,-1,32
 436 398 436 398 407 417.5 c 128,-1,33
 378 437 378 437 353.5 451 c 128,-1,34
 329 465 329 465 314 472 c 2,35,-1
 299 479 l 1,36,-1
 668 799 l 1,0,-1
EndSplineSet
Validated: 1
EndChar

StartChar: A
Encoding: 65 65 27
Width: 1275
VWidth: 0
Flags: W
HStem: 0 43G<31 219 1086 1255> 410 102<500 1024> 1393 41G<860 1070>
AnchorPoint: "bottom" 639 0 basechar 0
AnchorPoint: "ogonek" 1092 0 basechar 0
AnchorPoint: "top" 975 1434 basechar 0
LayerCount: 2
Fore
SplineSet
1092 6 m 1,0,-1
31 0 m 1,1,-1
 885 1434 l 1,2,-1
 1065 1434 l 1,3,-1
 1255 0 l 1,4,-1
 1092 0 l 1,5,-1
 1036 410 l 1,6,-1
 438 410 l 1,7,-1
 195 0 l 1,8,-1
 31 0 l 1,1,-1
928 1231 m 1,9,-1
 500 512 l 1,10,-1
 1024 512 l 1,11,-1
 928 1231 l 1,9,-1
EndSplineSet
Validated: 1
EndChar

StartChar: B
Encoding: 66 66 28
Width: 1052
VWidth: 0
Flags: W
HStem: 0 102<281 700> 727 102<449 775> 1331 102<563 901>
VStem: 872 176<300 657> 944 178<999 1290>
AnchorPoint: "bottom" 471 0 basechar 0
AnchorPoint: "top" 741 1434 basechar 0
LayerCount: 2
Fore
SplineSet
547 102 m 2,0,1
 622 102 622 102 684.5 136 c 128,-1,2
 747 170 747 170 787.5 225.5 c 128,-1,3
 828 281 828 281 850 349.5 c 128,-1,4
 872 418 872 418 872 489 c 0,5,6
 872 536 872 536 862 577 c 128,-1,7
 852 618 852 618 831.5 652.5 c 128,-1,8
 811 687 811 687 775 707 c 128,-1,9
 739 727 739 727 690 727 c 2,10,-1
 424 727 l 1,11,-1
 281 102 l 1,12,-1
 547 102 l 2,0,1
449 829 m 1,13,-1
 629 829 l 2,14,15
 747 829 747 829 845.5 925.5 c 128,-1,16
 944 1022 944 1022 944 1159 c 0,17,18
 944 1232 944 1232 908.5 1281.5 c 128,-1,19
 873 1331 873 1331 788 1331 c 2,20,-1
 563 1331 l 1,21,-1
 449 829 l 1,13,-1
872 795 m 1,22,23
 963 756 963 756 1006 677.5 c 128,-1,24
 1049 599 1049 599 1049 500 c 0,25,26
 1049 427 1049 427 1028.5 356.5 c 128,-1,27
 1008 286 1008 286 963.5 221 c 128,-1,28
 919 156 919 156 855 107 c 128,-1,29
 791 58 791 58 697.5 29 c 128,-1,30
 604 0 604 0 492 0 c 2,31,-1
 82 0 l 1,32,-1
 414 1434 l 1,33,-1
 782 1434 l 2,34,35
 1122 1434 1122 1434 1122 1188 c 0,36,37
 1122 1065 1122 1065 1056 960.5 c 128,-1,38
 990 856 990 856 872 795 c 1,22,23
EndSplineSet
Validated: 1
EndChar

StartChar: P
Encoding: 80 80 29
Width: 970
VWidth: 0
Flags: W
HStem: 0 43G<92 276> 655 102<440 858> 1331 102<573 969>
VStem: 1032 174<951 1271>
AnchorPoint: "bottom" 369 0 basechar 0
AnchorPoint: "top" 811 1434 basechar 0
LayerCount: 2
Fore
SplineSet
1206 1128 m 0,0,1
 1206 1066 1206 1066 1184 1001 c 128,-1,2
 1162 936 1162 936 1116 874 c 128,-1,3
 1070 812 1070 812 1007 763 c 128,-1,4
 944 714 944 714 855 684.5 c 128,-1,5
 766 655 766 655 664 655 c 2,6,-1
 418 655 l 1,7,-1
 266 0 l 1,8,-1
 92 0 l 1,9,-1
 424 1434 l 1,10,-1
 844 1434 l 2,11,12
 923 1434 923 1434 986.5 1416 c 128,-1,13
 1050 1398 1050 1398 1090 1368.5 c 128,-1,14
 1130 1339 1130 1339 1157 1299 c 128,-1,15
 1184 1259 1184 1259 1195 1216.5 c 128,-1,16
 1206 1174 1206 1174 1206 1128 c 0,0,1
573 1331 m 1,17,-1
 440 758 l 1,18,-1
 717 758 l 2,19,20
 807 758 807 758 881 816 c 128,-1,21
 955 874 955 874 993.5 958 c 128,-1,22
 1032 1042 1032 1042 1032 1128 c 0,23,24
 1032 1215 1032 1215 988.5 1273 c 128,-1,25
 945 1331 945 1331 850 1331 c 2,26,-1
 573 1331 l 1,17,-1
EndSplineSet
Validated: 1
EndChar

StartChar: C
Encoding: 67 67 30
Width: 1325
VWidth: 0
Flags: W
HStem: -20 102<585 956> 1352 102<814 1199>
VStem: 201 176<307 773>
AnchorPoint: "bottom" 717 0 basechar 0
AnchorPoint: "cedilla" 717 0 basechar 0
AnchorPoint: "top" 1008 1434 basechar 0
LayerCount: 2
Fore
SplineSet
1012 1352 m 0,0,1
 892 1352 892 1352 785.5 1294 c 128,-1,2
 679 1236 679 1236 606.5 1145 c 128,-1,3
 534 1054 534 1054 480.5 942.5 c 128,-1,4
 427 831 427 831 402 722.5 c 128,-1,5
 377 614 377 614 377 522 c 0,6,7
 377 433 377 433 400 358 c 128,-1,8
 423 283 423 283 461 233 c 128,-1,9
 499 183 499 183 548 148 c 128,-1,10
 597 113 597 113 648 97.5 c 128,-1,11
 699 82 699 82 750 82 c 0,12,13
 990 82 990 82 1149 264 c 1,14,-1
 1257 209 l 1,15,16
 1153 106 1153 106 1005 43 c 128,-1,17
 857 -20 857 -20 696 -20 c 0,18,19
 626 -20 626 -20 557 -0.5 c 128,-1,20
 488 19 488 19 423.5 61.5 c 128,-1,21
 359 104 359 104 310 164.5 c 128,-1,22
 261 225 261 225 231 314.5 c 128,-1,23
 201 404 201 404 201 510 c 0,24,25
 201 612 201 612 228 722 c 128,-1,26
 255 832 255 832 304 937 c 128,-1,27
 353 1042 353 1042 426.5 1136 c 128,-1,28
 500 1230 500 1230 587 1300.5 c 128,-1,29
 674 1371 674 1371 782.5 1412.5 c 128,-1,30
 891 1454 891 1454 1006 1454 c 0,31,32
 1368 1454 1368 1454 1489 1245 c 1,33,-1
 1321 1178 l 1,34,35
 1239 1352 1239 1352 1012 1352 c 0,0,1
EndSplineSet
Validated: 1
EndChar

StartChar: D
Encoding: 68 68 31
Width: 1216
VWidth: 0
Flags: W
HStem: 0 102<291 782> 1331 102<573 1062>
VStem: 1157 172<718 1227>
AnchorPoint: "bottom" 512 0 basechar 0
AnchorPoint: "top" 831 1434 basechar 0
LayerCount: 2
Fore
SplineSet
1329 1020 m 0,0,1
 1329 962 1329 962 1319.5 885.5 c 128,-1,2
 1310 809 1310 809 1285.5 710 c 128,-1,3
 1261 611 1261 611 1224.5 514.5 c 128,-1,4
 1188 418 1188 418 1128.5 324 c 128,-1,5
 1069 230 1069 230 995 159 c 128,-1,6
 921 88 921 88 815.5 44 c 128,-1,7
 710 0 710 0 588 0 c 2,8,-1
 92 0 l 1,9,-1
 424 1434 l 1,10,-1
 920 1434 l 2,11,12
 1329 1434 1329 1434 1329 1020 c 0,0,1
573 1331 m 1,13,-1
 291 102 l 1,14,-1
 643 102 l 2,15,16
 728 102 728 102 804.5 153 c 128,-1,17
 881 204 881 204 935 287 c 128,-1,18
 989 370 989 370 1033 470.5 c 128,-1,19
 1077 571 1077 571 1103.5 676 c 128,-1,20
 1130 781 1130 781 1143.5 870 c 128,-1,21
 1157 959 1157 959 1157 1024 c 0,22,23
 1157 1185 1157 1185 1094 1258 c 128,-1,24
 1031 1331 1031 1331 926 1331 c 2,25,-1
 573 1331 l 1,13,-1
EndSplineSet
Validated: 1
EndChar

StartChar: E
Encoding: 69 69 32
Width: 962
VWidth: 0
Flags: W
HStem: 0 102<281 942> 799 102<465 909> 1331 102<563 1217>
AnchorPoint: "cedilla" 563 0 basechar 0
AnchorPoint: "bottom" 537 0 basechar 0
AnchorPoint: "ogonek" 754 0 basechar 0
AnchorPoint: "top" 854 1434 basechar 0
LayerCount: 2
Fore
SplineSet
942 0 m 1,0,-1
 82 0 l 1,1,-1
 414 1434 l 1,2,-1
 1241 1434 l 1,3,-1
 1217 1331 l 1,4,-1
 563 1331 l 1,5,-1
 465 901 l 1,6,-1
 934 901 l 1,7,-1
 909 799 l 1,8,-1
 440 799 l 1,9,-1
 281 102 l 1,10,-1
 967 102 l 1,11,-1
 942 0 l 1,0,-1
EndSplineSet
Validated: 1
EndChar

StartChar: F
Encoding: 70 70 33
Width: 899
VWidth: 0
Flags: W
HStem: 0 43G<92 276> 799 102<475 920> 1331 102<573 1227>
AnchorPoint: "bottom" 328 0 basechar 0
AnchorPoint: "top" 854 1434 basechar 0
LayerCount: 2
Fore
SplineSet
92 0 m 1,0,-1
 424 1434 l 1,1,-1
 1251 1434 l 1,2,-1
 1227 1331 l 1,3,-1
 573 1331 l 1,4,-1
 475 901 l 1,5,-1
 944 901 l 1,6,-1
 920 799 l 1,7,-1
 451 799 l 1,8,-1
 266 0 l 1,9,-1
 92 0 l 1,0,-1
EndSplineSet
Validated: 1
EndChar

StartChar: G
Encoding: 71 71 34
Width: 1325
VWidth: 0
Flags: W
HStem: -20 102<585 956> 717 102<1059 1210> 1331 102<803 1211>
VStem: 201 176<307 781>
AnchorPoint: "cedilla" 717 0 basechar 0
AnchorPoint: "top" 1008 1434 basechar 0
LayerCount: 2
Fore
SplineSet
1395 819 m 1,0,-1
 1257 209 l 1,1,2
 1153 106 1153 106 1005 43 c 128,-1,3
 857 -20 857 -20 696 -20 c 0,4,5
 626 -20 626 -20 557 -0.5 c 128,-1,6
 488 19 488 19 423.5 61.5 c 128,-1,7
 359 104 359 104 310 164.5 c 128,-1,8
 261 225 261 225 231 314.5 c 128,-1,9
 201 404 201 404 201 510 c 0,10,11
 201 633 201 633 237.5 763 c 128,-1,12
 274 893 274 893 344.5 1012.5 c 128,-1,13
 415 1132 415 1132 509 1226.5 c 128,-1,14
 603 1321 603 1321 729.5 1377.5 c 128,-1,15
 856 1434 856 1434 993 1434 c 0,16,17
 1379 1434 1379 1434 1489 1245 c 1,18,-1
 1321 1178 l 1,19,20
 1249 1331 1249 1331 999 1331 c 0,21,22
 898 1331 898 1331 807.5 1292 c 128,-1,23
 717 1253 717 1253 650.5 1187 c 128,-1,24
 584 1121 584 1121 530.5 1038 c 128,-1,25
 477 955 477 955 444.5 863.5 c 128,-1,26
 412 772 412 772 394.5 685 c 128,-1,27
 377 598 377 598 377 522 c 0,28,29
 377 433 377 433 400 358 c 128,-1,30
 423 283 423 283 461 233 c 128,-1,31
 499 183 499 183 548 148 c 128,-1,32
 597 113 597 113 648 97.5 c 128,-1,33
 699 82 699 82 750 82 c 0,34,35
 946 82 946 82 1092 209 c 1,36,-1
 1210 717 l 1,37,-1
 1038 717 l 1,38,-1
 1059 819 l 1,39,-1
 1395 819 l 1,0,-1
EndSplineSet
Validated: 1
EndChar

StartChar: H
Encoding: 72 72 35
Width: 1259
VWidth: 0
Flags: W
HStem: 0 43G<82 265 915 1099> 717 102<444 1081> 1393 41G<404 588 1238 1421>
AnchorPoint: "bottom" 582 0 basechar 0
AnchorPoint: "top" 926 1434 basechar 0
LayerCount: 2
Fore
SplineSet
588 1434 m 1,0,-1
 444 819 l 1,1,-1
 1104 819 l 1,2,-1
 1247 1434 l 1,3,-1
 1421 1434 l 1,4,-1
 1090 0 l 1,5,-1
 915 0 l 1,6,-1
 1081 717 l 1,7,-1
 422 717 l 1,8,-1
 256 0 l 1,9,-1
 82 0 l 1,10,-1
 414 1434 l 1,11,-1
 588 1434 l 1,0,-1
EndSplineSet
Validated: 1
EndChar

StartChar: I
Encoding: 73 73 36
Width: 436
VWidth: 0
Flags: W
HStem: 0 43G<92 276> 1393 41G<414 598>
VStem: 92 506
AnchorPoint: "ogonek" 156 0 basechar 0
AnchorPoint: "top" 514 1434 basechar 0
LayerCount: 2
Fore
SplineSet
598 1434 m 25,0,-1
 266 0 l 1,1,-1
 92 0 l 1,2,-1
 424 1434 l 1,3,-1
 598 1434 l 25,0,-1
EndSplineSet
Validated: 1
EndChar

StartChar: J
Encoding: 74 74 37
Width: 948
VWidth: 0
Flags: W
HStem: -20 102<260 588> 1393 41G<943 1126>
AnchorPoint: "bottom" 389 0 basechar 0
AnchorPoint: "top" 1042 1434 basechar 0
LayerCount: 2
Fore
SplineSet
907 487 m 18,0,1
 882 379 882 379 859 306.5 c 128,-1,2
 836 234 836 234 803.5 174 c 128,-1,3
 771 114 771 114 734 79.5 c 128,-1,4
 697 45 697 45 641.5 21 c 128,-1,5
 586 -3 586 -3 520 -11.5 c 128,-1,6
 454 -20 454 -20 360 -20 c 0,7,8
 211 -20 211 -20 57 72 c 1,9,-1
 184 178 l 1,10,11
 300 82 300 82 414 82 c 0,12,13
 455 82 455 82 486.5 86 c 128,-1,14
 518 90 518 90 544.5 101 c 128,-1,15
 571 112 571 112 590 124.5 c 128,-1,16
 609 137 609 137 626 161.5 c 128,-1,17
 643 186 643 186 655 209 c 128,-1,18
 667 232 667 232 679.5 272 c 128,-1,19
 692 312 692 312 701 348.5 c 128,-1,20
 710 385 710 385 723 442 c 2,21,-1
 952 1434 l 1,22,-1
 1126 1434 l 1,23,-1
 907 487 l 18,0,1
EndSplineSet
Validated: 1
EndChar

StartChar: K
Encoding: 75 75 38
Width: 1239
VWidth: 0
Flags: W
HStem: 0 43G<92 276 936 1151> 1393 41G<414 598 1208 1458>
AnchorPoint: "bottom" 553 0 basechar 0
AnchorPoint: "cedilla" 573 0 basechar 0
AnchorPoint: "top" 733 1434 basechar 0
LayerCount: 2
Fore
SplineSet
375 469 m 1,0,-1
 266 0 l 1,1,-1
 92 0 l 1,2,-1
 424 1434 l 1,3,-1
 598 1434 l 1,4,-1
 428 696 l 1,5,-1
 1253 1434 l 1,6,-1
 1458 1434 l 1,7,-1
 721 776 l 1,8,-1
 1151 0 l 1,9,-1
 958 0 l 1,10,-1
 590 662 l 1,11,-1
 375 469 l 1,0,-1
EndSplineSet
Validated: 1
EndChar

StartChar: L
Encoding: 76 76 39
Width: 1052
VWidth: 0
Flags: W
HStem: 0 102<281 942> 1393 41G<404 588>
AnchorPoint: "cedilla" 504 0 basechar 0
AnchorPoint: "bottom" 512 0 basechar 0
AnchorPoint: "top" 680 1434 basechar 0
LayerCount: 2
Fore
SplineSet
281 102 m 1,0,-1
 967 102 l 1,1,-1
 942 0 l 1,2,-1
 82 0 l 1,3,-1
 414 1434 l 1,4,-1
 588 1434 l 1,5,-1
 281 102 l 1,0,-1
EndSplineSet
Validated: 1
EndChar

StartChar: M
Encoding: 77 77 40
Width: 1544
VWidth: 0
Flags: W
HStem: 0 43G<92 276 1200 1384> 1393 41G<414 608 1503 1706>
AnchorPoint: "bottom" 733 0 basechar 0
AnchorPoint: "top" 1065 1434 basechar 0
LayerCount: 2
Fore
SplineSet
512 1065 m 1,0,-1
 266 0 l 1,1,-1
 92 0 l 1,2,-1
 424 1434 l 1,3,-1
 598 1434 l 1,4,-1
 834 432 l 1,5,-1
 1532 1434 l 1,6,-1
 1706 1434 l 1,7,-1
 1374 0 l 1,8,-1
 1200 0 l 1,9,-1
 1446 1065 l 1,10,-1
 750 70 l 1,11,-1
 512 1065 l 1,0,-1
EndSplineSet
Validated: 1
EndChar

StartChar: N
Encoding: 78 78 41
Width: 1325
VWidth: 0
Flags: W
HStem: 0 43G<92 276 961 1165> 1393 41G<414 616 1303 1487>
AnchorPoint: "bottom" 612 0 basechar 0
AnchorPoint: "cedilla" 614 0 basechar 0
AnchorPoint: "top" 967 1434 basechar 0
LayerCount: 2
Fore
SplineSet
977 0 m 1,0,-1
 528 1137 l 1,1,-1
 266 0 l 1,2,-1
 92 0 l 1,3,-1
 424 1434 l 1,4,-1
 598 1434 l 1,5,-1
 600 1434 l 1,6,-1
 1049 295 l 1,7,-1
 1313 1434 l 1,8,-1
 1487 1434 l 1,9,-1
 1155 0 l 1,10,-1
 977 0 l 1,0,-1
EndSplineSet
Validated: 1
EndChar

StartChar: O
Encoding: 79 79 42
Width: 1370
VWidth: 0
Flags: W
HStem: -20 102<553 861> 1352 102<811 1133>
VStem: 199 176<286 770> 1315 176<653 1162>
AnchorPoint: "horn" 1425 1085 basechar 0
AnchorPoint: "bottom" 680 0 basechar 0
AnchorPoint: "ogonek" 684 0 basechar 0
AnchorPoint: "top" 997 1434 basechar 0
LayerCount: 2
Fore
SplineSet
659 -20 m 0,0,1
 571 -20 571 -20 490.5 11 c 128,-1,2
 410 42 410 42 343.5 102 c 128,-1,3
 277 162 277 162 238 262 c 128,-1,4
 199 362 199 362 199 489 c 0,5,6
 199 624 199 624 236.5 763 c 128,-1,7
 274 902 274 902 345.5 1025 c 128,-1,8
 417 1148 417 1148 511 1244.5 c 128,-1,9
 605 1341 605 1341 727.5 1397.5 c 128,-1,10
 850 1454 850 1454 981 1454 c 0,11,12
 1088 1454 1088 1454 1179 1423 c 128,-1,13
 1270 1392 1270 1392 1340.5 1332 c 128,-1,14
 1411 1272 1411 1272 1451 1173.5 c 128,-1,15
 1491 1075 1491 1075 1491 948 c 0,16,17
 1491 863 1491 863 1475 772 c 128,-1,18
 1459 681 1459 681 1425 586 c 128,-1,19
 1391 491 1391 491 1342.5 403.5 c 128,-1,20
 1294 316 1294 316 1224.5 238.5 c 128,-1,21
 1155 161 1155 161 1072.5 103.5 c 128,-1,22
 990 46 990 46 883.5 13 c 128,-1,23
 777 -20 777 -20 659 -20 c 0,0,1
969 1352 m 0,24,25
 860 1352 860 1352 750.5 1276.5 c 128,-1,26
 641 1201 641 1201 559.5 1082 c 128,-1,27
 478 963 478 963 426.5 809.5 c 128,-1,28
 375 656 375 656 375 508 c 0,29,30
 375 401 375 401 405.5 316 c 128,-1,31
 436 231 436 231 484.5 182 c 128,-1,32
 533 133 533 133 587 107.5 c 128,-1,33
 641 82 641 82 694 82 c 0,34,35
 806 82 806 82 918.5 153.5 c 128,-1,36
 1031 225 1031 225 1118 341 c 128,-1,37
 1205 457 1205 457 1260 615.5 c 128,-1,38
 1315 774 1315 774 1315 938 c 0,39,40
 1315 1043 1315 1043 1286 1124.5 c 128,-1,41
 1257 1206 1257 1206 1207.5 1254.5 c 128,-1,42
 1158 1303 1158 1303 1097.5 1327.5 c 128,-1,43
 1037 1352 1037 1352 969 1352 c 0,24,25
EndSplineSet
Validated: 1
EndChar

StartChar: Q
Encoding: 81 81 43
Width: 1370
VWidth: 0
Flags: W
HStem: -348 102<894 1034> -14 96<543 580 756 866> 1352 102<782 1146>
VStem: 199 174<265 777> 578 178<-121 -15> 1317 174<662 1166>
AnchorPoint: "top" 981 1434 basechar 0
LayerCount: 2
Fore
SplineSet
969 1352 m 0,0,1
 880 1352 880 1352 800.5 1318 c 128,-1,2
 721 1284 721 1284 662 1227 c 128,-1,3
 603 1170 603 1170 553.5 1095 c 128,-1,4
 504 1020 504 1020 471.5 939 c 128,-1,5
 439 858 439 858 416 774.5 c 128,-1,6
 393 691 393 691 383 618.5 c 128,-1,7
 373 546 373 546 373 487 c 0,8,9
 373 384 373 384 400 304 c 128,-1,10
 427 224 427 224 473 177 c 128,-1,11
 519 130 519 130 575 106 c 128,-1,12
 631 82 631 82 694 82 c 0,13,14
 794 82 794 82 890.5 131.5 c 128,-1,15
 987 181 987 181 1062.5 267.5 c 128,-1,16
 1138 354 1138 354 1196 463.5 c 128,-1,17
 1254 573 1254 573 1285.5 699.5 c 128,-1,18
 1317 826 1317 826 1317 950 c 0,19,20
 1317 1151 1317 1151 1219.5 1251.5 c 128,-1,21
 1122 1352 1122 1352 969 1352 c 0,0,1
580 -14 m 1,22,23
 503 -1 503 -1 436 35.5 c 128,-1,24
 369 72 369 72 315 132.5 c 128,-1,25
 261 193 261 193 230 284.5 c 128,-1,26
 199 376 199 376 199 489 c 0,27,28
 199 621 199 621 236 758 c 128,-1,29
 273 895 273 895 344 1019 c 128,-1,30
 415 1143 415 1143 508.5 1240.5 c 128,-1,31
 602 1338 602 1338 725.5 1396 c 128,-1,32
 849 1454 849 1454 981 1454 c 0,33,34
 1088 1454 1088 1454 1179 1423.5 c 128,-1,35
 1270 1393 1270 1393 1340.5 1333 c 128,-1,36
 1411 1273 1411 1273 1451 1174 c 128,-1,37
 1491 1075 1491 1075 1491 948 c 0,38,39
 1491 852 1491 852 1470.5 749.5 c 128,-1,40
 1450 647 1450 647 1410.5 544 c 128,-1,41
 1371 441 1371 441 1308 347.5 c 128,-1,42
 1245 254 1245 254 1166 178.5 c 128,-1,43
 1087 103 1087 103 981 52 c 128,-1,44
 875 1 875 1 756 -14 c 1,45,46
 758 -79 758 -79 806.5 -134 c 128,-1,47
 855 -189 855 -189 923 -217.5 c 128,-1,48
 991 -246 991 -246 1057 -246 c 1,49,-1
 1034 -348 l 1,50,51
 975 -348 975 -348 915 -338.5 c 128,-1,52
 855 -329 855 -329 793.5 -306 c 128,-1,53
 732 -283 732 -283 685 -249 c 128,-1,54
 638 -215 638 -215 608 -161.5 c 128,-1,55
 578 -108 578 -108 578 -43 c 0,56,57
 578 -24 578 -24 580 -14 c 1,22,23
EndSplineSet
Validated: 1
EndChar

StartChar: R
Encoding: 82 82 44
Width: 1101
VWidth: 0
Flags: W
HStem: 0 43G<92 276 819 991> 655 102<440 679> 1331 102<573 969>
VStem: 829 170<0 381> 1032 174<954 1271>
AnchorPoint: "bottom" 512 0 basechar 0
AnchorPoint: "cedilla" 508 0 basechar 0
AnchorPoint: "top" 811 1434 basechar 0
LayerCount: 2
Fore
SplineSet
424 1434 m 1,0,-1
 844 1434 l 2,1,2
 923 1434 923 1434 986.5 1416 c 128,-1,3
 1050 1398 1050 1398 1090 1368.5 c 128,-1,4
 1130 1339 1130 1339 1157 1299 c 128,-1,5
 1184 1259 1184 1259 1195 1216.5 c 128,-1,6
 1206 1174 1206 1174 1206 1128 c 0,7,8
 1206 1064 1206 1064 1181.5 996.5 c 128,-1,9
 1157 929 1157 929 1112 867.5 c 128,-1,10
 1067 806 1067 806 995 755.5 c 128,-1,11
 923 705 923 705 836 680 c 1,12,13
 900 597 900 597 949.5 429.5 c 128,-1,14
 999 262 999 262 999 117 c 0,15,16
 999 53 999 53 987 0 c 1,17,-1
 819 0 l 1,18,19
 829 41 829 41 829 106 c 0,20,21
 829 253 829 253 773 418.5 c 128,-1,22
 717 584 717 584 641 655 c 1,23,-1
 418 655 l 1,24,-1
 266 0 l 1,25,-1
 92 0 l 1,26,-1
 424 1434 l 1,0,-1
573 1331 m 1,27,-1
 440 758 l 1,28,-1
 717 758 l 2,29,30
 807 758 807 758 881 816 c 128,-1,31
 955 874 955 874 993.5 958 c 128,-1,32
 1032 1042 1032 1042 1032 1128 c 0,33,34
 1032 1215 1032 1215 988.5 1273 c 128,-1,35
 945 1331 945 1331 850 1331 c 2,36,-1
 573 1331 l 1,27,-1
EndSplineSet
Validated: 1
EndChar

StartChar: S
Encoding: 83 83 45
Width: 1198
VWidth: 0
Flags: W
HStem: -20 102<495 829> 1352 102<765 1066>
VStem: 207 166<209 350> 430 180<951 1185> 1024 176<277 545>
AnchorPoint: "bottom" 602 0 basechar 0
AnchorPoint: "cedilla" 598 0 basechar 0
AnchorPoint: "top" 926 1434 basechar 0
LayerCount: 2
Fore
SplineSet
1200 455 m 0,0,1
 1200 363 1200 363 1157 277.5 c 128,-1,2
 1114 192 1114 192 1036.5 126 c 128,-1,3
 959 60 959 60 841.5 20 c 128,-1,4
 724 -20 724 -20 586 -20 c 0,5,6
 437 -20 437 -20 323.5 91 c 128,-1,7
 210 202 210 202 207 350 c 1,8,-1
 375 381 l 1,9,10
 375 377 375 377 374 367.5 c 128,-1,11
 373 358 373 358 373 354 c 0,12,13
 373 245 373 245 451 163.5 c 128,-1,14
 529 82 529 82 623 82 c 0,15,16
 714 82 714 82 786.5 107.5 c 128,-1,17
 859 133 859 133 902.5 171.5 c 128,-1,18
 946 210 946 210 974.5 258.5 c 128,-1,19
 1003 307 1003 307 1013.5 348.5 c 128,-1,20
 1024 390 1024 390 1024 426 c 0,21,22
 1024 486 1024 486 991 534.5 c 128,-1,23
 958 583 958 583 906 616 c 128,-1,24
 854 649 854 649 790.5 678.5 c 128,-1,25
 727 708 727 708 663.5 739.5 c 128,-1,26
 600 771 600 771 548 807 c 128,-1,27
 496 843 496 843 463 898 c 128,-1,28
 430 953 430 953 430 1022 c 0,29,30
 430 1112 430 1112 478 1194.5 c 128,-1,31
 526 1277 526 1277 600.5 1332.5 c 128,-1,32
 675 1388 675 1388 764.5 1421 c 128,-1,33
 854 1454 854 1454 938 1454 c 0,34,35
 1078 1454 1078 1454 1178.5 1390.5 c 128,-1,36
 1279 1327 1279 1327 1319 1225 c 1,37,-1
 1157 1182 l 1,38,39
 1104 1352 1104 1352 897 1352 c 0,40,41
 796 1352 796 1352 703 1259 c 128,-1,42
 610 1166 610 1166 610 1057 c 0,43,44
 610 1010 610 1010 635.5 970.5 c 128,-1,45
 661 931 661 931 702.5 903.5 c 128,-1,46
 744 876 744 876 797 847 c 128,-1,47
 850 818 850 818 905 793.5 c 128,-1,48
 960 769 960 769 1013 735.5 c 128,-1,49
 1066 702 1066 702 1107.5 665 c 128,-1,50
 1149 628 1149 628 1174.5 574 c 128,-1,51
 1200 520 1200 520 1200 455 c 0,0,1
EndSplineSet
Validated: 1
EndChar

StartChar: T
Encoding: 84 84 46
Width: 1198
VWidth: 0
Flags: W
HStem: 0 43G<532 716> 1331 102<352 840 1014 1526>
AnchorPoint: "cedilla" 618 0 basechar 0
AnchorPoint: "bottom" 623 0 basechar 0
AnchorPoint: "top" 954 1434 basechar 0
LayerCount: 2
Fore
SplineSet
352 1434 m 1,0,-1
 1554 1434 l 1,1,-1
 1526 1331 l 1,2,-1
 1014 1331 l 1,3,-1
 707 0 l 1,4,-1
 532 0 l 1,5,-1
 840 1331 l 1,6,-1
 328 1331 l 1,7,-1
 352 1434 l 1,0,-1
EndSplineSet
Validated: 1
EndChar

StartChar: U
Encoding: 85 85 47
Width: 1306
VWidth: 0
Flags: W
HStem: -20 102<471 807> 1393 41G<384 567 1301 1485>
VStem: 176 174<211 687> 393 174<1372 1434>
AnchorPoint: "horn" 1403 1085 basechar 0
AnchorPoint: "bottom" 627 0 basechar 0
AnchorPoint: "ogonek" 623 0 basechar 0
AnchorPoint: "top" 958 1434 basechar 0
LayerCount: 2
Fore
SplineSet
1311 1434 m 1,0,-1
 1485 1434 l 1,1,-1
 1294 610 l 2,2,3
 1259 461 1259 461 1203.5 348.5 c 128,-1,4
 1148 236 1148 236 1083 167 c 128,-1,5
 1018 98 1018 98 935.5 55 c 128,-1,6
 853 12 853 12 772.5 -4 c 128,-1,7
 692 -20 692 -20 598 -20 c 0,8,9
 538 -20 538 -20 483 -9 c 128,-1,10
 428 2 428 2 370.5 31 c 128,-1,11
 313 60 313 60 271 105.5 c 128,-1,12
 229 151 229 151 202.5 226 c 128,-1,13
 176 301 176 301 176 397 c 0,14,15
 176 490 176 490 203 610 c 2,16,-1
 393 1434 l 1,17,-1
 567 1434 l 1,18,-1
 377 610 l 1,19,20
 350 487 350 487 350 401 c 0,21,22
 350 325 350 325 369 266 c 128,-1,23
 388 207 388 207 416.5 173 c 128,-1,24
 445 139 445 139 484 118 c 128,-1,25
 523 97 523 97 559 89.5 c 128,-1,26
 595 82 595 82 633 82 c 0,27,28
 684 82 684 82 734 95 c 128,-1,29
 784 108 784 108 842.5 144.5 c 128,-1,30
 901 181 901 181 950.5 238 c 128,-1,31
 1000 295 1000 295 1045.5 390.5 c 128,-1,32
 1091 486 1091 486 1120 610 c 2,33,-1
 1311 1434 l 1,0,-1
EndSplineSet
Validated: 1
EndChar

StartChar: V
Encoding: 86 86 48
Width: 1101
VWidth: 0
Flags: W
HStem: 0 43G<461 668> 1393 41G<332 508 1247 1442>
AnchorPoint: "bottom" 553 0 basechar 0
AnchorPoint: "top" 881 1434 basechar 0
LayerCount: 2
Fore
SplineSet
465 0 m 1,0,-1
 332 1434 l 1,1,-1
 504 1434 l 1,2,-1
 612 252 l 1,3,-1
 1270 1434 l 1,4,-1
 1442 1434 l 1,5,-1
 645 0 l 1,6,-1
 465 0 l 1,0,-1
EndSplineSet
Validated: 1
EndChar

StartChar: X
Encoding: 88 88 49
Width: 1075
VWidth: 0
Flags: W
HStem: 0 43G<41 254 802 997> 1393 41G<414 609 1072 1286>
AnchorPoint: "bottom" 512 0 basechar 0
AnchorPoint: "top" 844 1434 basechar 0
LayerCount: 2
Fore
SplineSet
786 760 m 1,0,-1
 997 0 l 1,1,-1
 813 0 l 1,2,-1
 651 578 l 1,3,-1
 223 0 l 1,4,-1
 41 0 l 1,5,-1
 602 758 l 1,6,-1
 414 1434 l 1,7,-1
 598 1434 l 1,8,-1
 735 938 l 1,9,-1
 1102 1434 l 1,10,-1
 1286 1434 l 1,11,-1
 786 760 l 1,0,-1
EndSplineSet
Validated: 1
EndChar

StartChar: W
Encoding: 87 87 50
Width: 1701
VWidth: 0
Flags: W
HStem: 0 43G<461 668 1061 1268> 860 41G<952 1157> 1393 41G<332 508 1847 2042>
AnchorPoint: "bottom" 864 0 basechar 0
AnchorPoint: "top" 1171 1434 basechar 0
LayerCount: 2
Fore
SplineSet
465 0 m 1,0,-1
 332 1434 l 1,1,-1
 504 1434 l 1,2,-1
 612 252 l 1,3,-1
 975 901 l 1,4,-1
 1153 901 l 1,5,-1
 1212 252 l 1,6,-1
 1870 1434 l 1,7,-1
 2042 1434 l 1,8,-1
 1245 0 l 1,9,-1
 1065 0 l 1,10,-1
 1004 645 l 1,11,-1
 645 0 l 1,12,-1
 465 0 l 1,0,-1
EndSplineSet
Validated: 1
EndChar

StartChar: Y
Encoding: 89 89 51
Width: 1075
VWidth: 0
Flags: W
HStem: 0 43G<451 634> 1393 41G<414 609 1112 1327>
AnchorPoint: "bottom" 537 0 basechar 0
AnchorPoint: "ogonek" 569 0 basechar 0
AnchorPoint: "top" 868 1434 basechar 0
LayerCount: 2
Fore
SplineSet
745 899 m 1,0,-1
 1143 1434 l 1,1,-1
 1327 1434 l 1,2,-1
 788 709 l 1,3,-1
 625 0 l 1,4,-1
 451 0 l 1,5,-1
 614 711 l 1,6,-1
 414 1434 l 1,7,-1
 598 1434 l 1,8,-1
 745 899 l 1,0,-1
EndSplineSet
Validated: 1
EndChar

StartChar: Z
Encoding: 90 90 52
Width: 1075
VWidth: 0
Flags: W
HStem: 0 102<299 963> 1331 102<414 1026>
AnchorPoint: "bottom" 528 0 basechar 0
AnchorPoint: "top" 823 1434 basechar 0
LayerCount: 2
Fore
SplineSet
1026 1331 m 1,0,-1
 358 1331 l 1,1,-1
 414 1434 l 1,2,-1
 1286 1434 l 1,3,-1
 299 102 l 1,4,-1
 987 102 l 1,5,-1
 963 0 l 1,6,-1
 41 0 l 1,7,-1
 1026 1331 l 1,0,-1
EndSplineSet
Validated: 1
EndChar

StartChar: exclam
Encoding: 33 33 53
Width: 356
VWidth: 0
Flags: W
HStem: 0 164<129 256> 1393 41G<416 588>
VStem: 209 102<369 424>
LayerCount: 2
Fore
SplineSet
129 164 m 1,0,-1
 293 164 l 1,1,-1
 256 0 l 1,2,-1
 92 0 l 1,3,-1
 129 164 l 1,0,-1
588 1434 m 29,4,-1
 311 369 l 1,5,-1
 209 369 l 1,6,-1
 424 1434 l 1,7,-1
 588 1434 l 29,4,-1
EndSplineSet
Validated: 1
EndChar

StartChar: period
Encoding: 46 46 54
Width: 356
VWidth: 0
Flags: W
HStem: 0 164<129 256>
VStem: 92 201
LayerCount: 2
Fore
SplineSet
129 164 m 1,0,-1
 293 164 l 1,1,-1
 256 0 l 1,2,-1
 92 0 l 1,3,-1
 129 164 l 1,0,-1
EndSplineSet
Validated: 1
EndChar

StartChar: comma
Encoding: 44 44 55
Width: 356
VWidth: 0
Flags: W
HStem: -203 367
VStem: 135 147<91 164>
LayerCount: 2
Fore
SplineSet
45 -203 m 1,0,1
 133 -109 133 -109 133 -12 c 0,2,3
 133 2 133 2 130 36 c 128,-1,4
 127 70 127 70 127 90 c 0,5,6
 127 128 127 128 135 164 c 1,7,-1
 283 164 l 1,8,9
 268 100 268 100 251.5 47 c 128,-1,10
 235 -6 235 -6 224.5 -36 c 128,-1,11
 214 -66 214 -66 194.5 -99.5 c 128,-1,12
 175 -133 175 -133 169.5 -141.5 c 128,-1,13
 164 -150 164 -150 142.5 -176 c 128,-1,14
 121 -202 121 -202 121 -203 c 1,15,-1
 45 -203 l 1,0,1
EndSplineSet
Validated: 1
EndChar

StartChar: quotesingle
Encoding: 39 39 56
Width: 335
VWidth: 0
Flags: W
HStem: 1024 410<424 440>
VStem: 358 209
LayerCount: 2
Fore
SplineSet
567 1434 m 25,0,-1
 440 1024 l 1,1,-1
 358 1024 l 1,2,-1
 424 1434 l 1,3,-1
 567 1434 l 25,0,-1
EndSplineSet
Validated: 1
EndChar

StartChar: dollar
Encoding: 36 36 58
Width: 860
VWidth: 0
Flags: W
HStem: 0 43G<303 386 459 542> 150 102<436 494> 662 129<559 605> 1112 102<657 715>
VStem: 274 166<832 1030> 735 166<367 595>
LayerCount: 2
Fore
SplineSet
981 1087 m 1,0,-1
 846 1016 l 1,1,2
 802 1059 802 1059 780 1077 c 1,3,-1
 707 752 l 1,4,5
 806 715 806 715 853.5 654.5 c 128,-1,6
 901 594 901 594 901 520 c 0,7,8
 901 409 901 409 811.5 304 c 128,-1,9
 722 199 722 199 569 164 c 1,10,-1
 532 0 l 1,11,-1
 459 0 l 1,12,-1
 494 152 l 1,13,14
 478 150 478 150 442 150 c 2,15,-1
 412 150 l 1,16,-1
 377 0 l 1,17,-1
 303 0 l 1,18,-1
 340 160 l 1,19,20
 281 172 281 172 238 200 c 128,-1,21
 195 228 195 228 127 287 c 1,22,-1
 233 362 l 1,23,24
 239 357 239 357 256.5 342 c 128,-1,25
 274 327 274 327 279.5 322.5 c 128,-1,26
 285 318 285 318 299 307 c 128,-1,27
 313 296 313 296 321 291.5 c 128,-1,28
 329 287 329 287 341 280.5 c 128,-1,29
 353 274 353 274 365 270 c 1,30,-1
 461 682 l 1,31,32
 372 715 372 715 323 770.5 c 128,-1,33
 274 826 274 826 274 899 c 0,34,35
 274 945 274 945 293 994 c 128,-1,36
 312 1043 312 1043 348 1088 c 128,-1,37
 384 1133 384 1133 445 1166.5 c 128,-1,38
 506 1200 506 1200 582 1210 c 1,39,-1
 614 1352 l 1,40,-1
 688 1352 l 1,41,-1
 657 1214 l 1,42,43
 700 1214 700 1214 737 1208 c 1,44,-1
 770 1352 l 1,45,-1
 844 1352 l 1,46,-1
 807 1192 l 1,47,48
 888 1166 888 1166 981 1087 c 1,0,-1
494 825 m 1,49,-1
 553 1085 l 1,50,51
 502 1057 502 1057 471 1013.5 c 128,-1,52
 440 970 440 970 440 924 c 0,53,54
 440 864 440 864 494 825 c 1,49,-1
530 662 m 1,55,-1
 436 254 l 1,56,57
 454 252 454 252 496 252 c 2,58,-1
 516 252 l 1,59,-1
 606 643 l 1,60,61
 588 649 588 649 563.5 654.5 c 128,-1,62
 539 660 539 660 530 662 c 1,55,-1
559 791 m 1,63,64
 577 785 577 785 602 780 c 128,-1,65
 627 775 627 775 637 772 c 1,66,-1
 715 1108 l 1,67,68
 699 1112 699 1112 653 1112 c 0,69,70
 650 1112 650 1112 643 1111 c 128,-1,71
 636 1110 636 1110 633 1110 c 1,72,-1
 559 791 l 1,63,64
674 610 m 1,73,-1
 596 272 l 1,74,75
 649 298 649 298 692 362.5 c 128,-1,76
 735 427 735 427 735 492 c 0,77,78
 735 566 735 566 674 610 c 1,73,-1
EndSplineSet
Validated: 1
EndChar

StartChar: bar
Encoding: 124 124 59
Width: 305
VWidth: 0
Flags: W
HStem: 0 43G<92 214> 1393 41G<414 537>
VStem: 92 444
LayerCount: 2
Fore
SplineSet
537 1434 m 25,0,-1
 205 0 l 1,1,-1
 92 0 l 1,2,-1
 424 1434 l 1,3,-1
 537 1434 l 25,0,-1
EndSplineSet
Validated: 1
EndChar

StartChar: slash
Encoding: 47 47 60
Width: 831
VWidth: 0
Flags: W
HStem: 0 43G<61 208> 1393 41G<947 1094>
LayerCount: 2
Fore
SplineSet
1094 1434 m 1,0,-1
 182 0 l 1,1,-1
 61 0 l 1,2,-1
 973 1434 l 1,3,-1
 1094 1434 l 1,0,-1
EndSplineSet
Validated: 1
EndChar

StartChar: backslash
Encoding: 92 92 61
Width: 831
VWidth: 0
Flags: W
HStem: 0 43G<634 762> 1393 41G<393 521>
VStem: 393 369
LayerCount: 2
Fore
SplineSet
393 1434 m 1,0,-1
 514 1434 l 1,1,-1
 762 0 l 1,2,-1
 641 0 l 1,3,-1
 393 1434 l 1,0,-1
EndSplineSet
Validated: 1
EndChar

StartChar: question
Encoding: 63 63 62
Width: 882
VWidth: 0
Flags: W
HStem: 0 164<334 461> 369 215<432 516> 1270 102<511 801>
VStem: 883 164<817 1189>
LayerCount: 2
Fore
SplineSet
334 164 m 1,0,-1
 498 164 l 1,1,-1
 461 0 l 1,2,-1
 297 0 l 1,3,-1
 334 164 l 1,0,-1
559 483 m 1,4,-1
 516 369 l 1,5,-1
 414 369 l 1,6,-1
 432 584 l 1,7,-1
 504 584 l 2,8,9
 577 584 577 584 639.5 609.5 c 128,-1,10
 702 635 702 635 746 678 c 128,-1,11
 790 721 790 721 821.5 778.5 c 128,-1,12
 853 836 853 836 868 900.5 c 128,-1,13
 883 965 883 965 883 1032 c 0,14,15
 883 1144 883 1144 824 1207 c 128,-1,16
 765 1270 765 1270 651 1270 c 0,17,18
 579 1270 579 1270 531.5 1241 c 128,-1,19
 484 1212 484 1212 428 1147 c 1,20,-1
 317 1194 l 1,21,22
 405 1280 405 1280 497 1326 c 128,-1,23
 589 1372 589 1372 707 1372 c 0,24,25
 870 1372 870 1372 958.5 1285 c 128,-1,26
 1047 1198 1047 1198 1047 1044 c 0,27,28
 1047 928 1047 928 1007 826.5 c 128,-1,29
 967 725 967 725 899.5 653.5 c 128,-1,30
 832 582 832 582 744 537 c 128,-1,31
 656 492 656 492 559 483 c 1,4,-1
EndSplineSet
Validated: 1
EndChar

StartChar: percent
Encoding: 37 37 65
Width: 1089
VWidth: 0
Flags: W
HStem: 156 109<773 944> 473 109<800 969> 729 109<414 584> 1047 109<441 611>
VStem: 293 113<846 1011> 621 111<877 1038> 653 111<273 437> 979 111<300 464>
LayerCount: 2
Fore
SplineSet
895 473 m 0,0,1
 849 473 849 473 806.5 436 c 128,-1,2
 764 399 764 399 764 346 c 0,3,4
 764 311 764 311 787.5 287.5 c 128,-1,5
 811 264 811 264 848 264 c 0,6,7
 894 264 894 264 936.5 301 c 128,-1,8
 979 338 979 338 979 391 c 0,9,10
 979 426 979 426 955.5 449.5 c 128,-1,11
 932 473 932 473 895 473 c 0,0,1
653 319 m 0,12,13
 653 423 653 423 737 502.5 c 128,-1,14
 821 582 821 582 922 582 c 0,15,16
 998 582 998 582 1044 536 c 128,-1,17
 1090 490 1090 490 1090 418 c 0,18,19
 1090 314 1090 314 1006.5 235 c 128,-1,20
 923 156 923 156 823 156 c 0,21,22
 747 156 747 156 700 202 c 128,-1,23
 653 248 653 248 653 319 c 0,12,13
537 1047 m 0,24,25
 491 1047 491 1047 448.5 1010 c 128,-1,26
 406 973 406 973 406 920 c 0,27,28
 406 884 406 884 428.5 861 c 128,-1,29
 451 838 451 838 487 838 c 0,30,31
 533 838 533 838 577 875.5 c 128,-1,32
 621 913 621 913 621 965 c 0,33,34
 621 1000 621 1000 597.5 1023.5 c 128,-1,35
 574 1047 574 1047 537 1047 c 0,24,25
293 893 m 0,36,37
 293 997 293 997 376.5 1076 c 128,-1,38
 460 1155 460 1155 561 1155 c 0,39,40
 637 1155 637 1155 684 1108.5 c 128,-1,41
 731 1062 731 1062 731 991 c 0,42,43
 731 887 731 887 647.5 808 c 128,-1,44
 564 729 564 729 463 729 c 0,45,46
 387 729 387 729 340 775.5 c 128,-1,47
 293 822 293 822 293 893 c 0,36,37
143 264 m 1,48,-1
 1083 1047 l 1,49,-1
 1241 1047 l 1,50,-1
 301 264 l 1,51,-1
 143 264 l 1,48,-1
EndSplineSet
Validated: 1
EndChar

StartChar: numbersign
Encoding: 35 35 66
Width: 991
VWidth: 0
Flags: W
HStem: 410 102<221 322 508 623 809 932> 840 102<371 498 684 797 983 1083>
LayerCount: 2
Fore
SplineSet
467 410 m 1,0,-1
 350 123 l 1,1,-1
 205 123 l 1,2,-1
 322 410 l 1,3,-1
 197 410 l 1,4,-1
 221 512 l 1,5,-1
 362 512 l 1,6,-1
 498 840 l 1,7,-1
 348 840 l 1,8,-1
 371 942 l 1,9,-1
 539 942 l 1,10,-1
 655 1229 l 1,11,-1
 801 1229 l 1,12,-1
 684 942 l 1,13,-1
 838 942 l 1,14,-1
 954 1229 l 1,15,-1
 1100 1229 l 1,16,-1
 983 942 l 1,17,-1
 1106 942 l 1,18,-1
 1083 840 l 1,19,-1
 942 840 l 1,20,-1
 809 512 l 1,21,-1
 956 512 l 1,22,-1
 932 410 l 1,23,-1
 768 410 l 1,24,-1
 651 123 l 1,25,-1
 506 123 l 1,26,-1
 623 410 l 1,27,-1
 467 410 l 1,0,-1
508 512 m 1,28,-1
 664 512 l 1,29,-1
 797 840 l 1,30,-1
 643 840 l 1,31,-1
 508 512 l 1,28,-1
EndSplineSet
Validated: 1
EndChar

StartChar: zero
Encoding: 48 48 67
Width: 942
VWidth: 0
Flags: W
HStem: -20 102<383 616> 1004 102<593 812>
VStem: 135 164<173 610> 891 166<462 912>
LayerCount: 2
Fore
SplineSet
502 82 m 0,0,1
 587 82 587 82 678 173 c 128,-1,2
 769 264 769 264 830 410 c 128,-1,3
 891 556 891 556 891 700 c 0,4,5
 891 829 891 829 845 916.5 c 128,-1,6
 799 1004 799 1004 715 1004 c 0,7,8
 666 1004 666 1004 608.5 971.5 c 128,-1,9
 551 939 551 939 496.5 878.5 c 128,-1,10
 442 818 442 818 397.5 741 c 128,-1,11
 353 664 353 664 326 566 c 128,-1,12
 299 468 299 468 299 369 c 0,13,14
 299 242 299 242 349.5 162 c 128,-1,15
 400 82 400 82 502 82 c 0,0,1
1057 707 m 0,16,17
 1057 577 1057 577 1008 445.5 c 128,-1,18
 959 314 959 314 878 211.5 c 128,-1,19
 797 109 797 109 683.5 44.5 c 128,-1,20
 570 -20 570 -20 449 -20 c 0,21,22
 347 -20 347 -20 274.5 33 c 128,-1,23
 202 86 202 86 168.5 172.5 c 128,-1,24
 135 259 135 259 135 369 c 0,25,26
 135 489 135 489 174 605 c 128,-1,27
 213 721 213 721 276.5 809 c 128,-1,28
 340 897 340 897 415.5 965.5 c 128,-1,29
 491 1034 491 1034 568.5 1070 c 128,-1,30
 646 1106 646 1106 709 1106 c 0,31,32
 869 1106 869 1106 963 995.5 c 128,-1,33
 1057 885 1057 885 1057 707 c 0,16,17
EndSplineSet
Validated: 1
EndChar

StartChar: one
Encoding: 49 49 68
Width: 942
VWidth: 0
Flags: W
HStem: 0 43G<440 614> 961 102<582 666>
VStem: 440 418
LayerCount: 2
Fore
SplineSet
858 1096 m 1,0,-1
 604 0 l 1,1,-1
 440 0 l 1,2,-1
 666 973 l 1,3,-1
 557 961 l 1,4,-1
 582 1063 l 1,5,-1
 858 1096 l 1,0,-1
EndSplineSet
Validated: 1
EndChar

StartChar: two
Encoding: 50 50 69
Width: 942
VWidth: 0
Flags: W
HStem: 0 102<311 819> 983 102<546 799>
VStem: 834 164<682 951>
LayerCount: 2
Fore
SplineSet
997 842 m 0,0,1
 997 760 997 760 963 691.5 c 128,-1,2
 929 623 929 623 873.5 574 c 128,-1,3
 818 525 818 525 750.5 481.5 c 128,-1,4
 683 438 683 438 612 398 c 128,-1,5
 541 358 541 358 479.5 316.5 c 128,-1,6
 418 275 418 275 372 220 c 128,-1,7
 326 165 326 165 311 102 c 1,8,-1
 844 102 l 1,9,-1
 819 0 l 1,10,-1
 123 0 l 1,11,12
 146 100 146 100 198 181.5 c 128,-1,13
 250 263 250 263 314.5 317 c 128,-1,14
 379 371 379 371 451 417.5 c 128,-1,15
 523 464 523 464 590.5 505 c 128,-1,16
 658 546 658 546 713 590.5 c 128,-1,17
 768 635 768 635 801 697 c 128,-1,18
 834 759 834 759 834 836 c 0,19,20
 834 911 834 911 794.5 947 c 128,-1,21
 755 983 755 983 696 983 c 0,22,23
 537 983 537 983 442 827 c 1,24,-1
 326 877 l 1,25,26
 474 1085 474 1085 750 1085 c 0,27,28
 862 1085 862 1085 929.5 1017.5 c 128,-1,29
 997 950 997 950 997 842 c 0,0,1
EndSplineSet
Validated: 1
EndChar

StartChar: three
Encoding: 51 51 70
Width: 942
VWidth: 0
Flags: W
HStem: -258 102<290 540> 422 102<500 637> 983 102<548 789>
VStem: 90 139<-92 -40> 717 166<39 350> 823 164<669 951>
LayerCount: 2
Fore
SplineSet
422 -156 m 0,0,1
 450 -156 450 -156 487 -141 c 128,-1,2
 524 -126 524 -126 564.5 -95 c 128,-1,3
 605 -64 605 -64 639 -21.5 c 128,-1,4
 673 21 673 21 695 82 c 128,-1,5
 717 143 717 143 717 211 c 0,6,7
 717 307 717 307 660 364.5 c 128,-1,8
 603 422 603 422 477 422 c 1,9,-1
 500 524 l 1,10,11
 582 524 582 524 644 549.5 c 128,-1,12
 706 575 706 575 739 610.5 c 128,-1,13
 772 646 772 646 792 692.5 c 128,-1,14
 812 739 812 739 817.5 772.5 c 128,-1,15
 823 806 823 806 823 836 c 0,16,17
 823 911 823 911 784 947 c 128,-1,18
 745 983 745 983 686 983 c 0,19,20
 608 983 608 983 555 945 c 128,-1,21
 502 907 502 907 453 827 c 1,22,-1
 336 877 l 1,23,24
 406 975 406 975 500 1030 c 128,-1,25
 594 1085 594 1085 739 1085 c 0,26,27
 851 1085 851 1085 919 1017.5 c 128,-1,28
 987 950 987 950 987 842 c 0,29,30
 987 776 987 776 966 711 c 128,-1,31
 945 646 945 646 889 580 c 128,-1,32
 833 514 833 514 748 475 c 1,33,34
 883 402 883 402 883 233 c 0,35,36
 883 126 883 126 837.5 30.5 c 128,-1,37
 792 -65 792 -65 723 -126 c 128,-1,38
 654 -187 654 -187 576 -222.5 c 128,-1,39
 498 -258 498 -258 430 -258 c 0,40,41
 283 -258 283 -258 198.5 -198.5 c 128,-1,42
 114 -139 114 -139 90 -45 c 1,43,-1
 229 4 l 1,44,45
 241 -72 241 -72 291 -114 c 128,-1,46
 341 -156 341 -156 422 -156 c 0,0,1
EndSplineSet
Validated: 1
EndChar

StartChar: four
Encoding: 52 52 71
Width: 942
VWidth: 0
Flags: W
HStem: 0 102<250 571 760 846>
LayerCount: 2
Fore
SplineSet
113 68 m 1,0,-1
 821 1085 l 1,1,-1
 985 1085 l 1,2,-1
 760 102 l 1,3,-1
 870 102 l 1,4,-1
 846 0 l 1,5,-1
 735 0 l 1,6,-1
 680 -238 l 1,7,-1
 516 -238 l 1,8,-1
 571 0 l 1,9,-1
 96 0 l 1,10,-1
 113 68 l 1,0,-1
596 102 m 1,11,-1
 766 844 l 1,12,-1
 250 102 l 1,13,-1
 596 102 l 1,11,-1
EndSplineSet
Validated: 1
EndChar

StartChar: five
Encoding: 53 53 72
Width: 942
VWidth: 0
Flags: W
HStem: -258 102<290 540> 983 102<649 961>
VStem: 90 139<-92 -40> 731 170<92 435>
LayerCount: 2
Fore
SplineSet
422 -156 m 0,0,1
 491 -156 491 -156 562.5 -96 c 128,-1,2
 634 -36 634 -36 682.5 68 c 128,-1,3
 731 172 731 172 731 285 c 0,4,5
 731 348 731 348 710 395.5 c 128,-1,6
 689 443 689 443 641.5 479.5 c 128,-1,7
 594 516 594 516 511 535.5 c 128,-1,8
 428 555 428 555 311 555 c 1,9,-1
 524 1085 l 1,10,-1
 983 1085 l 1,11,-1
 961 983 l 1,12,-1
 649 983 l 1,13,-1
 514 647 l 1,14,15
 722 623 722 623 811.5 541.5 c 128,-1,16
 901 460 901 460 901 322 c 0,17,18
 901 207 901 207 859.5 98.5 c 128,-1,19
 818 -10 818 -10 751.5 -87.5 c 128,-1,20
 685 -165 685 -165 600 -211.5 c 128,-1,21
 515 -258 515 -258 430 -258 c 0,22,23
 283 -258 283 -258 198.5 -198.5 c 128,-1,24
 114 -139 114 -139 90 -45 c 1,25,-1
 229 4 l 1,26,27
 241 -72 241 -72 291 -114 c 128,-1,28
 341 -156 341 -156 422 -156 c 0,0,1
EndSplineSet
Validated: 1
EndChar

StartChar: six
Encoding: 54 54 73
Width: 942
VWidth: 0
Flags: W
HStem: -20 102<388 604> 586 102<459 711>
VStem: 190 162<116 516> 760 166<254 539>
LayerCount: 2
Fore
SplineSet
481 82 m 0,0,1
 548 82 548 82 614 133 c 128,-1,2
 680 184 680 184 720 260.5 c 128,-1,3
 760 337 760 337 760 410 c 128,-1,4
 760 483 760 483 720 534.5 c 128,-1,5
 680 586 680 586 616 586 c 0,6,7
 516 586 516 586 403 549 c 1,8,9
 352 407 352 407 352 258 c 0,10,11
 352 172 352 172 386.5 127 c 128,-1,12
 421 82 421 82 481 82 c 0,0,1
457 672 m 1,13,14
 539 688 539 688 610 688 c 0,15,16
 750 688 750 688 838 616 c 128,-1,17
 926 544 926 544 926 426 c 0,18,19
 926 327 926 327 866 223.5 c 128,-1,20
 806 120 806 120 703 50 c 128,-1,21
 600 -20 600 -20 489 -20 c 0,22,23
 355 -20 355 -20 272.5 58 c 128,-1,24
 190 136 190 136 190 272 c 0,25,26
 190 375 190 375 218.5 479 c 128,-1,27
 247 583 247 583 295.5 671.5 c 128,-1,28
 344 760 344 760 406.5 845 c 128,-1,29
 469 930 469 930 538 999.5 c 128,-1,30
 607 1069 607 1069 676 1131 c 128,-1,31
 745 1193 745 1193 807.5 1238.5 c 128,-1,32
 870 1284 870 1284 918 1317 c 0,33,34
 968 1350 968 1350 996 1367 c 2,35,-1
 1024 1384 l 1,36,-1
 1079 1323 l 1,37,38
 1062 1313 1062 1313 1032.5 1293.5 c 128,-1,39
 1003 1274 1003 1274 919.5 1208.5 c 128,-1,40
 836 1143 836 1143 761.5 1072.5 c 128,-1,41
 687 1002 687 1002 600 892.5 c 128,-1,42
 513 783 513 783 457 672 c 1,13,14
EndSplineSet
Validated: 1
EndChar

StartChar: seven
Encoding: 55 55 74
Width: 942
VWidth: 0
Flags: W
HStem: 983 102<420 864>
LayerCount: 2
Fore
SplineSet
420 1085 m 1,0,-1
 1053 1085 l 1,1,-1
 1030 983 l 1,2,-1
 420 -238 l 1,3,-1
 254 -238 l 1,4,-1
 864 983 l 1,5,-1
 367 983 l 1,6,-1
 420 1085 l 1,0,-1
EndSplineSet
Validated: 1
EndChar

StartChar: nine
Encoding: 57 57 75
Width: 942
VWidth: 0
Flags: W
HStem: 397 102<478 735> 1004 102<557 783>
VStem: 266 166<546 828> 838 166<555 947>
LayerCount: 2
Fore
SplineSet
680 1004 m 0,0,1
 624 1004 624 1004 578.5 975 c 128,-1,2
 533 946 533 946 506.5 905 c 128,-1,3
 480 864 480 864 462.5 815.5 c 128,-1,4
 445 767 445 767 438.5 732 c 128,-1,5
 432 697 432 697 432 676 c 0,6,7
 432 603 432 603 471.5 551.5 c 128,-1,8
 511 500 511 500 575 500 c 0,9,10
 678 500 678 500 791 537 c 1,11,12
 838 673 838 673 838 803 c 0,13,14
 838 898 838 898 792.5 951 c 128,-1,15
 747 1004 747 1004 680 1004 c 0,0,1
737 414 m 1,16,17
 650 397 650 397 584 397 c 0,18,19
 443 397 443 397 354.5 469 c 128,-1,20
 266 541 266 541 266 659 c 0,21,22
 266 732 266 732 301.5 810.5 c 128,-1,23
 337 889 337 889 397 955 c 128,-1,24
 457 1021 457 1021 547 1063.5 c 128,-1,25
 637 1106 637 1106 735 1106 c 0,26,27
 848 1106 848 1106 926 1027 c 128,-1,28
 1004 948 1004 948 1004 813 c 0,29,30
 1004 710 1004 710 975.5 606.5 c 128,-1,31
 947 503 947 503 898.5 414.5 c 128,-1,32
 850 326 850 326 787.5 241 c 128,-1,33
 725 156 725 156 655.5 86 c 128,-1,34
 586 16 586 16 516.5 -45.5 c 128,-1,35
 447 -107 447 -107 384.5 -153 c 128,-1,36
 322 -199 322 -199 274 -232 c 0,37,38
 224 -265 224 -265 196 -282 c 2,39,-1
 168 -299 l 1,40,-1
 113 -238 l 1,41,42
 122 -232 122 -232 137.5 -222 c 128,-1,43
 153 -212 153 -212 201 -177 c 128,-1,44
 249 -142 249 -142 296 -104 c 128,-1,45
 343 -66 343 -66 407 -6 c 128,-1,46
 471 54 471 54 526.5 115 c 128,-1,47
 582 176 582 176 639 255.5 c 128,-1,48
 696 335 696 335 737 414 c 1,16,17
EndSplineSet
Validated: 1
EndChar

StartChar: eight
Encoding: 56 56 76
Width: 942
VWidth: 0
Flags: W
HStem: -20 102<371 639> 1352 102<671 881>
VStem: 135 174<146 460> 352 180<924 1190> 801 178<276 571> 934 178<997 1295>
LayerCount: 2
Fore
SplineSet
592 698 m 1,0,1
 524 664 524 664 471.5 617.5 c 128,-1,2
 419 571 419 571 389 526.5 c 128,-1,3
 359 482 359 482 340 434 c 128,-1,4
 321 386 321 386 315 350.5 c 128,-1,5
 309 315 309 315 309 285 c 0,6,7
 309 195 309 195 357.5 138.5 c 128,-1,8
 406 82 406 82 489 82 c 0,9,10
 547 82 547 82 595.5 100 c 128,-1,11
 644 118 644 118 675.5 146.5 c 128,-1,12
 707 175 707 175 731 212 c 128,-1,13
 755 249 755 249 768 283.5 c 128,-1,14
 781 318 781 318 789 353 c 128,-1,15
 797 388 797 388 799 407.5 c 128,-1,16
 801 427 801 427 801 438 c 0,17,18
 801 477 801 477 788.5 511.5 c 128,-1,19
 776 546 776 546 759.5 569 c 128,-1,20
 743 592 743 592 710.5 618.5 c 128,-1,21
 678 645 678 645 656 659 c 128,-1,22
 634 673 634 673 592 698 c 1,0,1
453 -20 m 0,23,24
 306 -20 306 -20 220.5 65 c 128,-1,25
 135 150 135 150 135 279 c 0,26,27
 135 421 135 421 231.5 548 c 128,-1,28
 328 675 328 675 494 760 c 1,29,30
 352 860 352 860 352 1006 c 0,31,32
 352 1103 352 1103 395.5 1189 c 128,-1,33
 439 1275 439 1275 508 1332 c 128,-1,34
 577 1389 577 1389 661 1421.5 c 128,-1,35
 745 1454 745 1454 827 1454 c 0,36,37
 953 1454 953 1454 1032.5 1377 c 128,-1,38
 1112 1300 1112 1300 1112 1176 c 0,39,40
 1112 1051 1112 1051 1036 943 c 128,-1,41
 960 835 960 835 819 752 c 1,42,43
 894 697 894 697 936.5 632 c 128,-1,44
 979 567 979 567 979 473 c 0,45,46
 979 381 979 381 943 293.5 c 128,-1,47
 907 206 907 206 841.5 136 c 128,-1,48
 776 66 776 66 674.5 23 c 128,-1,49
 573 -20 573 -20 453 -20 c 0,23,24
532 1044 m 0,50,51
 532 1005 532 1005 545.5 972.5 c 128,-1,52
 559 940 559 940 587.5 912 c 128,-1,53
 616 884 616 884 642 865.5 c 128,-1,54
 668 847 668 847 711 821 c 1,55,56
 934 961 934 961 934 1157 c 0,57,58
 934 1242 934 1242 889.5 1297 c 128,-1,59
 845 1352 845 1352 786 1352 c 0,60,61
 718 1352 718 1352 658 1301 c 128,-1,62
 598 1250 598 1250 565 1179.5 c 128,-1,63
 532 1109 532 1109 532 1044 c 0,50,51
EndSplineSet
Validated: 1
EndChar

StartChar: ampersand
Encoding: 38 38 77
Width: 1163
VWidth: 0
Flags: W
HStem: -20 102<419 742> 0 43G<911 1061> 1270 102<779 983>
VStem: 150 166<182 539> 553 141<891 1176> 1165 113<709 835>
LayerCount: 2
Fore
SplineSet
881 1270 m 0,0,1
 807 1270 807 1270 750.5 1194 c 128,-1,2
 694 1118 694 1118 694 1020 c 0,3,4
 694 900 694 900 766 725 c 2,5,-1
 944 289 l 1,6,7
 1073 473 1073 473 1165 877 c 1,8,-1
 1278 829 l 1,9,10
 1237 651 1237 651 1163 485 c 128,-1,11
 1089 319 1089 319 981 199 c 1,12,-1
 1061 0 l 1,13,-1
 928 0 l 1,14,-1
 885 106 l 1,15,16
 723 -20 723 -20 520 -20 c 0,17,18
 351 -20 351 -20 250.5 72.5 c 128,-1,19
 150 165 150 165 150 324 c 0,20,21
 150 520 150 520 275 683 c 128,-1,22
 400 846 400 846 569 901 c 1,23,24
 553 975 553 975 553 1012 c 0,25,26
 553 1045 553 1045 558.5 1081.5 c 128,-1,27
 564 1118 564 1118 587 1173 c 128,-1,28
 610 1228 610 1228 648.5 1269.5 c 128,-1,29
 687 1311 687 1311 761.5 1341.5 c 128,-1,30
 836 1372 836 1372 936 1372 c 0,31,32
 1132 1372 1132 1372 1167 1208 c 1,33,-1
 1001 1174 l 1,34,35
 994 1204 994 1204 990 1216.5 c 128,-1,36
 986 1229 986 1229 974 1244.5 c 128,-1,37
 962 1260 962 1260 940 1265 c 128,-1,38
 918 1270 918 1270 881 1270 c 0,0,1
602 801 m 1,39,40
 523 771 523 771 456.5 698.5 c 128,-1,41
 390 626 390 626 352.5 530.5 c 128,-1,42
 315 435 315 435 315 340 c 0,43,44
 315 220 315 220 384 151 c 128,-1,45
 453 82 453 82 573 82 c 0,46,47
 738 82 738 82 852 184 c 1,48,-1
 602 801 l 1,39,40
EndSplineSet
Validated: 1
EndChar

StartChar: parenleft
Encoding: 40 40 78
Width: 548
VWidth: 0
Flags: W
HStem: 0 43G<333 446> 1393 41G<658 778>
VStem: 229 158<130 721>
LayerCount: 2
Fore
SplineSet
676 1434 m 25,0,-1
 778 1434 l 1,1,2
 770 1425 770 1425 756 1408 c 128,-1,3
 742 1391 742 1391 701 1333 c 128,-1,4
 660 1275 660 1275 623.5 1212 c 128,-1,5
 587 1149 587 1149 541.5 1050 c 128,-1,6
 496 951 496 951 463.5 849 c 128,-1,7
 431 747 431 747 409 614 c 128,-1,8
 387 481 387 481 387 348 c 0,9,10
 387 284 387 284 393 224.5 c 128,-1,11
 399 165 399 165 407.5 126 c 128,-1,12
 416 87 416 87 425 57 c 0,13,14
 434 28 434 28 440 14 c 2,15,-1
 446 0 l 1,16,-1
 344 0 l 1,17,18
 339 5 339 5 331.5 15 c 128,-1,19
 324 25 324 25 304 61 c 128,-1,20
 284 97 284 97 269 140 c 128,-1,21
 254 183 254 183 241.5 255.5 c 128,-1,22
 229 328 229 328 229 408 c 0,23,24
 229 545 229 545 253.5 675.5 c 128,-1,25
 278 806 278 806 317.5 905 c 128,-1,26
 357 1004 357 1004 405 1092.5 c 128,-1,27
 453 1181 453 1181 500 1242 c 0,28,29
 548 1304 548 1304 588 1348 c 128,-1,30
 628 1392 628 1392 652 1413 c 2,31,-1
 676 1434 l 25,0,-1
EndSplineSet
Validated: 1
EndChar

StartChar: parenright
Encoding: 41 41 79
Width: 548
VWidth: 0
Flags: W
HStem: 0 43G<102 223> 1393 41G<434 548>
VStem: 494 156<712 1303>
LayerCount: 2
Fore
SplineSet
205 0 m 25,0,-1
 102 0 l 1,1,2
 110 9 110 9 124 26 c 128,-1,3
 138 43 138 43 179 100.5 c 128,-1,4
 220 158 220 158 257 221.5 c 128,-1,5
 294 285 294 285 339 384 c 128,-1,6
 384 483 384 483 416.5 584.5 c 128,-1,7
 449 686 449 686 471.5 819 c 128,-1,8
 494 952 494 952 494 1085 c 0,9,10
 494 1187 494 1187 479 1274 c 0,11,12
 464 1362 464 1362 449 1398 c 2,13,-1
 434 1434 l 1,14,-1
 537 1434 l 1,15,16
 542 1429 542 1429 549.5 1419 c 128,-1,17
 557 1409 557 1409 576 1373 c 128,-1,18
 595 1337 595 1337 610 1294 c 128,-1,19
 625 1251 625 1251 637 1178.5 c 128,-1,20
 649 1106 649 1106 649 1026 c 0,21,22
 649 888 649 888 624.5 757 c 128,-1,23
 600 626 600 626 561 526.5 c 128,-1,24
 522 427 522 427 474.5 339 c 128,-1,25
 427 251 427 251 379.5 190.5 c 128,-1,26
 332 130 332 130 293 86 c 128,-1,27
 254 42 254 42 230 21 c 2,28,-1
 205 0 l 25,0,-1
EndSplineSet
Validated: 1
EndChar

StartChar: asterisk
Encoding: 42 42 80
Width: 864
VWidth: 0
Flags: W
HStem: 1049 121<980 1019>
VStem: 680 127<1305 1352>
LayerCount: 2
Fore
SplineSet
635 1057 m 1,0,-1
 680 1352 l 1,1,-1
 807 1352 l 1,2,-1
 717 1057 l 1,3,-1
 1018 1169 l 1,4,-1
 1028 1049 l 1,5,-1
 723 979 l 1,6,-1
 864 754 l 1,7,-1
 743 678 l 1,8,-1
 647 930 l 1,9,-1
 432 678 l 1,10,-1
 348 754 l 1,11,-1
 592 979 l 1,12,-1
 319 1049 l 1,13,-1
 387 1169 l 1,14,-1
 635 1057 l 1,0,-1
635 1057 m 1,15,-1
592 979 m 1,16,-1
647 930 m 1,17,-1
723 979 m 1,18,-1
717 1057 m 1,19,-1
EndSplineSet
Validated: 1
EndChar

StartChar: plus
Encoding: 43 43 81
Width: 856
VWidth: 0
Flags: W
HStem: 348 102<186 457 584 854>
LayerCount: 2
Fore
SplineSet
559 348 m 1,0,-1
 492 53 l 1,1,-1
 389 53 l 1,2,-1
 457 348 l 1,3,-1
 162 348 l 1,4,-1
 186 451 l 1,5,-1
 481 451 l 1,6,-1
 549 745 l 1,7,-1
 651 745 l 1,8,-1
 584 451 l 1,9,-1
 879 451 l 1,10,-1
 854 348 l 1,11,-1
 559 348 l 1,0,-1
EndSplineSet
Validated: 1
EndChar

StartChar: hyphen
Encoding: 45 45 82
Width: 649
VWidth: 0
Flags: W
HStem: 348 102<186 647>
VStem: 162 510
LayerCount: 2
Fore
SplineSet
186 451 m 1,0,-1
 672 451 l 1,1,-1
 647 348 l 1,2,-1
 162 348 l 1,3,-1
 186 451 l 1,0,-1
EndSplineSet
Validated: 1
EndChar

StartChar: less
Encoding: 60 60 83
Width: 856
VWidth: 0
Flags: W
HStem: 860 41G<823 910>
LayerCount: 2
Fore
SplineSet
231 504 m 1,0,-1
 891 901 l 1,1,-1
 930 817 l 1,2,-1
 410 504 l 1,3,-1
 786 193 l 1,4,-1
 707 109 l 1,5,-1
 231 504 l 1,0,-1
EndSplineSet
Validated: 1
EndChar

StartChar: greater
Encoding: 62 62 84
Width: 856
VWidth: 0
Flags: W
HStem: 860 41G<344 432>
LayerCount: 2
Fore
SplineSet
858 506 m 1,0,-1
 199 109 l 1,1,-1
 160 193 l 1,2,-1
 680 506 l 1,3,-1
 303 817 l 1,4,-1
 383 901 l 1,5,-1
 858 506 l 1,0,-1
EndSplineSet
Validated: 1
EndChar

StartChar: equal
Encoding: 61 61 85
Width: 708
VWidth: 0
Flags: W
HStem: 348 102<186 707> 573 102<238 760>
VStem: 162 621
LayerCount: 2
Fore
SplineSet
238 676 m 1,0,-1
 782 676 l 1,1,-1
 760 573 l 1,2,-1
 215 573 l 1,3,-1
 238 676 l 1,0,-1
186 451 m 1,4,-1
 731 451 l 1,5,-1
 707 348 l 1,6,-1
 162 348 l 1,7,-1
 186 451 l 1,4,-1
EndSplineSet
Validated: 1
EndChar

StartChar: at
Encoding: 64 64 86
Width: 1325
VWidth: 0
Flags: W
HStem: -20 102<571 956> 262 102<918 1068> 279 66<662 823> 860 66<765 904> 1126 102<746 1088>
VStem: 184 176<286 701> 528 106<358 689> 924 106<590 853> 1210 176<643 999>
LayerCount: 2
Fore
SplineSet
1030 791 m 0,0,1
 1030 761 1030 761 991 612 c 128,-1,2
 952 463 952 463 952 416 c 0,3,4
 952 387 952 387 961 376 c 128,-1,5
 970 365 970 365 989 365 c 0,6,7
 1039 365 1039 365 1083.5 424 c 128,-1,8
 1128 483 1128 483 1154 563.5 c 128,-1,9
 1180 644 1180 644 1195 717.5 c 128,-1,10
 1210 791 1210 791 1210 831 c 0,11,12
 1210 966 1210 966 1131.5 1046 c 128,-1,13
 1053 1126 1053 1126 952 1126 c 0,14,15
 849 1126 849 1126 755 1087.5 c 128,-1,16
 661 1049 661 1049 590.5 983.5 c 128,-1,17
 520 918 520 918 467 834.5 c 128,-1,18
 414 751 414 751 387 657.5 c 128,-1,19
 360 564 360 564 360 473 c 0,20,21
 360 374 360 374 397 296 c 128,-1,22
 434 218 434 218 493 173 c 128,-1,23
 552 128 552 128 618 105 c 128,-1,24
 684 82 684 82 750 82 c 0,25,26
 990 82 990 82 1149 264 c 1,27,-1
 1257 209 l 1,28,29
 1153 106 1153 106 1005 43 c 128,-1,30
 857 -20 857 -20 696 -20 c 0,31,32
 606 -20 606 -20 517.5 10.5 c 128,-1,33
 429 41 429 41 353.5 98.5 c 128,-1,34
 278 156 278 156 231 251 c 128,-1,35
 184 346 184 346 184 463 c 0,36,37
 184 571 184 571 218 674 c 128,-1,38
 252 777 252 777 310 859.5 c 128,-1,39
 368 942 368 942 444.5 1012 c 128,-1,40
 521 1082 521 1082 605.5 1129 c 128,-1,41
 690 1176 690 1176 778 1202.5 c 128,-1,42
 866 1229 866 1229 946 1229 c 0,43,44
 1151 1229 1151 1229 1268.5 1129.5 c 128,-1,45
 1386 1030 1386 1030 1386 856 c 0,46,47
 1386 744 1386 744 1339.5 632 c 128,-1,48
 1293 520 1293 520 1224.5 440.5 c 128,-1,49
 1156 361 1156 361 1078 311.5 c 128,-1,50
 1000 262 1000 262 936 262 c 128,-1,51
 872 262 872 262 854 319 c 1,52,53
 787 279 787 279 690 279 c 0,54,55
 528 279 528 279 528 465 c 0,56,57
 528 577 528 577 568.5 682.5 c 128,-1,58
 609 788 609 788 684 857 c 128,-1,59
 759 926 759 926 848 926 c 0,60,61
 926 926 926 926 978 893 c 128,-1,62
 1030 860 1030 860 1030 791 c 0,0,1
846 399 m 1,63,64
 850 468 850 468 887 606.5 c 128,-1,65
 924 745 924 745 924 766 c 0,66,67
 924 801 924 801 903 830.5 c 128,-1,68
 882 860 882 860 854 860 c 0,69,70
 800 860 800 860 755.5 819.5 c 128,-1,71
 711 779 711 779 686 718 c 128,-1,72
 661 657 661 657 648 595 c 128,-1,73
 635 533 635 533 635 481 c 0,74,75
 635 418 635 418 657.5 381 c 128,-1,76
 680 344 680 344 725 344 c 0,77,78
 769 344 769 344 793 355.5 c 128,-1,79
 817 367 817 367 846 399 c 1,63,64
EndSplineSet
Validated: 1
EndChar

StartChar: bracketleft
Encoding: 91 91 87
Width: 432
VWidth: 0
Flags: W
HStem: 0 82<223 340> 1270 82<498 633>
VStem: 92 559
LayerCount: 2
Fore
SplineSet
340 0 m 1,0,-1
 92 0 l 1,1,-1
 403 1352 l 1,2,-1
 651 1352 l 1,3,-1
 633 1270 l 1,4,-1
 498 1270 l 1,5,-1
 223 82 l 1,6,-1
 358 82 l 1,7,-1
 340 0 l 1,0,-1
EndSplineSet
Validated: 1
EndChar

StartChar: bracketright
Encoding: 93 93 88
Width: 432
VWidth: 0
Flags: W
HStem: 0 82<111 246> 1270 82<403 520>
VStem: 92 559
LayerCount: 2
Fore
SplineSet
403 1352 m 1,0,-1
 651 1352 l 1,1,-1
 340 0 l 1,2,-1
 92 0 l 1,3,-1
 111 82 l 1,4,-1
 246 82 l 1,5,-1
 520 1270 l 1,6,-1
 385 1270 l 1,7,-1
 403 1352 l 1,0,-1
EndSplineSet
Validated: 1
EndChar

StartChar: underscore
Encoding: 95 95 89
Width: 692
VWidth: 0
Flags: W
HStem: -184 102<-18 649>
LayerCount: 2
Fore
SplineSet
-18 -82 m 1,0,-1
 674 -82 l 1,1,-1
 649 -184 l 1,2,-1
 -43 -184 l 1,3,-1
 -18 -82 l 1,0,-1
EndSplineSet
Validated: 1
EndChar

StartChar: braceleft
Encoding: 123 123 90
Width: 530
VWidth: 0
Flags: W
HStem: 0 43G<308 449> 1393 41G<521 780>
VStem: 250 141<47 527> 297 139<259 679>
LayerCount: 2
Fore
SplineSet
678 1434 m 1,0,-1
 780 1434 l 1,1,2
 712 1391 712 1391 669 1314.5 c 128,-1,3
 626 1238 626 1238 604 1155 c 128,-1,4
 582 1072 582 1072 557 989 c 128,-1,5
 532 906 532 906 481 832 c 128,-1,6
 430 758 430 758 350 717 c 1,7,8
 436 658 436 658 436 526 c 0,9,10
 436 467 436 467 413.5 340.5 c 128,-1,11
 391 214 391 214 391 158 c 0,12,13
 391 53 391 53 449 0 c 1,14,-1
 346 0 l 1,15,16
 250 62 250 62 250 207 c 0,17,18
 250 270 250 270 273.5 399 c 128,-1,19
 297 528 297 528 297 582 c 0,20,21
 297 673 297 673 248 717 c 1,22,23
 293 745 293 745 325.5 792.5 c 128,-1,24
 358 840 358 840 377 894 c 128,-1,25
 396 948 396 948 412.5 1008.5 c 128,-1,26
 429 1069 429 1069 448.5 1130 c 128,-1,27
 468 1191 468 1191 494.5 1247 c 128,-1,28
 521 1303 521 1303 567.5 1352.5 c 128,-1,29
 614 1402 614 1402 678 1434 c 1,0,-1
EndSplineSet
Validated: 1
EndChar

StartChar: braceright
Encoding: 125 125 91
Width: 530
VWidth: 0
Flags: W
HStem: 0 43G<82 341> 1393 41G<414 554>
VStem: 426 139<755 1175> 471 141<907 1386>
LayerCount: 2
Fore
SplineSet
184 0 m 1,0,-1
 82 0 l 1,1,2
 150 43 150 43 193 119.5 c 128,-1,3
 236 196 236 196 258 279 c 128,-1,4
 280 362 280 362 305 445 c 128,-1,5
 330 528 330 528 381 602 c 128,-1,6
 432 676 432 676 512 717 c 1,7,8
 426 776 426 776 426 907 c 0,9,10
 426 966 426 966 448.5 1093 c 128,-1,11
 471 1220 471 1220 471 1276 c 0,12,13
 471 1382 471 1382 414 1434 c 1,14,-1
 516 1434 l 1,15,16
 612 1372 612 1372 612 1227 c 0,17,18
 612 1164 612 1164 588.5 1035 c 128,-1,19
 565 906 565 906 565 852 c 0,20,21
 565 761 565 761 614 717 c 1,22,23
 569 689 569 689 536.5 641.5 c 128,-1,24
 504 594 504 594 485 540 c 128,-1,25
 466 486 466 486 449.5 425.5 c 128,-1,26
 433 365 433 365 413.5 304 c 128,-1,27
 394 243 394 243 367.5 187 c 128,-1,28
 341 131 341 131 294.5 81.5 c 128,-1,29
 248 32 248 32 184 0 c 1,0,-1
EndSplineSet
Validated: 1
EndChar

StartChar: gravecomb
Encoding: 768 768 92
Width: 0
VWidth: 0
Flags: W
HStem: 1255 387
VStem: -338 295
AnchorPoint: "top" -180 1188 mark 0
LayerCount: 2
Fore
SplineSet
-207 1642 m 25,0,-1
 -43 1309 l 1,1,-1
 -119 1255 l 1,2,-1
 -338 1550 l 1,3,-1
 -207 1642 l 25,0,-1
EndSplineSet
Validated: 1
EndChar

StartChar: acutecomb
Encoding: 769 769 93
Width: 0
VWidth: 0
Flags: W
HStem: 1255 387
VStem: -393 406
AnchorPoint: "top" -314 1188 mark 0
LayerCount: 2
Fore
SplineSet
-78 1642 m 25,0,-1
 12 1550 l 1,1,-1
 -342 1255 l 1,2,-1
 -393 1309 l 1,3,-1
 -78 1642 l 25,0,-1
EndSplineSet
Validated: 1
EndChar

StartChar: uni0302
Encoding: 770 770 94
Width: 0
VWidth: 0
Flags: W
HStem: 1257 299
VStem: -551 551
AnchorPoint: "top" -313 1188 mark 0
LayerCount: 2
Fore
SplineSet
0 1348 m 1,0,-1
 -113 1257 l 1,1,-1
 -254 1434 l 1,2,-1
 -479 1257 l 1,3,-1
 -551 1348 l 1,4,-1
 -227 1556 l 1,5,-1
 0 1348 l 1,0,-1
EndSplineSet
Validated: 1
EndChar

StartChar: tildecomb
Encoding: 771 771 95
Width: 0
VWidth: 0
Flags: W
HStem: 1270 117<-254 -61> 1335 117<-465 -272>
VStem: -567 608
AnchorPoint: "top" -313 1188 mark 0
LayerCount: 2
Fore
SplineSet
-43 1452 m 1,0,-1
 41 1452 l 1,1,2
 12 1372 12 1372 -52.5 1321 c 128,-1,3
 -117 1270 -117 1270 -203 1270 c 0,4,5
 -241 1270 -241 1270 -291 1302.5 c 128,-1,6
 -341 1335 -341 1335 -360 1335 c 0,7,8
 -460 1335 -460 1335 -483 1270 c 1,9,-1
 -567 1270 l 1,10,11
 -538 1350 -538 1350 -474 1401 c 128,-1,12
 -410 1452 -410 1452 -324 1452 c 0,13,14
 -286 1452 -286 1452 -235.5 1419 c 128,-1,15
 -185 1386 -185 1386 -166 1386 c 0,16,17
 -66 1386 -66 1386 -43 1452 c 1,0,-1
EndSplineSet
Validated: 1
EndChar

StartChar: uni0304
Encoding: 772 772 96
Width: 0
VWidth: 0
Flags: W
HStem: 1270 82<-522 -70>
VStem: -541 489
AnchorPoint: "top" -314 1188 mark 0
LayerCount: 2
Fore
SplineSet
-522 1352 m 1,0,-1
 -51 1352 l 1,1,-1
 -70 1270 l 1,2,-1
 -541 1270 l 1,3,-1
 -522 1352 l 1,0,-1
EndSplineSet
Validated: 1
EndChar

StartChar: uni0306
Encoding: 774 774 97
Width: 0
VWidth: 0
Flags: W
HStem: 1270 117<-379 -146>
VStem: -483 84<1416 1460>
AnchorPoint: "top" -313 1188 mark 0
LayerCount: 2
Fore
SplineSet
-268 1386 m 0,0,1
 -212 1386 -212 1386 -158 1416 c 128,-1,2
 -104 1446 -104 1446 -92 1481 c 1,3,-1
 -18 1460 l 1,4,5
 -46 1382 -46 1382 -126.5 1326 c 128,-1,6
 -207 1270 -207 1270 -295 1270 c 0,7,8
 -377 1270 -377 1270 -430 1320 c 128,-1,9
 -483 1370 -483 1370 -483 1442 c 0,10,11
 -483 1445 -483 1445 -482 1451 c 128,-1,12
 -481 1457 -481 1457 -481 1460 c 1,13,-1
 -399 1481 l 1,14,-1
 -399 1477 l 2,15,16
 -399 1443 -399 1443 -360.5 1414.5 c 128,-1,17
 -322 1386 -322 1386 -268 1386 c 0,0,1
EndSplineSet
Validated: 1
EndChar

StartChar: uni0307
Encoding: 775 775 98
Width: 0
VWidth: 0
Flags: W
HStem: 1270 150<-338 -223>
VStem: -373 184
AnchorPoint: "top" -314 1188 mark 0
LayerCount: 2
Fore
SplineSet
-338 1419 m 1,0,-1
 -188 1419 l 1,1,-1
 -223 1270 l 1,2,-1
 -373 1270 l 1,3,-1
 -338 1419 l 1,0,-1
EndSplineSet
Validated: 1
EndChar

StartChar: uni030A
Encoding: 778 778 100
Width: 0
VWidth: 0
Flags: W
HStem: 1167 61<-365 -228> 1417 61<-336 -200>
VStem: -442 63<1243 1375> -186 63<1270 1404>
AnchorPoint: "top" -313 1188 mark 0
LayerCount: 2
Fore
SplineSet
-260 1417 m 0,0,1
 -302 1417 -302 1417 -340.5 1384 c 128,-1,2
 -379 1351 -379 1351 -379 1303 c 0,3,4
 -379 1272 -379 1272 -357.5 1250.5 c 128,-1,5
 -336 1229 -336 1229 -303 1229 c 0,6,7
 -261 1229 -261 1229 -223.5 1262 c 128,-1,8
 -186 1295 -186 1295 -186 1343 c 0,9,10
 -186 1374 -186 1374 -206.5 1395.5 c 128,-1,11
 -227 1417 -227 1417 -260 1417 c 0,0,1
-442 1288 m 0,12,13
 -442 1365 -442 1365 -379.5 1422 c 128,-1,14
 -317 1479 -317 1479 -246 1479 c 0,15,16
 -191 1479 -191 1479 -157 1445 c 128,-1,17
 -123 1411 -123 1411 -123 1358 c 0,18,19
 -123 1281 -123 1281 -184.5 1224 c 128,-1,20
 -246 1167 -246 1167 -317 1167 c 0,21,22
 -372 1167 -372 1167 -407 1201 c 128,-1,23
 -442 1235 -442 1235 -442 1288 c 0,12,13
EndSplineSet
Validated: 1
EndChar

StartChar: uni030C
Encoding: 780 780 102
Width: 0
VWidth: 0
Flags: W
HStem: 1139 387
VStem: -487 479
AnchorPoint: "top" -313 1188 mark 0
LayerCount: 2
Fore
SplineSet
-326 1139 m 1,0,-1
 -487 1473 l 1,1,-1
 -412 1526 l 1,2,-1
 -276 1346 l 1,3,-1
 -59 1526 l 1,4,-1
 -8 1473 l 1,5,-1
 -326 1139 l 1,0,-1
EndSplineSet
Validated: 1
EndChar

StartChar: uni0311
Encoding: 785 785 104
Width: 0
VWidth: 0
Flags: W
HStem: 1343 117<-400 -168>
VStem: -145 84<1270 1314>
AnchorPoint: "top" -313 1188 mark 0
LayerCount: 2
Fore
SplineSet
-279 1343 m 0,0,1
 -335 1343 -335 1343 -388 1313.5 c 128,-1,2
 -441 1284 -441 1284 -453 1249 c 1,3,-1
 -526 1270 l 1,4,5
 -498 1348 -498 1348 -418 1404 c 128,-1,6
 -338 1460 -338 1460 -250 1460 c 0,7,8
 -168 1460 -168 1460 -114.5 1410 c 128,-1,9
 -61 1360 -61 1360 -61 1288 c 0,10,11
 -61 1285 -61 1285 -62 1279 c 128,-1,12
 -63 1273 -63 1273 -63 1270 c 1,13,-1
 -145 1249 l 1,14,-1
 -145 1253 l 2,15,16
 -145 1286 -145 1286 -185 1314.5 c 128,-1,17
 -225 1343 -225 1343 -279 1343 c 0,0,1
EndSplineSet
Validated: 1
EndChar

StartChar: uni0312
Encoding: 786 786 105
Width: 0
VWidth: 0
Flags: W
HStem: 1270 367
VStem: -375 147<1270 1342>
AnchorPoint: "top" -313 1188 mark 0
LayerCount: 2
Fore
SplineSet
-137 1636 m 1,0,1
 -225 1542 -225 1542 -225 1446 c 0,2,3
 -225 1432 -225 1432 -222 1398 c 128,-1,4
 -219 1364 -219 1364 -219 1343 c 0,5,6
 -219 1306 -219 1306 -227 1270 c 1,7,-1
 -375 1270 l 1,8,9
 -360 1334 -360 1334 -343.5 1386.5 c 128,-1,10
 -327 1439 -327 1439 -316 1470 c 128,-1,11
 -305 1501 -305 1501 -286.5 1533.5 c 128,-1,12
 -268 1566 -268 1566 -261.5 1575 c 128,-1,13
 -255 1584 -255 1584 -234.5 1609 c 128,-1,14
 -214 1634 -214 1634 -213 1636 c 1,15,-1
 -137 1636 l 1,0,1
EndSplineSet
Validated: 1
EndChar

StartChar: uni0313
Encoding: 787 787 106
Width: 0
VWidth: 0
Flags: W
HStem: 1270 367
VStem: -250 147<1564 1636>
AnchorPoint: "top" -313 1188 mark 0
LayerCount: 2
Fore
SplineSet
-340 1270 m 1,0,1
 -252 1364 -252 1364 -252 1460 c 0,2,3
 -252 1475 -252 1475 -255 1509 c 128,-1,4
 -258 1543 -258 1543 -258 1563 c 0,5,6
 -258 1600 -258 1600 -250 1636 c 1,7,-1
 -102 1636 l 1,8,9
 -117 1572 -117 1572 -133.5 1519.5 c 128,-1,10
 -150 1467 -150 1467 -161 1436 c 128,-1,11
 -172 1405 -172 1405 -190.5 1372.5 c 128,-1,12
 -209 1340 -209 1340 -215.5 1331 c 128,-1,13
 -222 1322 -222 1322 -242.5 1297 c 128,-1,14
 -263 1272 -263 1272 -264 1270 c 1,15,-1
 -340 1270 l 1,0,1
EndSplineSet
Validated: 1
EndChar

StartChar: uni0314
Encoding: 788 788 107
Width: 0
VWidth: 0
Flags: W
HStem: 1270 367<-335 -279>
VStem: -358 80<1271 1495>
AnchorPoint: "top" -313 1188 mark 0
LayerCount: 2
Fore
SplineSet
-178 1636 m 1,0,1
 -190 1587 -190 1587 -216 1540 c 128,-1,2
 -242 1493 -242 1493 -260.5 1452.5 c 128,-1,3
 -279 1412 -279 1412 -279 1362 c 0,4,5
 -279 1317 -279 1317 -256 1270 c 1,6,-1
 -332 1270 l 1,7,8
 -334 1275 -334 1275 -340 1293.5 c 128,-1,9
 -346 1312 -346 1312 -349 1322.5 c 128,-1,10
 -352 1333 -352 1333 -355 1355.5 c 128,-1,11
 -358 1378 -358 1378 -358 1403 c 0,12,13
 -358 1494 -358 1494 -326 1636 c 1,14,-1
 -178 1636 l 1,0,1
EndSplineSet
Validated: 1
EndChar

StartChar: uni0326
Encoding: 806 806 108
Width: 0
VWidth: 0
Flags: W
HStem: -401 49<-827 -646> -164 57<-696 -608>
VStem: -582 129<-312 -181>
AnchorPoint: "cedilla" -590 0 mark 0
LayerCount: 2
Fore
SplineSet
-827 -352 m 17,0,1
 -773 -352 -773 -352 -735.5 -348 c 128,-1,2
 -698 -344 -698 -344 -660 -333.5 c 128,-1,3
 -622 -323 -622 -323 -602 -299 c 128,-1,4
 -582 -275 -582 -275 -582 -238 c 0,5,6
 -582 -206 -582 -206 -611 -188.5 c 128,-1,7
 -640 -171 -640 -171 -709 -164 c 1,8,-1
 -696 -106 l 1,9,10
 -588 -106 -588 -106 -520.5 -141.5 c 128,-1,11
 -453 -177 -453 -177 -453 -231 c 0,12,13
 -453 -259 -453 -259 -473.5 -287 c 128,-1,14
 -494 -315 -494 -315 -536 -341.5 c 128,-1,15
 -578 -368 -578 -368 -656.5 -384.5 c 128,-1,16
 -735 -401 -735 -401 -838 -401 c 1,17,-1
 -827 -352 l 17,0,1
EndSplineSet
Validated: 1
EndChar

StartChar: uni0327
Encoding: 807 807 109
Width: 0
VWidth: 0
Flags: W
HStem: -401 49<-827 -648> -164 164<-643 -589>
VStem: -582 129<-312 -182>
AnchorPoint: "cedilla" -590 0 mark 0
LayerCount: 2
Fore
SplineSet
-827 -352 m 17,0,1
 -773 -352 -773 -352 -735.5 -348 c 128,-1,2
 -698 -344 -698 -344 -660 -333.5 c 128,-1,3
 -622 -323 -622 -323 -602 -299 c 128,-1,4
 -582 -275 -582 -275 -582 -238 c 0,5,6
 -582 -206 -582 -206 -611 -188.5 c 128,-1,7
 -640 -171 -640 -171 -709 -164 c 1,8,-1
 -643 0 l 1,9,-1
 -537 0 l 1,10,-1
 -573 -111 l 1,11,12
 -518 -120 -518 -120 -485.5 -148.5 c 128,-1,13
 -453 -177 -453 -177 -453 -221 c 0,14,15
 -453 -267 -453 -267 -486 -302.5 c 128,-1,16
 -519 -338 -519 -338 -574.5 -359 c 128,-1,17
 -630 -380 -630 -380 -697 -390.5 c 128,-1,18
 -764 -401 -764 -401 -838 -401 c 1,19,-1
 -827 -352 l 17,0,1
EndSplineSet
Validated: 1
EndChar

StartChar: uni0328
Encoding: 808 808 110
Width: 0
VWidth: 0
Flags: W
HStem: -319 37<-595 -504>
VStem: -758 119<-266 -112>
AnchorPoint: "ogonek" -483 0 mark 0
LayerCount: 2
Fore
SplineSet
-477 25 m 9,0,-1
 -483 0 l 1,1,2
 -506 -10 -506 -10 -527.5 -23.5 c 128,-1,3
 -549 -37 -549 -37 -577 -60.5 c 128,-1,4
 -605 -84 -605 -84 -622 -119 c 128,-1,5
 -639 -154 -639 -154 -639 -195 c 0,6,7
 -639 -239 -639 -239 -606.5 -261 c 128,-1,8
 -574 -283 -574 -283 -496 -283 c 1,9,-1
 -504 -319 l 1,10,11
 -643 -319 -643 -319 -700.5 -286.5 c 128,-1,12
 -758 -254 -758 -254 -758 -207 c 0,13,14
 -758 -140 -758 -140 -672 -72 c 128,-1,15
 -586 -4 -586 -4 -477 25 c 9,0,-1
EndSplineSet
Validated: 1
EndChar

StartChar: uni0237
Encoding: 567 567 111
Width: 376
VWidth: 0
Flags: W
HStem: -348 102<-190 42> 860 41G<322 496>
AnchorPoint: "bottom" -63 -348 basechar 0
AnchorPoint: "top" 436 1004 basechar 0
LayerCount: 2
Fore
SplineSet
-141 -195 m 1,0,1
 -119 -246 -119 -246 -45 -246 c 0,2,3
 15 -246 15 -246 54 -187.5 c 128,-1,4
 93 -129 93 -129 123 0 c 2,5,-1
 332 901 l 1,6,-1
 496 901 l 1,7,-1
 270 -68 l 2,8,9
 254 -141 254 -141 214.5 -197 c 128,-1,10
 175 -253 175 -253 122.5 -284.5 c 128,-1,11
 70 -316 70 -316 14 -332 c 128,-1,12
 -42 -348 -42 -348 -98 -348 c 0,13,14
 -228 -348 -228 -348 -285 -256 c 1,15,-1
 -141 -195 l 1,0,1
EndSplineSet
Validated: 1
EndChar

StartChar: dotlessi
Encoding: 305 305 112
Width: 483
VWidth: 0
Flags: W
HStem: -20 102<252 428> 860 41G<292 465>
VStem: 135 174<85 272> 430 70<93 131>
AnchorPoint: "ogonek" 248 0 basechar 0
AnchorPoint: "bottom" 172 0 basechar 0
AnchorPoint: "top" 408 1004 basechar 0
LayerCount: 2
Fore
SplineSet
319 276 m 2,0,1
 309 232 309 232 309 182 c 0,2,3
 309 82 309 82 352 82 c 0,4,5
 380 82 380 82 402.5 96.5 c 128,-1,6
 425 111 425 111 430 131 c 1,7,-1
 500 131 l 1,8,9
 487 68 487 68 428.5 24 c 128,-1,10
 370 -20 370 -20 301 -20 c 0,11,12
 228 -20 228 -20 181.5 29.5 c 128,-1,13
 135 79 135 79 135 156 c 0,14,15
 135 183 135 183 141 213 c 2,16,-1
 301 901 l 1,17,-1
 465 901 l 1,18,-1
 319 276 l 2,0,1
EndSplineSet
Validated: 1
EndChar

StartChar: Agrave
Encoding: 192 192 138
Width: 1275
VWidth: 0
Flags: W
HStem: 0 43<31 219 1086 1255> 410 102<500 1024> 1393 41<860 1070> 1501 387
VStem: 817 295
AnchorPoint: "ogonek" 1092 0 basechar 0
LayerCount: 2
Fore
SplineSet
1092 0 m 1
EndSplineSet
Refer: 92 768 N 1 0 0 1 1155 246 2
Refer: 27 65 N 1 0 0 1 0 0 3
Validated: 1
EndChar

StartChar: Aacute
Encoding: 193 193 139
Width: 1275
VWidth: 0
Flags: W
HStem: 0 43<31 219 1086 1255> 410 102<500 1024> 1393 41<860 1070> 1501 387
VStem: 895 406
AnchorPoint: "bottom" 639 0 basechar 0
AnchorPoint: "ogonek" 1092 0 basechar 0
LayerCount: 2
Fore
SplineSet
1092 0 m 1
EndSplineSet
Refer: 93 769 N 1 0 0 1 1288 246 2
Refer: 27 65 N 1 0 0 1 0 0 3
Validated: 1
EndChar

StartChar: Acircumflex
Encoding: 194 194 140
Width: 1275
VWidth: 0
Flags: W
HStem: 0 43<31 219 1086 1255> 410 102<500 1024> 1393 41<860 1070> 1503 299
VStem: 737 551
AnchorPoint: "top" 1040 1720 basechar 0
AnchorPoint: "bottom" 639 0 basechar 0
AnchorPoint: "ogonek" 1092 0 basechar 0
LayerCount: 2
Fore
SplineSet
1092 0 m 1
EndSplineSet
Refer: 94 770 S 1 0 0 1 1288 246 2
Refer: 27 65 N 1 0 0 1 0 0 3
Validated: 1
EndChar

StartChar: Atilde
Encoding: 195 195 141
Width: 1275
VWidth: 0
Flags: W
HStem: 0 43<31 219 1086 1255> 410 102<500 1024> 1393 41<860 1070> 1516 117<1034 1227> 1581 117<823 1016>
VStem: 721 608
AnchorPoint: "bottom" 639 0 basechar 0
AnchorPoint: "ogonek" 1092 0 basechar 0
LayerCount: 2
Fore
SplineSet
1092 0 m 5
EndSplineSet
Refer: 95 771 N 1 0 0 1 1288 246 2
Refer: 27 65 N 1 0 0 1 0 0 3
Validated: 1
EndChar

StartChar: Adieresis
Encoding: 196 196 142
Width: 1275
VWidth: 0
Flags: W
HStem: 0 43<31 219 1086 1255> 410 102<500 1024> 1393 41<860 1070> 1516 150<786 901 1114 1229>
VStem: 752 184 1079 184
AnchorPoint: "top" 1040 1720 basechar 0
AnchorPoint: "bottom" 639 0 basechar 0
AnchorPoint: "ogonek" 1092 0 basechar 0
LayerCount: 2
Fore
SplineSet
1092 0 m 1
EndSplineSet
Refer: 99 776 N 1 0 0 1 1288 246 2
Refer: 27 65 N 1 0 0 1 0 0 3
Validated: 1
EndChar

StartChar: Aring
Encoding: 197 197 143
Width: 1275
VWidth: 0
UnlinkRmOvrlpSave: 1
Flags: W
HStem: 0 21G<31 206.854 1089.27 1255> 410 102<500 1024> 1663 62<950.717 1084.54>
VStem: 846 63<1492.72 1622.99> 1102 63<1514.97 1640.82>
AnchorPoint: "top" 1033 1720 basechar 0
AnchorPoint: "bottom" 639 0 basechar 0
AnchorPoint: "ogonek" 1092 0 basechar 0
LayerCount: 2
Fore
SplineSet
928 1231 m 1,0,-1
 500 512 l 1,1,-1
 1024 512 l 1,2,-1
 928 1231 l 1,0,-1
897 1434 m 1,3,4
 846 1469 846 1469 846 1540 c 128,-1,5
 846 1611 846 1611 908.5 1668 c 128,-1,6
 971 1725 971 1725 1034 1725 c 128,-1,7
 1097 1725 1097 1725 1131 1691 c 128,-1,8
 1165 1657 1165 1657 1165 1592 c 2,9,10
 1165 1590 l 2,11,12
 1165 1526 1165 1526 1104 1470 c 0,13,14
 1080 1448 1080 1448 1054 1434 c 1,15,-1
 1065 1434 l 1,16,-1
 1255 0 l 1,17,-1
 1092 0 l 1,18,-1
 1036 410 l 1,19,-1
 438 410 l 1,20,-1
 195 0 l 1,21,-1
 31 0 l 1,22,-1
 885 1434 l 1,23,-1
 897 1434 l 1,3,4
1081.5 1641.5 m 128,-1,25
 1061 1663 1061 1663 1023.5 1663 c 128,-1,26
 986 1663 986 1663 947.5 1630 c 128,-1,27
 909 1597 909 1597 909 1557.5 c 128,-1,28
 909 1518 909 1518 930.5 1496.5 c 128,-1,29
 952 1475 952 1475 989.5 1475 c 128,-1,30
 1027 1475 1027 1475 1064.5 1508 c 128,-1,31
 1102 1541 1102 1541 1102 1580.5 c 128,-1,24
 1102 1620 1102 1620 1081.5 1641.5 c 128,-1,25
EndSplineSet
EndChar

StartChar: Thorn
Encoding: 222 222 163
Width: 970
VWidth: 0
Flags: W
HStem: 0 43G<92 276> 328 102<367 781> 1004 102<522 894> 1393 41G<414 598>
VStem: 958 174<627 943>
LayerCount: 2
Fore
SplineSet
1133 801 m 0,0,1
 1133 748 1133 748 1116.5 693 c 128,-1,2
 1100 638 1100 638 1069.5 585.5 c 128,-1,3
 1039 533 1039 533 991 486 c 128,-1,4
 943 439 943 439 884.5 404 c 128,-1,5
 826 369 826 369 749 348.5 c 128,-1,6
 672 328 672 328 588 328 c 2,7,-1
 342 328 l 1,8,-1
 266 0 l 1,9,-1
 92 0 l 1,10,-1
 424 1434 l 1,11,-1
 598 1434 l 1,12,-1
 522 1106 l 1,13,-1
 768 1106 l 2,14,15
 866 1106 866 1106 939.5 1079.5 c 128,-1,16
 1013 1053 1013 1053 1054 1008 c 128,-1,17
 1095 963 1095 963 1114 911 c 128,-1,18
 1133 859 1133 859 1133 801 c 0,0,1
498 1004 m 1,19,-1
 367 430 l 1,20,-1
 641 430 l 2,21,22
 731 430 731 430 806 488.5 c 128,-1,23
 881 547 881 547 919.5 631 c 128,-1,24
 958 715 958 715 958 799 c 0,25,26
 958 886 958 886 913.5 945 c 128,-1,27
 869 1004 869 1004 774 1004 c 2,28,-1
 498 1004 l 1,19,-1
EndSplineSet
Validated: 1
EndChar

StartChar: thorn
Encoding: 254 254 164
Width: 1087
VWidth: 0
Flags: W
HStem: 0 102<336 556> 823 102<602 930>
VStem: 979 166<465 775>
LayerCount: 2
Fore
SplineSet
311 0 m 1,0,-1
 217 -410 l 1,1,-1
 53 -410 l 1,2,-1
 459 1352 l 1,3,-1
 623 1352 l 1,4,-1
 512 866 l 1,5,6
 621 926 621 926 780 926 c 0,7,8
 952 926 952 926 1048.5 863.5 c 128,-1,9
 1145 801 1145 801 1145 670 c 0,10,11
 1145 532 1145 532 1078 409 c 128,-1,12
 1011 286 1011 286 897.5 198.5 c 128,-1,13
 784 111 784 111 631.5 58 c 128,-1,14
 479 5 479 5 311 0 c 1,0,-1
336 102 m 1,15,16
 493 104 493 104 640 174.5 c 128,-1,17
 787 245 787 245 883 373 c 128,-1,18
 979 501 979 501 979 653 c 0,19,20
 979 739 979 739 929.5 781 c 128,-1,21
 880 823 880 823 788 823 c 0,22,23
 633 823 633 823 548.5 742.5 c 128,-1,24
 464 662 464 662 428 508 c 1,25,-1
 336 102 l 1,15,16
EndSplineSet
Validated: 1
EndChar

StartChar: multiply
Encoding: 215 215 165
Width: 856
VWidth: 0
Flags: W
HStem: 229 561
VStem: 217 657
LayerCount: 2
Fore
SplineSet
616 510 m 1,0,-1
 778 301 l 1,1,-1
 690 229 l 1,2,-1
 528 438 l 1,3,-1
 272 229 l 1,4,-1
 217 301 l 1,5,-1
 473 510 l 1,6,-1
 313 719 l 1,7,-1
 401 791 l 1,8,-1
 563 582 l 1,9,-1
 819 791 l 1,10,-1
 874 719 l 1,11,-1
 616 510 l 1,0,-1
EndSplineSet
Validated: 1
EndChar

StartChar: Oslash
Encoding: 216 216 166
Width: 1370
VWidth: 0
Flags: W
HStem: -20 102<551 861> 0 43G<332 465> 1352 102<811 1139> 1393 41G<1225 1364>
VStem: 199 176<283 770> 1315 176<653 1159>
AnchorPoint: "top" 997 1434 basechar 0
AnchorPoint: "ogonek" 684 0 basechar 0
AnchorPoint: "bottom" 680 0 basechar 0
LayerCount: 2
Fore
SplineSet
969 1352 m 0,0,1
 860 1352 860 1352 750.5 1276.5 c 128,-1,2
 641 1201 641 1201 559.5 1082 c 128,-1,3
 478 963 478 963 426.5 809.5 c 128,-1,4
 375 656 375 656 375 508 c 0,5,6
 375 328 375 328 463 207 c 1,7,-1
 1157 1296 l 1,8,9
 1071 1352 1071 1352 969 1352 c 0,0,1
1231 1227 m 1,10,-1
 539 135 l 1,11,12
 612 82 612 82 694 82 c 0,13,14
 806 82 806 82 918.5 153.5 c 128,-1,15
 1031 225 1031 225 1118 341 c 128,-1,16
 1205 457 1205 457 1260 615.5 c 128,-1,17
 1315 774 1315 774 1315 938 c 0,18,19
 1315 1115 1315 1115 1231 1227 c 1,10,-1
1225 1405 m 1,20,-1
 1243 1434 l 1,21,-1
 1364 1434 l 1,22,-1
 1313 1354 l 1,23,24
 1491 1220 1491 1220 1491 948 c 0,25,26
 1491 863 1491 863 1475 772 c 128,-1,27
 1459 681 1459 681 1425 586 c 128,-1,28
 1391 491 1391 491 1342.5 403.5 c 128,-1,29
 1294 316 1294 316 1224.5 238.5 c 128,-1,30
 1155 161 1155 161 1072.5 103.5 c 128,-1,31
 990 46 990 46 883.5 13 c 128,-1,32
 777 -20 777 -20 659 -20 c 0,33,34
 549 -20 549 -20 465 20 c 1,35,-1
 453 0 l 1,36,-1
 332 0 l 1,37,-1
 377 72 l 1,38,39
 199 212 199 212 199 489 c 0,40,41
 199 624 199 624 236.5 763 c 128,-1,42
 274 902 274 902 345.5 1025 c 128,-1,43
 417 1148 417 1148 511 1244.5 c 128,-1,44
 605 1341 605 1341 727.5 1397.5 c 128,-1,45
 850 1454 850 1454 981 1454 c 0,46,47
 1118 1454 1118 1454 1225 1405 c 1,20,-1
EndSplineSet
Validated: 1
EndChar

StartChar: oslash
Encoding: 248 248 167
Width: 1013
VWidth: 0
Flags: W
HStem: -20 102<446 668> 819 102<554 775>
VStem: 147 164<154 530> 897 168<366 738>
LayerCount: 2
Fore
SplineSet
1065 594 m 0,0,1
 1065 546 1065 546 1056 492.5 c 128,-1,2
 1047 439 1047 439 1026 378.5 c 128,-1,3
 1005 318 1005 318 974.5 262 c 128,-1,4
 944 206 944 206 896 154 c 128,-1,5
 848 102 848 102 789.5 64 c 128,-1,6
 731 26 731 26 651 3 c 128,-1,7
 571 -20 571 -20 479 -20 c 0,8,9
 431 -20 431 -20 379 -10 c 1,10,-1
 319 -102 l 1,11,-1
 199 -102 l 1,12,-1
 281 27 l 1,13,14
 147 108 147 108 147 301 c 0,15,16
 147 430 147 430 197.5 547.5 c 128,-1,17
 248 665 248 665 327 745.5 c 128,-1,18
 406 826 406 826 504 874 c 128,-1,19
 602 922 602 922 696 922 c 0,20,21
 770 922 770 922 838 903 c 1,22,-1
 901 1004 l 1,23,-1
 1022 1004 l 1,24,-1
 932 862 l 1,25,26
 1065 778 1065 778 1065 594 c 0,0,1
532 82 m 0,27,28
 608 82 608 82 677.5 127.5 c 128,-1,29
 747 173 747 173 794 244.5 c 128,-1,30
 841 316 841 316 869 403.5 c 128,-1,31
 897 491 897 491 897 575 c 0,32,33
 897 674 897 674 854 739 c 1,34,-1
 444 94 l 1,35,36
 482 82 482 82 532 82 c 0,27,28
358 150 m 1,37,-1
 776 805 l 1,38,39
 736 819 736 819 702 819 c 0,40,41
 602 819 602 819 511 748 c 128,-1,42
 420 677 420 677 365.5 559 c 128,-1,43
 311 441 311 441 311 311 c 0,44,45
 311 206 311 206 358 150 c 1,37,-1
EndSplineSet
Validated: 1
EndChar

StartChar: AE
Encoding: 198 198 168
Width: 1730
VWidth: 0
Flags: W
HStem: 0 102<984 1647> 410 102<507 881> 799 102<1168 1613> 1331 103<994 1093 1267 1921>
AnchorPoint: "horn" 1889 1384 basechar 0
AnchorPoint: "ogonek" 1515 0 basechar 0
AnchorPoint: "cedilla" 1008 0 basechar 0
AnchorPoint: "bottom" 983 0 basechar 0
AnchorPoint: "top" 1277 1434 basechar 0
LayerCount: 2
Fore
SplineSet
904 512 m 1,0,-1
 1093 1331 l 1,1,-1
 994 1331 l 1,2,-1
 507 512 l 1,3,-1
 904 512 l 1,0,-1
881 410 m 1,4,-1
 447 410 l 1,5,-1
 203 0 l 1,6,-1
 39 0 l 1,7,-1
 892 1434 l 1,8,-1
 1945 1434 l 1,9,-1
 1921 1331 l 1,10,-1
 1267 1331 l 1,11,-1
 1168 901 l 1,12,-1
 1637 901 l 1,13,-1
 1613 799 l 1,14,-1
 1144 799 l 1,15,-1
 984 102 l 1,16,-1
 1671 102 l 1,17,-1
 1647 0 l 1,18,-1
 786 0 l 1,19,-1
 881 410 l 1,4,-1
EndSplineSet
Validated: 1
EndChar

StartChar: ae
Encoding: 230 230 169
Width: 1570
VWidth: 0
Flags: W
HStem: -20 102<359 691 1023 1340> 451 102<971 1479> 520 102<433 779> 819 102<455 786 1158 1420>
VStem: 127 170<145 398> 758 166<182 449> 1479 160<553 758>
AnchorPoint: "bottom" 825 0 basechar 0
AnchorPoint: "top" 1026 997 basechar 0
LayerCount: 2
Fore
SplineSet
127 211 m 0,0,1
 127 296 127 296 158 370.5 c 128,-1,2
 189 445 189 445 246.5 501.5 c 128,-1,3
 304 558 304 558 392 590.5 c 128,-1,4
 480 623 480 623 588 623 c 0,5,6
 689 623 689 623 805 606 c 1,7,8
 813 647 813 647 813 688 c 0,9,10
 813 759 813 759 772 789 c 128,-1,11
 731 819 731 819 631 819 c 0,12,13
 515 819 515 819 356 723 c 1,14,-1
 281 829 l 1,15,16
 482 922 482 922 625 922 c 0,17,18
 789 922 789 922 867 890.5 c 128,-1,19
 945 859 945 859 965 776 c 1,20,21
 1041 845 1041 845 1129.5 883.5 c 128,-1,22
 1218 922 1218 922 1303 922 c 0,23,24
 1387 922 1387 922 1453 893.5 c 128,-1,25
 1519 865 1519 865 1558.5 815.5 c 128,-1,26
 1598 766 1598 766 1618 704 c 128,-1,27
 1638 642 1638 642 1638 571 c 0,28,29
 1638 523 1638 523 1624 451 c 1,30,-1
 936 451 l 1,31,32
 924 395 924 395 924 340 c 0,33,34
 924 220 924 220 992 151 c 128,-1,35
 1060 82 1060 82 1180 82 c 0,36,37
 1327 82 1327 82 1434 205 c 1,38,-1
 1546 158 l 1,39,40
 1462 76 1462 76 1354.5 28 c 128,-1,41
 1247 -20 1247 -20 1126 -20 c 0,42,43
 936 -20 936 -20 840 90 c 1,44,45
 751 38 751 38 643 9 c 128,-1,46
 535 -20 535 -20 440 -20 c 0,47,48
 127 -20 127 -20 127 211 c 0,0,1
782 498 m 1,49,50
 692 520 692 520 596 520 c 0,51,52
 467 520 467 520 382 443 c 128,-1,53
 297 366 297 366 297 258 c 0,54,55
 297 178 297 178 354 130 c 128,-1,56
 411 82 411 82 494 82 c 0,57,58
 640 82 640 82 788 172 c 1,59,60
 758 240 758 240 758 326 c 0,61,62
 758 400 758 400 776 471 c 1,63,-1
 782 498 l 1,49,50
971 553 m 1,64,-1
 1477 553 l 1,65,66
 1479 567 1479 567 1479 594 c 0,67,68
 1479 697 1479 697 1436.5 758 c 128,-1,69
 1394 819 1394 819 1309 819 c 0,70,71
 1205 819 1205 819 1113.5 744.5 c 128,-1,72
 1022 670 1022 670 971 553 c 1,64,-1
EndSplineSet
Validated: 1
EndChar

StartChar: eth
Encoding: 240 240 170
Width: 1007
VWidth: 0
Flags: W
HStem: -20 102<422 693> 819 102<578 856>
VStem: 172 166<174 544> 897 168<382 774>
AnchorPoint: "top" 866 1434 basechar 0
AnchorPoint: "bottom" 485 0 basechar 0
LayerCount: 2
Fore
SplineSet
172 330 m 0,0,1
 172 400 172 400 193 478.5 c 128,-1,2
 214 557 214 557 258.5 636.5 c 128,-1,3
 303 716 303 716 364.5 779 c 128,-1,4
 426 842 426 842 516 882 c 128,-1,5
 606 922 606 922 709 922 c 128,-1,6
 812 922 812 922 889 883 c 1,7,8
 856 1025 856 1025 770 1133 c 1,9,-1
 643 1044 l 1,10,-1
 608 1100 l 1,11,-1
 727 1184 l 1,12,13
 690 1224 690 1224 612 1286 c 1,14,-1
 737 1380 l 1,15,16
 801 1320 801 1320 844 1266 c 1,17,-1
 965 1352 l 1,18,-1
 999 1294 l 1,19,-1
 883 1212 l 1,20,21
 1065 963 1065 963 1065 672 c 0,22,23
 1065 355 1065 355 904.5 167.5 c 128,-1,24
 744 -20 744 -20 492 -20 c 0,25,26
 347 -20 347 -20 259.5 79 c 128,-1,27
 172 178 172 178 172 330 c 0,0,1
897 635 m 0,28,29
 897 734 897 734 854 776.5 c 128,-1,30
 811 819 811 819 715 819 c 0,31,32
 620 819 620 819 531.5 747 c 128,-1,33
 443 675 443 675 390.5 566 c 128,-1,34
 338 457 338 457 338 348 c 0,35,36
 338 236 338 236 392 159 c 128,-1,37
 446 82 446 82 545 82 c 0,38,39
 609 82 609 82 662.5 106.5 c 128,-1,40
 716 131 716 131 751 170 c 128,-1,41
 786 209 786 209 813.5 261.5 c 128,-1,42
 841 314 841 314 856.5 365.5 c 128,-1,43
 872 417 872 417 881.5 472 c 128,-1,44
 891 527 891 527 894 565.5 c 128,-1,45
 897 604 897 604 897 635 c 0,28,29
EndSplineSet
Validated: 1
EndChar

StartChar: Ccedilla
Encoding: 199 199 171
Width: 1325
VWidth: 0
Flags: W
HStem: -401 49<487 667> -164 164<672 725> -20 102<585 956> 1352 102<814 1199>
VStem: 201 176<307 773> 733 129<-312 -182>
AnchorPoint: "top" 1008 1434 basechar 0
LayerCount: 2
Fore
SplineSet
487 -352 m 1,0,1
 529 -352 529 -352 560.5 -350 c 128,-1,2
 592 -348 592 -348 626.5 -341 c 128,-1,3
 661 -334 661 -334 682.5 -322 c 128,-1,4
 704 -310 704 -310 718.5 -289 c 128,-1,5
 733 -268 733 -268 733 -238 c 0,6,7
 733 -206 733 -206 704 -188.5 c 128,-1,8
 675 -171 675 -171 606 -164 c 1,9,-1
 664 -19 l 1,10,11
 578 -13 578 -13 498 22 c 128,-1,12
 418 57 418 57 350.5 119.5 c 128,-1,13
 283 182 283 182 242 283.5 c 128,-1,14
 201 385 201 385 201 510 c 0,15,16
 201 612 201 612 228 722 c 128,-1,17
 255 832 255 832 304 937 c 128,-1,18
 353 1042 353 1042 426.5 1136 c 128,-1,19
 500 1230 500 1230 587 1300.5 c 128,-1,20
 674 1371 674 1371 782.5 1412.5 c 128,-1,21
 891 1454 891 1454 1006 1454 c 0,22,23
 1368 1454 1368 1454 1489 1245 c 1,24,-1
 1321 1178 l 1,25,26
 1239 1352 1239 1352 1012 1352 c 0,27,28
 892 1352 892 1352 785.5 1294 c 128,-1,29
 679 1236 679 1236 606.5 1145 c 128,-1,30
 534 1054 534 1054 480.5 942.5 c 128,-1,31
 427 831 427 831 402 722.5 c 128,-1,32
 377 614 377 614 377 522 c 0,33,34
 377 433 377 433 400 358 c 128,-1,35
 423 283 423 283 461 233 c 128,-1,36
 499 183 499 183 548 148 c 128,-1,37
 597 113 597 113 648 97.5 c 128,-1,38
 699 82 699 82 750 82 c 0,39,40
 990 82 990 82 1149 264 c 1,41,-1
 1257 209 l 1,42,43
 1165 118 1165 118 1039 57.5 c 128,-1,44
 913 -3 913 -3 773 -17 c 1,45,-1
 741 -111 l 1,46,47
 796 -120 796 -120 829 -148.5 c 128,-1,48
 862 -177 862 -177 862 -221 c 0,49,50
 862 -267 862 -267 829 -302.5 c 128,-1,51
 796 -338 796 -338 740.5 -359 c 128,-1,52
 685 -380 685 -380 618 -390.5 c 128,-1,53
 551 -401 551 -401 477 -401 c 1,54,-1
 487 -352 l 1,0,1
EndSplineSet
Validated: 1
EndChar

StartChar: ccedilla
Encoding: 231 231 172
Width: 944
VWidth: 0
Flags: W
HStem: -401 49<303 483> -164 164<487 541> -20 102<419 734> 819 102<553 814>
VStem: 150 166<182 543> 549 129<-312 -182> 872 147<669 756>
AnchorPoint: "top" 735 1004 basechar 0
LayerCount: 2
Fore
SplineSet
303 -352 m 1,0,1
 345 -352 345 -352 376.5 -350 c 128,-1,2
 408 -348 408 -348 442.5 -341 c 128,-1,3
 477 -334 477 -334 498.5 -322 c 128,-1,4
 520 -310 520 -310 534.5 -289 c 128,-1,5
 549 -268 549 -268 549 -238 c 0,6,7
 549 -206 549 -206 520 -188.5 c 128,-1,8
 491 -171 491 -171 422 -164 c 1,9,-1
 480 -19 l 1,10,11
 328 -8 328 -8 239 83.5 c 128,-1,12
 150 175 150 175 150 324 c 0,13,14
 150 443 150 443 199.5 555 c 128,-1,15
 249 667 249 667 327.5 746.5 c 128,-1,16
 406 826 406 826 504 874 c 128,-1,17
 602 922 602 922 696 922 c 0,18,19
 830 922 830 922 912 854.5 c 128,-1,20
 994 787 994 787 1020 676 c 1,21,-1
 872 608 l 1,22,23
 869 705 869 705 826.5 762 c 128,-1,24
 784 819 784 819 702 819 c 0,25,26
 601 819 601 819 510.5 747.5 c 128,-1,27
 420 676 420 676 367.5 565.5 c 128,-1,28
 315 455 315 455 315 340 c 0,29,30
 315 220 315 220 384 151 c 128,-1,31
 453 82 453 82 573 82 c 0,32,33
 720 82 720 82 827 205 c 1,34,-1
 940 158 l 1,35,36
 787 8 787 8 588 -16 c 1,37,-1
 557 -111 l 1,38,39
 612 -120 612 -120 645 -148.5 c 128,-1,40
 678 -177 678 -177 678 -221 c 0,41,42
 678 -267 678 -267 645 -302.5 c 128,-1,43
 612 -338 612 -338 556.5 -359 c 128,-1,44
 501 -380 501 -380 434 -390.5 c 128,-1,45
 367 -401 367 -401 293 -401 c 1,46,-1
 303 -352 l 1,0,1
EndSplineSet
Validated: 1
EndChar

StartChar: Eth
Encoding: 208 208 173
Width: 1216
VWidth: 0
Flags: W
HStem: 0 102<291 782> 700 102<203 254 453 797> 1331 102<573 1062>
VStem: 1157 172<718 1227>
AnchorPoint: "top" 831 1434 basechar 0
AnchorPoint: "bottom" 512 0 basechar 0
LayerCount: 2
Fore
SplineSet
1329 1020 m 0,0,1
 1329 962 1329 962 1319.5 885.5 c 128,-1,2
 1310 809 1310 809 1285.5 710 c 128,-1,3
 1261 611 1261 611 1224.5 514.5 c 128,-1,4
 1188 418 1188 418 1128.5 324 c 128,-1,5
 1069 230 1069 230 995 159 c 128,-1,6
 921 88 921 88 815.5 44 c 128,-1,7
 710 0 710 0 588 0 c 2,8,-1
 92 0 l 1,9,-1
 254 700 l 1,10,-1
 178 700 l 1,11,-1
 203 803 l 1,12,-1
 279 803 l 1,13,-1
 424 1434 l 1,14,-1
 920 1434 l 2,15,16
 1329 1434 1329 1434 1329 1020 c 0,0,1
453 803 m 1,17,-1
 821 803 l 1,18,-1
 797 700 l 1,19,-1
 428 700 l 1,20,-1
 291 102 l 1,21,-1
 643 102 l 2,22,23
 728 102 728 102 804.5 153 c 128,-1,24
 881 204 881 204 935 287 c 128,-1,25
 989 370 989 370 1033 470.5 c 128,-1,26
 1077 571 1077 571 1103.5 676 c 128,-1,27
 1130 781 1130 781 1143.5 870 c 128,-1,28
 1157 959 1157 959 1157 1024 c 0,29,30
 1157 1185 1157 1185 1094 1258 c 128,-1,31
 1031 1331 1031 1331 926 1331 c 2,32,-1
 573 1331 l 1,33,-1
 453 803 l 1,17,-1
EndSplineSet
Validated: 1
EndChar

StartChar: germandbls
Encoding: 223 223 174
Width: 903
VWidth: 0
Flags: W
HStem: -276 102<-79 31> 799 102<465 756> 1270 102<579 874>
VStem: -154 74<-170 -125> 668 166<26 296>
LayerCount: 2
Fore
SplineSet
332 -152 m 1,0,1
 339 -150 339 -150 351 -146.5 c 128,-1,2
 363 -143 363 -143 398 -129.5 c 128,-1,3
 433 -116 433 -116 464.5 -100 c 128,-1,4
 496 -84 496 -84 535 -58 c 128,-1,5
 574 -32 574 -32 602 -3.5 c 128,-1,6
 630 25 630 25 649 64.5 c 128,-1,7
 668 104 668 104 668 147 c 0,8,9
 668 193 668 193 648.5 244 c 128,-1,10
 629 295 629 295 600.5 335 c 128,-1,11
 572 375 572 375 544 408.5 c 128,-1,12
 516 442 516 442 496 460 c 2,13,-1
 477 479 l 1,14,-1
 756 799 l 1,15,-1
 440 799 l 1,16,-1
 246 -43 l 2,17,18
 223 -140 223 -140 145.5 -208 c 128,-1,19
 68 -276 68 -276 -20 -276 c 0,20,21
 -80 -276 -80 -276 -117 -242.5 c 128,-1,22
 -154 -209 -154 -209 -154 -158 c 0,23,24
 -154 -145 -154 -145 -150 -125 c 1,25,-1
 -80 -125 l 1,26,-1
 -80 -133 l 2,27,28
 -80 -151 -80 -151 -65.5 -162.5 c 128,-1,29
 -51 -174 -51 -174 -27 -174 c 0,30,31
 4 -174 4 -174 40.5 -116.5 c 128,-1,32
 77 -59 77 -59 96 20 c 2,33,-1
 291 864 l 2,34,35
 317 978 317 978 336 1045 c 128,-1,36
 355 1112 355 1112 384 1176.5 c 128,-1,37
 413 1241 413 1241 444.5 1273 c 128,-1,38
 476 1305 476 1305 527.5 1330.5 c 128,-1,39
 579 1356 579 1356 642.5 1364 c 128,-1,40
 706 1372 706 1372 799 1372 c 0,41,42
 852 1372 852 1372 903 1357.5 c 128,-1,43
 954 1343 954 1343 985.5 1327 c 128,-1,44
 1017 1311 1017 1311 1069 1280 c 1,45,-1
 942 1174 l 1,46,47
 877 1227 877 1227 835.5 1248.5 c 128,-1,48
 794 1270 794 1270 743 1270 c 0,49,50
 684 1270 684 1270 645.5 1260 c 128,-1,51
 607 1250 607 1250 582 1231.5 c 128,-1,52
 557 1213 557 1213 539.5 1174.5 c 128,-1,53
 522 1136 522 1136 510.5 1093 c 128,-1,54
 499 1050 499 1050 482 977 c 0,55,56
 471 928 471 928 465 901 c 1,57,-1
 985 901 l 1,58,-1
 641 504 l 1,59,60
 834 311 834 311 834 154 c 0,61,62
 834 109 834 109 814 66 c 128,-1,63
 794 23 794 23 761.5 -11.5 c 128,-1,64
 729 -46 729 -46 687 -77.5 c 128,-1,65
 645 -109 645 -109 602 -132 c 128,-1,66
 559 -155 559 -155 516 -174.5 c 128,-1,67
 473 -194 473 -194 440.5 -206 c 128,-1,68
 408 -218 408 -218 386 -226 c 2,69,-1
 365 -233 l 1,70,-1
 332 -152 l 1,0,1
EndSplineSet
Validated: 1
EndChar

StartChar: Scaron
Encoding: 352 352 177
Width: 1198
VWidth: 0
Flags: W
HStem: -20 102<495 829> 1352 102<765 1066> 1384 387
VStem: 207 166<209 350> 430 180<951 1185> 752 479 1024 176<277 545>
AnchorPoint: "cedilla" 598 0 basechar 0
AnchorPoint: "bottom" 602 0 basechar 0
LayerCount: 2
Fore
SplineSet
1200 455 m 0,0,1
 1200 363 1200 363 1157 277.5 c 128,-1,2
 1114 192 1114 192 1036.5 126 c 128,-1,3
 959 60 959 60 841.5 20 c 128,-1,4
 724 -20 724 -20 586 -20 c 0,5,6
 437 -20 437 -20 323.5 91 c 128,-1,7
 210 202 210 202 207 350 c 1,8,-1
 375 381 l 1,9,10
 375 377 375 377 374 367.5 c 128,-1,11
 373 358 373 358 373 354 c 0,12,13
 373 245 373 245 451 163.5 c 128,-1,14
 529 82 529 82 623 82 c 0,15,16
 714 82 714 82 786.5 107.5 c 128,-1,17
 859 133 859 133 902.5 171.5 c 128,-1,18
 946 210 946 210 974.5 258.5 c 128,-1,19
 1003 307 1003 307 1013.5 348.5 c 128,-1,20
 1024 390 1024 390 1024 426 c 0,21,22
 1024 486 1024 486 991 534.5 c 128,-1,23
 958 583 958 583 906 616 c 128,-1,24
 854 649 854 649 790.5 678.5 c 128,-1,25
 727 708 727 708 663.5 739.5 c 128,-1,26
 600 771 600 771 548 807 c 128,-1,27
 496 843 496 843 463 898 c 128,-1,28
 430 953 430 953 430 1022 c 0,29,30
 430 1105 430 1105 470.5 1181.5 c 128,-1,31
 511 1258 511 1258 576 1312.5 c 128,-1,32
 641 1367 641 1367 721 1403.5 c 128,-1,33
 801 1440 801 1440 881 1450 c 1,34,-1
 752 1718 l 1,35,-1
 827 1772 l 1,36,-1
 963 1591 l 1,37,-1
 1180 1772 l 1,38,-1
 1231 1718 l 1,39,-1
 978 1453 l 1,40,41
 1103 1444 1103 1444 1192.5 1381.5 c 128,-1,42
 1282 1319 1282 1319 1319 1225 c 1,43,-1
 1157 1182 l 1,44,45
 1104 1352 1104 1352 897 1352 c 0,46,47
 796 1352 796 1352 703 1259 c 128,-1,48
 610 1166 610 1166 610 1057 c 0,49,50
 610 1010 610 1010 635.5 970.5 c 128,-1,51
 661 931 661 931 702.5 903.5 c 128,-1,52
 744 876 744 876 797 847 c 128,-1,53
 850 818 850 818 905 793.5 c 128,-1,54
 960 769 960 769 1013 735.5 c 128,-1,55
 1066 702 1066 702 1107.5 665 c 128,-1,56
 1149 628 1149 628 1174.5 574 c 128,-1,57
 1200 520 1200 520 1200 455 c 0,0,1
EndSplineSet
Validated: 1
EndChar

StartChar: Scedilla
Encoding: 350 350 178
Width: 1198
VWidth: 0
Flags: W
HStem: -401 49<360 540> -164 164<545 598> -20 102<495 829> 1352 102<765 1066>
VStem: 207 166<209 350> 430 180<951 1185> 606 129<-312 -182> 1024 176<277 545>
AnchorPoint: "top" 926 1434 basechar 0
LayerCount: 2
Fore
SplineSet
360 -352 m 1,0,1
 402 -352 402 -352 433.5 -350 c 128,-1,2
 465 -348 465 -348 499.5 -341 c 128,-1,3
 534 -334 534 -334 555.5 -322 c 128,-1,4
 577 -310 577 -310 591.5 -289 c 128,-1,5
 606 -268 606 -268 606 -238 c 0,6,7
 606 -206 606 -206 577 -188.5 c 128,-1,8
 548 -171 548 -171 479 -164 c 1,9,-1
 538 -17 l 1,10,11
 404 2 404 2 307 108.5 c 128,-1,12
 210 215 210 215 207 350 c 1,13,-1
 375 381 l 1,14,15
 375 377 375 377 374 367.5 c 128,-1,16
 373 358 373 358 373 354 c 0,17,18
 373 245 373 245 451 163.5 c 128,-1,19
 529 82 529 82 623 82 c 0,20,21
 714 82 714 82 786.5 107.5 c 128,-1,22
 859 133 859 133 902.5 171.5 c 128,-1,23
 946 210 946 210 974.5 258.5 c 128,-1,24
 1003 307 1003 307 1013.5 348.5 c 128,-1,25
 1024 390 1024 390 1024 426 c 0,26,27
 1024 486 1024 486 991 534.5 c 128,-1,28
 958 583 958 583 906 616 c 128,-1,29
 854 649 854 649 790.5 678.5 c 128,-1,30
 727 708 727 708 663.5 739.5 c 128,-1,31
 600 771 600 771 548 807 c 128,-1,32
 496 843 496 843 463 898 c 128,-1,33
 430 953 430 953 430 1022 c 0,34,35
 430 1112 430 1112 478 1194.5 c 128,-1,36
 526 1277 526 1277 600.5 1332.5 c 128,-1,37
 675 1388 675 1388 764.5 1421 c 128,-1,38
 854 1454 854 1454 938 1454 c 0,39,40
 1078 1454 1078 1454 1178.5 1390.5 c 128,-1,41
 1279 1327 1279 1327 1319 1225 c 1,42,-1
 1157 1182 l 1,43,44
 1104 1352 1104 1352 897 1352 c 0,45,46
 796 1352 796 1352 703 1259 c 128,-1,47
 610 1166 610 1166 610 1057 c 0,48,49
 610 1010 610 1010 635.5 970.5 c 128,-1,50
 661 931 661 931 702.5 903.5 c 128,-1,51
 744 876 744 876 797 847 c 128,-1,52
 850 818 850 818 905 793.5 c 128,-1,53
 960 769 960 769 1013 735.5 c 128,-1,54
 1066 702 1066 702 1107.5 665 c 128,-1,55
 1149 628 1149 628 1174.5 574 c 128,-1,56
 1200 520 1200 520 1200 455 c 0,57,58
 1200 368 1200 368 1161.5 286.5 c 128,-1,59
 1123 205 1123 205 1053 140 c 128,-1,60
 983 75 983 75 877 32 c 128,-1,61
 771 -11 771 -11 645 -19 c 1,62,-1
 614 -111 l 1,63,64
 669 -120 669 -120 702 -148.5 c 128,-1,65
 735 -177 735 -177 735 -221 c 0,66,67
 735 -267 735 -267 702 -302.5 c 128,-1,68
 669 -338 669 -338 613.5 -359 c 128,-1,69
 558 -380 558 -380 491 -390.5 c 128,-1,70
 424 -401 424 -401 350 -401 c 1,71,-1
 360 -352 l 1,0,1
EndSplineSet
Validated: 1
EndChar

StartChar: Tcaron
Encoding: 356 356 179
Width: 1198
VWidth: 0
Flags: W
HStem: 0 43<532 716> 1331 102<352 840 1014 1526> 1384 387
VStem: 780 479
AnchorPoint: "bottom" 623 0 basechar 0
AnchorPoint: "cedilla" 618 0 basechar 0
LayerCount: 2
Fore
SplineSet
918 1434 m 1,0,-1
 780 1718 l 1,1,-1
 856 1772 l 1,2,-1
 991 1591 l 1,3,-1
 1208 1772 l 1,4,-1
 1260 1718 l 1,5,-1
 989 1434 l 1,6,-1
 1554 1434 l 1,7,-1
 1526 1331 l 1,8,-1
 1014 1331 l 1,9,-1
 707 0 l 1,10,-1
 532 0 l 1,11,-1
 840 1331 l 1,12,-1
 328 1331 l 1,13,-1
 352 1434 l 1,14,-1
 918 1434 l 1,0,-1
EndSplineSet
Validated: 1
EndChar

StartChar: Zcaron
Encoding: 381 381 181
Width: 1075
VWidth: 0
Flags: W
HStem: 0 102<299 963> 1331 102<414 1026> 1384 387
VStem: 649 479
AnchorPoint: "bottom" 528 0 basechar 0
LayerCount: 2
Fore
SplineSet
1026 1331 m 1,0,-1
 358 1331 l 1,1,-1
 414 1434 l 1,2,-1
 787 1434 l 1,3,-1
 649 1718 l 1,4,-1
 725 1772 l 1,5,-1
 860 1591 l 1,6,-1
 1077 1772 l 1,7,-1
 1128 1718 l 1,8,-1
 858 1434 l 1,9,-1
 1286 1434 l 1,10,-1
 299 102 l 1,11,-1
 987 102 l 1,12,-1
 963 0 l 1,13,-1
 41 0 l 1,14,-1
 1026 1331 l 1,0,-1
EndSplineSet
Validated: 1
EndChar

StartChar: scedilla
Encoding: 351 351 186
Width: 860
VWidth: 0
Flags: W
HStem: -401 49<184 364> -164 164<369 422> -20 102<279 603> 819 102<467 723>
VStem: 252 166<581 768> 430 129<-312 -182> 688 168<168 375>
AnchorPoint: "top" 621 1004 basechar 0
LayerCount: 2
Fore
SplineSet
184 -352 m 1,0,1
 226 -352 226 -352 257.5 -350 c 128,-1,2
 289 -348 289 -348 323.5 -341 c 128,-1,3
 358 -334 358 -334 379.5 -322 c 128,-1,4
 401 -310 401 -310 415.5 -289 c 128,-1,5
 430 -268 430 -268 430 -238 c 0,6,7
 430 -206 430 -206 401 -188.5 c 128,-1,8
 372 -171 372 -171 303 -164 c 1,9,-1
 361 -19 l 1,10,11
 301 -15 301 -15 252 4.5 c 128,-1,12
 203 24 203 24 175 45 c 128,-1,13
 147 66 147 66 88 117 c 1,14,-1
 195 193 l 1,15,16
 201 188 201 188 219 173 c 128,-1,17
 237 158 237 158 242 153.5 c 128,-1,18
 247 149 247 149 262 137.5 c 128,-1,19
 277 126 277 126 283.5 122.5 c 128,-1,20
 290 119 290 119 304.5 110.5 c 128,-1,21
 319 102 319 102 328.5 100 c 128,-1,22
 338 98 338 98 353.5 93 c 128,-1,23
 369 88 369 88 383.5 86.5 c 128,-1,24
 398 85 398 85 417 83.5 c 128,-1,25
 436 82 436 82 457 82 c 0,26,27
 518 82 518 82 564 103 c 128,-1,28
 610 124 610 124 632.5 151 c 128,-1,29
 655 178 655 178 668.5 212 c 128,-1,30
 682 246 682 246 685 264.5 c 128,-1,31
 688 283 688 283 688 295 c 0,32,33
 688 350 688 350 640 379.5 c 128,-1,34
 592 409 592 409 506 424 c 1,35,36
 381 449 381 449 316.5 504 c 128,-1,37
 252 559 252 559 252 639 c 0,38,39
 252 687 252 687 276 737 c 128,-1,40
 300 787 300 787 341 828 c 128,-1,41
 382 869 382 869 445 895.5 c 128,-1,42
 508 922 508 922 580 922 c 0,43,44
 683 922 683 922 759.5 891.5 c 128,-1,45
 836 861 836 861 913 795 c 1,46,-1
 776 723 l 1,47,48
 769 730 769 730 747 752 c 128,-1,49
 725 774 725 774 720 778 c 128,-1,50
 715 782 715 782 697.5 794.5 c 128,-1,51
 680 807 680 807 667.5 809.5 c 128,-1,52
 655 812 655 812 634 815.5 c 128,-1,53
 613 819 613 819 586 819 c 0,54,55
 539 819 539 819 503.5 801 c 128,-1,56
 468 783 468 783 451 755.5 c 128,-1,57
 434 728 434 728 426 703.5 c 128,-1,58
 418 679 418 679 418 657 c 0,59,60
 418 573 418 573 553 547 c 0,61,62
 856 488 856 488 856 313 c 0,63,64
 856 274 856 274 843.5 233 c 128,-1,65
 831 192 831 192 801.5 149.5 c 128,-1,66
 772 107 772 107 729 73 c 128,-1,67
 686 39 686 39 618.5 14 c 128,-1,68
 551 -11 551 -11 469 -18 c 1,69,-1
 438 -111 l 1,70,71
 493 -120 493 -120 526 -148.5 c 128,-1,72
 559 -177 559 -177 559 -221 c 0,73,74
 559 -267 559 -267 526 -302.5 c 128,-1,75
 493 -338 493 -338 437.5 -359 c 128,-1,76
 382 -380 382 -380 315 -390.5 c 128,-1,77
 248 -401 248 -401 174 -401 c 1,78,-1
 184 -352 l 1,0,1
EndSplineSet
Validated: 1
EndChar

StartChar: Abreve
Encoding: 258 258 192
Width: 1275
VWidth: 0
Flags: W
HStem: 0 43<31 219 1086 1255> 410 102<500 1024> 1393 41<860 1070> 1516 117<909 1143>
VStem: 805 84<1662 1706>
AnchorPoint: "bottom" 639 0 basechar 0
AnchorPoint: "ogonek" 1092 0 basechar 0
LayerCount: 2
Fore
SplineSet
1092 0 m 1
EndSplineSet
Refer: 97 774 S 1 0 0 1 1288 246 2
Refer: 27 65 N 1 0 0 1 0 0 3
Validated: 1
EndChar

StartChar: Ccaron
Encoding: 268 268 195
Width: 1325
VWidth: 0
Flags: W
HStem: -20 102<585 956> 1352 102<814 1199> 1384 387
VStem: 201 176<307 773> 834 479
AnchorPoint: "cedilla" 717 0 basechar 0
AnchorPoint: "bottom" 717 0 basechar 0
LayerCount: 2
Fore
SplineSet
1012 1352 m 0,0,1
 892 1352 892 1352 785.5 1294 c 128,-1,2
 679 1236 679 1236 606.5 1145 c 128,-1,3
 534 1054 534 1054 480.5 942.5 c 128,-1,4
 427 831 427 831 402 722.5 c 128,-1,5
 377 614 377 614 377 522 c 0,6,7
 377 433 377 433 400 358 c 128,-1,8
 423 283 423 283 461 233 c 128,-1,9
 499 183 499 183 548 148 c 128,-1,10
 597 113 597 113 648 97.5 c 128,-1,11
 699 82 699 82 750 82 c 0,12,13
 990 82 990 82 1149 264 c 1,14,-1
 1257 209 l 1,15,16
 1153 106 1153 106 1005 43 c 128,-1,17
 857 -20 857 -20 696 -20 c 0,18,19
 626 -20 626 -20 557 -0.5 c 128,-1,20
 488 19 488 19 423.5 61.5 c 128,-1,21
 359 104 359 104 310 164.5 c 128,-1,22
 261 225 261 225 231 314.5 c 128,-1,23
 201 404 201 404 201 510 c 0,24,25
 201 629 201 629 236.5 757 c 128,-1,26
 272 885 272 885 340 1004.5 c 128,-1,27
 408 1124 408 1124 499 1221.5 c 128,-1,28
 590 1319 590 1319 711 1381.5 c 128,-1,29
 832 1444 832 1444 962 1453 c 1,30,-1
 834 1718 l 1,31,-1
 909 1772 l 1,32,-1
 1044 1591 l 1,33,-1
 1262 1772 l 1,34,-1
 1313 1718 l 1,35,-1
 1060 1453 l 1,36,37
 1377 1439 1377 1439 1489 1245 c 1,38,-1
 1321 1178 l 1,39,40
 1239 1352 1239 1352 1012 1352 c 0,0,1
EndSplineSet
Validated: 1
EndChar

StartChar: Ecaron
Encoding: 282 282 196
Width: 962
VWidth: 0
Flags: W
HStem: 0 102<281 942> 799 102<465 909> 1331 102<563 1217> 1384 387
VStem: 680 479
AnchorPoint: "bottom" 537 0 basechar 0
AnchorPoint: "ogonek" 754 0 basechar 0
LayerCount: 2
Fore
SplineSet
942 0 m 1,0,-1
 82 0 l 1,1,-1
 414 1434 l 1,2,-1
 818 1434 l 1,3,-1
 680 1718 l 1,4,-1
 756 1772 l 1,5,-1
 891 1591 l 1,6,-1
 1108 1772 l 1,7,-1
 1159 1718 l 1,8,-1
 888 1434 l 1,9,-1
 1241 1434 l 1,10,-1
 1217 1331 l 1,11,-1
 563 1331 l 1,12,-1
 465 901 l 1,13,-1
 934 901 l 1,14,-1
 909 799 l 1,15,-1
 440 799 l 1,16,-1
 281 102 l 1,17,-1
 967 102 l 1,18,-1
 942 0 l 1,0,-1
EndSplineSet
Validated: 1
EndChar

StartChar: Dcaron
Encoding: 270 270 197
Width: 1216
VWidth: 0
Flags: W
HStem: 0 102<291 782> 1331 102<573 1062> 1384 387
VStem: 657 479 1157 172<718 1227>
AnchorPoint: "bottom" 512 0 basechar 0
LayerCount: 2
Fore
SplineSet
573 1331 m 1,0,-1
 291 102 l 1,1,-1
 643 102 l 2,2,3
 728 102 728 102 804.5 153 c 128,-1,4
 881 204 881 204 935 287 c 128,-1,5
 989 370 989 370 1033 470.5 c 128,-1,6
 1077 571 1077 571 1103.5 676 c 128,-1,7
 1130 781 1130 781 1143.5 870 c 128,-1,8
 1157 959 1157 959 1157 1024 c 0,9,10
 1157 1185 1157 1185 1094 1258 c 128,-1,11
 1031 1331 1031 1331 926 1331 c 2,12,-1
 573 1331 l 1,0,-1
1329 1020 m 0,13,14
 1329 962 1329 962 1319.5 885.5 c 128,-1,15
 1310 809 1310 809 1285.5 710 c 128,-1,16
 1261 611 1261 611 1224.5 514.5 c 128,-1,17
 1188 418 1188 418 1128.5 324 c 128,-1,18
 1069 230 1069 230 995 159 c 128,-1,19
 921 88 921 88 815.5 44 c 128,-1,20
 710 0 710 0 588 0 c 2,21,-1
 92 0 l 1,22,-1
 424 1434 l 1,23,-1
 795 1434 l 1,24,-1
 657 1718 l 1,25,-1
 733 1772 l 1,26,-1
 868 1591 l 1,27,-1
 1085 1772 l 1,28,-1
 1137 1718 l 1,29,-1
 866 1434 l 1,30,-1
 920 1434 l 2,31,32
 1329 1434 1329 1434 1329 1020 c 0,13,14
EndSplineSet
Validated: 1
EndChar

StartChar: Rcaron
Encoding: 344 344 202
Width: 1101
VWidth: 0
Flags: W
HStem: 0 43<92 276 819 991> 655 102<440 679> 1331 102<573 969> 1384 387
VStem: 637 479 829 170<0 381> 1032 174<954 1271>
AnchorPoint: "cedilla" 508 0 basechar 0
AnchorPoint: "bottom" 512 0 basechar 0
LayerCount: 2
Fore
SplineSet
573 1331 m 1,0,-1
 440 758 l 1,1,-1
 717 758 l 2,2,3
 807 758 807 758 881 816 c 128,-1,4
 955 874 955 874 993.5 958 c 128,-1,5
 1032 1042 1032 1042 1032 1128 c 0,6,7
 1032 1215 1032 1215 988.5 1273 c 128,-1,8
 945 1331 945 1331 850 1331 c 2,9,-1
 573 1331 l 1,0,-1
845 1434 m 1,10,11
 943 1434 943 1434 1016 1407 c 128,-1,12
 1089 1380 1089 1380 1129 1335 c 128,-1,13
 1169 1290 1169 1290 1187.5 1238.5 c 128,-1,14
 1206 1187 1206 1187 1206 1128 c 0,15,16
 1206 1064 1206 1064 1181.5 996.5 c 128,-1,17
 1157 929 1157 929 1112 867.5 c 128,-1,18
 1067 806 1067 806 995 755.5 c 128,-1,19
 923 705 923 705 836 680 c 1,20,21
 900 597 900 597 949.5 429.5 c 128,-1,22
 999 262 999 262 999 117 c 0,23,24
 999 53 999 53 987 0 c 1,25,-1
 819 0 l 1,26,27
 829 41 829 41 829 106 c 0,28,29
 829 253 829 253 773 418.5 c 128,-1,30
 717 584 717 584 641 655 c 1,31,-1
 418 655 l 1,32,-1
 266 0 l 1,33,-1
 92 0 l 1,34,-1
 424 1434 l 1,35,-1
 775 1434 l 1,36,-1
 637 1718 l 1,37,-1
 713 1772 l 1,38,-1
 848 1591 l 1,39,-1
 1065 1772 l 1,40,-1
 1116 1718 l 1,41,-1
 845 1434 l 1,10,11
EndSplineSet
Validated: 1
EndChar

StartChar: Tcommaaccent
Encoding: 354 354 205
Width: 1198
VWidth: 0
Flags: W
HStem: -401 49<381 560> -164 164<565 619> 0 43<532 716> 1331 102<352 840 1014 1526>
VStem: 627 129<-312 -182>
AnchorPoint: "top" 954 1434 basechar 0
LayerCount: 2
Fore
SplineSet
381 -352 m 1,0,1
 423 -352 423 -352 454.5 -350 c 128,-1,2
 486 -348 486 -348 520.5 -341 c 128,-1,3
 555 -334 555 -334 576.5 -322 c 128,-1,4
 598 -310 598 -310 612.5 -289 c 128,-1,5
 627 -268 627 -268 627 -238 c 0,6,7
 627 -206 627 -206 598 -188.5 c 128,-1,8
 569 -171 569 -171 500 -164 c 1,9,-1
 565 0 l 1,10,-1
 532 0 l 1,11,-1
 840 1331 l 1,12,-1
 328 1331 l 1,13,-1
 352 1434 l 1,14,-1
 1554 1434 l 1,15,-1
 1526 1331 l 1,16,-1
 1014 1331 l 1,17,-1
 707 0 l 1,18,-1
 672 0 l 1,19,-1
 635 -111 l 1,20,21
 690 -120 690 -120 723 -148.5 c 128,-1,22
 756 -177 756 -177 756 -221 c 0,23,24
 756 -267 756 -267 723 -302.5 c 128,-1,25
 690 -338 690 -338 634.5 -359 c 128,-1,26
 579 -380 579 -380 512 -390.5 c 128,-1,27
 445 -401 445 -401 371 -401 c 1,28,-1
 381 -352 l 1,0,1
EndSplineSet
Validated: 1
EndChar

StartChar: tcommaaccent
Encoding: 355 355 219
Width: 577
VWidth: 0
Flags: W
HStem: -401 49<139 319> -164 164<324 377> -20 102<346 523> 799 102<291 371 559 696>
VStem: 229 174<85 272> 385 129<-312 -182> 524 70<93 131>
AnchorPoint: "top" 582 1352 basechar 0
LayerCount: 2
Fore
SplineSet
139 -352 m 1,0,1
 181 -352 181 -352 212.5 -350 c 128,-1,2
 244 -348 244 -348 278.5 -341 c 128,-1,3
 313 -334 313 -334 334.5 -322 c 128,-1,4
 356 -310 356 -310 370.5 -289 c 128,-1,5
 385 -268 385 -268 385 -238 c 0,6,7
 385 -206 385 -206 356 -188.5 c 128,-1,8
 327 -171 327 -171 258 -164 c 1,9,-1
 322 -5 l 1,10,11
 279 15 279 15 254 58 c 128,-1,12
 229 101 229 101 229 156 c 0,13,14
 229 178 229 178 236 213 c 1,15,-1
 371 799 l 1,16,-1
 236 799 l 1,17,-1
 291 901 l 1,18,-1
 395 901 l 1,19,-1
 463 1198 l 1,20,-1
 635 1229 l 1,21,-1
 559 901 l 1,22,-1
 721 901 l 1,23,-1
 696 799 l 1,24,-1
 535 799 l 1,25,-1
 414 276 l 2,26,27
 403 228 403 228 403 182 c 0,28,29
 403 82 403 82 446 82 c 0,30,31
 474 82 474 82 496.5 96.5 c 128,-1,32
 519 111 519 111 524 131 c 1,33,-1
 594 131 l 1,34,35
 581 75 581 75 533 33 c 128,-1,36
 485 -9 485 -9 424 -18 c 1,37,-1
 393 -111 l 1,38,39
 448 -120 448 -120 481 -148.5 c 128,-1,40
 514 -177 514 -177 514 -221 c 0,41,42
 514 -267 514 -267 481 -302.5 c 128,-1,43
 448 -338 448 -338 392.5 -359 c 128,-1,44
 337 -380 337 -380 270 -390.5 c 128,-1,45
 203 -401 203 -401 129 -401 c 1,46,-1
 139 -352 l 1,0,1
EndSplineSet
Validated: 1
EndChar

StartChar: Aogonek
Encoding: 260 260 220
Width: 1275
VWidth: 0
Flags: W
HStem: -319 37<979 1071> 0 43<31 219 1086 1255> 410 102<500 1024> 1393 41<860 1070>
VStem: 817 119<-266 -112>
AnchorPoint: "bottom" 588 -287 basechar 0
AnchorPoint: "top" 975 1434 basechar 0
LayerCount: 2
Fore
SplineSet
928 1231 m 1,0,-1
 500 512 l 1,1,-1
 1024 512 l 1,2,-1
 928 1231 l 1,0,-1
31 0 m 1,3,-1
 885 1434 l 1,4,-1
 1065 1434 l 1,5,-1
 1255 0 l 1,6,-1
 1092 0 l 1,7,8
 1069 -10 1069 -10 1047.5 -23.5 c 128,-1,9
 1026 -37 1026 -37 998 -60.5 c 128,-1,10
 970 -84 970 -84 953 -119 c 128,-1,11
 936 -154 936 -154 936 -195 c 0,12,13
 936 -239 936 -239 968.5 -261 c 128,-1,14
 1001 -283 1001 -283 1079 -283 c 1,15,-1
 1071 -319 l 1,16,17
 932 -319 932 -319 874.5 -286.5 c 128,-1,18
 817 -254 817 -254 817 -207 c 0,19,20
 817 -142 817 -142 899.5 -75.5 c 128,-1,21
 982 -9 982 -9 1089 22 c 1,22,-1
 1036 410 l 1,23,-1
 438 410 l 1,24,-1
 195 0 l 1,25,-1
 31 0 l 1,3,-1
EndSplineSet
Validated: 1
EndChar

StartChar: Eogonek
Encoding: 280 280 221
Width: 962
VWidth: 0
Flags: W
HStem: -319 37<642 733> 0 102<281 942> 799 102<465 909> 1331 102<563 1217>
VStem: 479 119<-266 -112>
AnchorPoint: "bottom" 369 -287 basechar 0
AnchorPoint: "top" 854 1434 basechar 0
LayerCount: 2
Fore
SplineSet
754 0 m 1,0,1
 731 -10 731 -10 709.5 -23.5 c 128,-1,2
 688 -37 688 -37 660 -60.5 c 128,-1,3
 632 -84 632 -84 615 -119 c 128,-1,4
 598 -154 598 -154 598 -195 c 0,5,6
 598 -239 598 -239 630.5 -261 c 128,-1,7
 663 -283 663 -283 741 -283 c 1,8,-1
 733 -319 l 1,9,10
 594 -319 594 -319 536.5 -286.5 c 128,-1,11
 479 -254 479 -254 479 -207 c 0,12,13
 479 -152 479 -152 539.5 -94.5 c 128,-1,14
 600 -37 600 -37 688 0 c 1,15,-1
 82 0 l 1,16,-1
 414 1434 l 1,17,-1
 1241 1434 l 1,18,-1
 1217 1331 l 1,19,-1
 563 1331 l 1,20,-1
 465 901 l 1,21,-1
 934 901 l 1,22,-1
 909 799 l 1,23,-1
 440 799 l 1,24,-1
 281 102 l 1,25,-1
 967 102 l 1,26,-1
 942 0 l 1,27,-1
 754 0 l 1,0,1
EndSplineSet
Validated: 1
EndChar

StartChar: aogonek
Encoding: 261 261 222
Width: 1058
VWidth: 0
Flags: W
HStem: -319 37<791 883> -20 102<366 693 846 1001> 819 102<532 850>
VStem: 154 158<136 521> 629 119<-266 -112> 711 172<113 272> 1004 72<93 131>
AnchorPoint: "bottom" 369 -287 basechar 0
AnchorPoint: "top" 731 1004 basechar 0
LayerCount: 2
Fore
SplineSet
852 797 m 1,0,1
 791 819 791 819 688 819 c 0,2,3
 616 819 616 819 556 789 c 128,-1,4
 496 759 496 759 456.5 709 c 128,-1,5
 417 659 417 659 387 600.5 c 128,-1,6
 357 542 357 542 341.5 479.5 c 128,-1,7
 326 417 326 417 318.5 368.5 c 128,-1,8
 311 320 311 320 311 283 c 0,9,10
 311 175 311 175 362 128.5 c 128,-1,11
 413 82 413 82 494 82 c 0,12,13
 604 82 604 82 711 131 c 1,14,-1
 711 156 l 2,15,16
 711 183 711 183 717 213 c 2,17,-1
 852 797 l 1,0,1
154 309 m 0,18,19
 154 420 154 420 203 533.5 c 128,-1,20
 252 647 252 647 327 731.5 c 128,-1,21
 402 816 402 816 497.5 869 c 128,-1,22
 593 922 593 922 682 922 c 0,23,24
 761 922 761 922 830 908 c 128,-1,25
 899 894 899 894 936 879 c 128,-1,26
 973 864 973 864 1024 838 c 1,27,-1
 895 276 l 2,28,29
 883 223 883 223 883 178 c 0,30,31
 883 135 883 135 894.5 108.5 c 128,-1,32
 906 82 906 82 926 82 c 0,33,34
 954 82 954 82 976.5 96.5 c 128,-1,35
 999 111 999 111 1004 131 c 1,36,-1
 1075 131 l 1,37,38
 1062 68 1062 68 1002.5 24 c 128,-1,39
 943 -20 943 -20 874 -20 c 2,40,-1
 864 -20 l 1,41,42
 748 -88 748 -88 748 -195 c 0,43,44
 748 -239 748 -239 780.5 -261 c 128,-1,45
 813 -283 813 -283 891 -283 c 1,46,-1
 883 -319 l 1,47,48
 744 -319 744 -319 686.5 -286.5 c 128,-1,49
 629 -254 629 -254 629 -207 c 0,50,51
 629 -156 629 -156 682 -102.5 c 128,-1,52
 735 -49 735 -49 815 -10 c 1,53,54
 770 7 770 7 743 43 c 1,55,56
 592 -20 592 -20 440 -20 c 0,57,58
 308 -20 308 -20 231 72.5 c 128,-1,59
 154 165 154 165 154 309 c 0,18,19
EndSplineSet
Validated: 1
EndChar

StartChar: eogonek
Encoding: 281 281 223
Width: 964
VWidth: 0
Flags: W
HStem: -319 37<447 539> -20 102<419 734> 451 102<362 869> 819 102<551 814>
VStem: 150 166<182 446> 285 119<-266 -112> 872 160<556 758>
AnchorPoint: "bottom" 481 -287 basechar 0
AnchorPoint: "top" 733 1004 basechar 0
LayerCount: 2
Fore
SplineSet
362 553 m 1,0,-1
 786 553 l 2,1,2
 831 553 831 553 851.5 562.5 c 128,-1,3
 872 572 872 572 872 596 c 0,4,5
 872 699 872 699 829.5 759 c 128,-1,6
 787 819 787 819 702 819 c 0,7,8
 598 819 598 819 506.5 744.5 c 128,-1,9
 415 670 415 670 362 553 c 1,0,-1
1032 571 m 0,10,11
 1032 451 1032 451 844 451 c 2,12,-1
 328 451 l 1,13,14
 315 391 315 391 315 340 c 0,15,16
 315 220 315 220 384 151 c 128,-1,17
 453 82 453 82 573 82 c 0,18,19
 720 82 720 82 827 205 c 1,20,-1
 940 158 l 1,21,22
 856 76 856 76 748.5 28 c 128,-1,23
 641 -20 641 -20 520 -20 c 2,24,-1
 519 -20 l 1,25,26
 403 -88 403 -88 403 -195 c 0,27,28
 403 -239 403 -239 436 -261 c 128,-1,29
 469 -283 469 -283 547 -283 c 1,30,-1
 539 -319 l 1,31,32
 400 -319 400 -319 342.5 -286.5 c 128,-1,33
 285 -254 285 -254 285 -207 c 0,34,35
 285 -158 285 -158 333.5 -107 c 128,-1,36
 382 -56 382 -56 457 -17 c 1,37,38
 315 0 315 0 232.5 90.5 c 128,-1,39
 150 181 150 181 150 324 c 0,40,41
 150 443 150 443 199.5 555 c 128,-1,42
 249 667 249 667 327.5 746.5 c 128,-1,43
 406 826 406 826 504 874 c 128,-1,44
 602 922 602 922 696 922 c 0,45,46
 780 922 780 922 846 893.5 c 128,-1,47
 912 865 912 865 952 815.5 c 128,-1,48
 992 766 992 766 1012 704 c 128,-1,49
 1032 642 1032 642 1032 571 c 0,10,11
EndSplineSet
Validated: 1
EndChar

StartChar: Lslash
Encoding: 321 321 224
Width: 1052
VWidth: 0
Flags: W
HStem: 0 102<281 942> 1393 41G<404 588>
AnchorPoint: "top" 680 1434 basechar 0
AnchorPoint: "bottom" 512 0 basechar 0
AnchorPoint: "cedilla" 504 0 basechar 0
LayerCount: 2
Fore
SplineSet
281 102 m 1,0,-1
 967 102 l 1,1,-1
 942 0 l 1,2,-1
 82 0 l 1,3,-1
 252 735 l 1,4,-1
 125 670 l 1,5,-1
 80 762 l 1,6,-1
 283 864 l 1,7,-1
 414 1434 l 1,8,-1
 588 1434 l 1,9,-1
 479 967 l 1,10,-1
 606 1030 l 1,11,-1
 651 938 l 1,12,-1
 451 836 l 1,13,-1
 281 102 l 1,0,-1
EndSplineSet
Validated: 1
EndChar

StartChar: lslash
Encoding: 322 322 225
Width: 495
VWidth: 0
Flags: W
HStem: -20 102<252 428>
VStem: 135 174<85 272> 430 70<93 131>
AnchorPoint: "top" 506 1434 basechar 0
AnchorPoint: "cedilla" 287 -4 basechar 0
AnchorPoint: "bottom" 172 0 basechar 0
LayerCount: 2
Fore
SplineSet
319 276 m 2,0,1
 309 232 309 232 309 182 c 0,2,3
 309 82 309 82 352 82 c 0,4,5
 380 82 380 82 402.5 96.5 c 128,-1,6
 425 111 425 111 430 131 c 1,7,-1
 500 131 l 1,8,9
 487 68 487 68 428.5 24 c 128,-1,10
 370 -20 370 -20 301 -20 c 0,11,12
 228 -20 228 -20 181.5 29.5 c 128,-1,13
 135 79 135 79 135 156 c 0,14,15
 135 183 135 183 141 213 c 2,16,-1
 262 739 l 1,17,-1
 125 670 l 1,18,-1
 80 762 l 1,19,-1
 293 870 l 1,20,-1
 403 1352 l 1,21,-1
 567 1352 l 1,22,-1
 477 965 l 1,23,-1
 606 1030 l 1,24,-1
 651 938 l 1,25,-1
 449 834 l 1,26,-1
 319 276 l 2,0,1
EndSplineSet
Validated: 1
EndChar

StartChar: dcroat
Encoding: 273 273 226
Width: 1142
VWidth: 0
Flags: W
HStem: -20 102<404 666 925 1088> 819 102<556 809> 1085 102<805 1001 1190 1266>
VStem: 150 168<174 538> 866 102<182 586> 1090 70<93 131>
AnchorPoint: "top" 735 1004 basechar 0
AnchorPoint: "bottom" 485 0 basechar 0
LayerCount: 2
Fore
SplineSet
524 82 m 128,-1,1
 623 82 623 82 702.5 153 c 128,-1,2
 782 224 782 224 824 338.5 c 128,-1,3
 866 453 866 453 866 586 c 0,4,5
 866 691 866 691 825.5 755 c 128,-1,6
 785 819 785 819 694 819 c 0,7,8
 599 819 599 819 510.5 747 c 128,-1,9
 422 675 422 675 369.5 566 c 128,-1,10
 317 457 317 457 317 348 c 0,11,12
 317 236 317 236 371 159 c 128,-1,0
 425 82 425 82 524 82 c 128,-1,1
150 317 m 0,13,14
 150 420 150 420 189.5 527 c 128,-1,15
 229 634 229 634 297.5 722 c 128,-1,16
 366 810 366 810 469 866 c 128,-1,17
 572 922 572 922 688 922 c 0,18,19
 846 922 846 922 942 823 c 1,20,-1
 1001 1085 l 1,21,-1
 780 1085 l 1,22,-1
 805 1188 l 1,23,-1
 1026 1188 l 1,24,-1
 1063 1352 l 1,25,-1
 1227 1352 l 1,26,-1
 1190 1188 l 1,27,-1
 1290 1188 l 1,28,-1
 1266 1085 l 1,29,-1
 1165 1085 l 1,30,-1
 979 276 l 2,31,32
 969 232 969 232 969 182 c 0,33,34
 969 82 969 82 1012 82 c 0,35,36
 1040 82 1040 82 1062.5 96.5 c 128,-1,37
 1085 111 1085 111 1090 131 c 1,38,-1
 1159 131 l 1,39,40
 1146 68 1146 68 1088 24 c 128,-1,41
 1030 -20 1030 -20 961 -20 c 0,42,43
 908 -20 908 -20 868 6.5 c 128,-1,44
 828 33 828 33 809 78 c 1,45,46
 677 -20 677 -20 471 -20 c 0,47,48
 317 -20 317 -20 233.5 73 c 128,-1,49
 150 166 150 166 150 317 c 0,13,14
EndSplineSet
Validated: 1
EndChar

StartChar: Hbar
Encoding: 294 294 246
Width: 1189
VWidth: 0
Flags: W
HStem: 0 43G<82 265 915 1099> 717 102<444 1081> 1159 102<291 350 547 1184 1380 1440> 1393 41G<404 588 1237 1421>
AnchorPoint: "top" 926 1434 basechar 0
AnchorPoint: "bottom" 582 0 basechar 0
LayerCount: 2
Fore
SplineSet
350 1159 m 1,0,-1
 268 1159 l 1,1,-1
 291 1262 l 1,2,-1
 373 1262 l 1,3,-1
 414 1434 l 1,4,-1
 588 1434 l 1,5,-1
 547 1262 l 1,6,-1
 1206 1262 l 1,7,-1
 1247 1434 l 1,8,-1
 1421 1434 l 1,9,-1
 1380 1262 l 1,10,-1
 1462 1262 l 1,11,-1
 1440 1159 l 1,12,-1
 1358 1159 l 1,13,-1
 1090 0 l 1,14,-1
 915 0 l 1,15,-1
 1081 717 l 1,16,-1
 422 717 l 1,17,-1
 256 0 l 1,18,-1
 82 0 l 1,19,-1
 350 1159 l 1,0,-1
1184 1159 m 1,20,-1
 524 1159 l 1,21,-1
 444 819 l 1,22,-1
 1104 819 l 1,23,-1
 1184 1159 l 1,20,-1
EndSplineSet
Validated: 1
EndChar

StartChar: hbar
Encoding: 295 295 247
Width: 972
VWidth: 0
Flags: W
HStem: 0 43G<143 317 780 954> 819 102<560 873> 1085 102<299 393 586 760>
VStem: 913 164<389 778>
AnchorPoint: "bottom" 549 0 basechar 0
LayerCount: 2
Fore
SplineSet
393 1085 m 1,0,-1
 274 1085 l 1,1,-1
 299 1188 l 1,2,-1
 416 1188 l 1,3,-1
 455 1352 l 1,4,-1
 627 1352 l 1,5,-1
 586 1188 l 1,6,-1
 784 1188 l 1,7,-1
 760 1085 l 1,8,-1
 561 1085 l 1,9,-1
 508 870 l 1,10,11
 621 922 621 922 729 922 c 0,12,13
 1077 922 1077 922 1077 641 c 0,14,15
 1077 584 1077 584 1057 492 c 1,16,-1
 944 0 l 1,17,-1
 780 0 l 1,18,-1
 889 467 l 1,19,20
 913 575 913 575 913 643 c 0,21,22
 913 741 913 741 867.5 780 c 128,-1,23
 822 819 822 819 735 819 c 0,24,25
 608 819 608 819 475 723 c 1,26,-1
 307 0 l 1,27,-1
 143 0 l 1,28,-1
 393 1085 l 1,0,-1
EndSplineSet
Validated: 1
EndChar

StartChar: Iogonek
Encoding: 302 302 248
Width: 436
VWidth: 0
Flags: W
HStem: -319 37<44 135> 0 43<92 276> 1393 41<414 598>
VStem: -119 119<-266 -112> 92 506
AnchorPoint: "bottom" 106 -287 basechar 0
AnchorPoint: "top" 514 1434 basechar 0
LayerCount: 2
Fore
SplineSet
598 1434 m 1,0,-1
 266 0 l 1,1,-1
 156 0 l 1,2,3
 133 -10 133 -10 111.5 -23.5 c 128,-1,4
 90 -37 90 -37 62 -60.5 c 128,-1,5
 34 -84 34 -84 17 -119 c 128,-1,6
 0 -154 0 -154 0 -195 c 0,7,8
 0 -239 0 -239 32.5 -261 c 128,-1,9
 65 -283 65 -283 143 -283 c 1,10,-1
 135 -319 l 1,11,12
 -4 -319 -4 -319 -61.5 -286.5 c 128,-1,13
 -119 -254 -119 -254 -119 -207 c 0,14,15
 -119 -151 -119 -151 -58 -93.5 c 128,-1,16
 3 -36 3 -36 92 1 c 1,17,-1
 424 1434 l 1,18,-1
 598 1434 l 1,0,-1
EndSplineSet
Validated: 1
EndChar

StartChar: Uogonek
Encoding: 370 370 249
Width: 1306
VWidth: 0
Flags: W
HStem: -319 37<510 602> -20 102<471 807> 1393 41<384 567 1301 1485>
VStem: 176 174<211 687> 348 119<-266 -112> 393 174<1372 1434>
AnchorPoint: "bottom" 537 -287 basechar 0
AnchorPoint: "top" 958 1434 basechar 0
LayerCount: 2
Fore
SplineSet
1311 1434 m 1,0,-1
 1485 1434 l 1,1,-1
 1294 610 l 2,2,3
 1259 461 1259 461 1203.5 348.5 c 128,-1,4
 1148 236 1148 236 1083 167 c 128,-1,5
 1018 98 1018 98 935.5 55 c 128,-1,6
 853 12 853 12 772.5 -4 c 128,-1,7
 692 -20 692 -20 598 -20 c 2,8,-1
 583 -20 l 1,9,10
 467 -88 467 -88 467 -195 c 0,11,12
 467 -239 467 -239 499.5 -261 c 128,-1,13
 532 -283 532 -283 610 -283 c 1,14,-1
 602 -319 l 1,15,16
 463 -319 463 -319 405.5 -286.5 c 128,-1,17
 348 -254 348 -254 348 -207 c 0,18,19
 348 -158 348 -158 397.5 -106.5 c 128,-1,20
 447 -55 447 -55 523 -16 c 1,21,22
 469 -9 469 -9 422 7.5 c 128,-1,23
 375 24 375 24 328.5 56 c 128,-1,24
 282 88 282 88 249.5 132.5 c 128,-1,25
 217 177 217 177 196.5 245 c 128,-1,26
 176 313 176 313 176 397 c 0,27,28
 176 490 176 490 203 610 c 2,29,-1
 393 1434 l 1,30,-1
 567 1434 l 1,31,-1
 377 610 l 1,32,33
 350 487 350 487 350 401 c 0,34,35
 350 325 350 325 369 266 c 128,-1,36
 388 207 388 207 416.5 173 c 128,-1,37
 445 139 445 139 484 118 c 128,-1,38
 523 97 523 97 559 89.5 c 128,-1,39
 595 82 595 82 633 82 c 0,40,41
 684 82 684 82 734 95 c 128,-1,42
 784 108 784 108 842.5 144.5 c 128,-1,43
 901 181 901 181 950.5 238 c 128,-1,44
 1000 295 1000 295 1045.5 390.5 c 128,-1,45
 1091 486 1091 486 1120 610 c 2,46,-1
 1311 1434 l 1,0,-1
EndSplineSet
Validated: 1
EndChar

StartChar: iogonek
Encoding: 303 303 250
Width: 483
VWidth: 0
Flags: W
HStem: -319 37<136 227> -20 102<252 428> 860 41<292 465> 1065 164<377 502>
VStem: -27 119<-266 -112> 135 174<85 272> 430 70<93 131>
AnchorPoint: "bottom" 135 -287 basechar 0
LayerCount: 2
Fore
SplineSet
319 276 m 2,0,1
 309 232 309 232 309 182 c 0,2,3
 309 82 309 82 352 82 c 0,4,5
 380 82 380 82 402.5 96.5 c 128,-1,6
 425 111 425 111 430 131 c 1,7,-1
 500 131 l 1,8,9
 487 68 487 68 428.5 24 c 128,-1,10
 370 -20 370 -20 301 -20 c 0,11,12
 262 -20 262 -20 233 -7 c 1,13,14
 92 -76 92 -76 92 -195 c 0,15,16
 92 -239 92 -239 125 -261 c 128,-1,17
 158 -283 158 -283 236 -283 c 1,18,-1
 227 -319 l 1,19,20
 88 -319 88 -319 30.5 -286.5 c 128,-1,21
 -27 -254 -27 -254 -27 -207 c 0,22,23
 -27 -149 -27 -149 41.5 -87.5 c 128,-1,24
 110 -26 110 -26 205 9 c 1,25,26
 135 59 135 59 135 156 c 0,27,28
 135 183 135 183 141 213 c 2,29,-1
 301 901 l 1,30,-1
 465 901 l 1,31,-1
 319 276 l 2,0,1
377 1229 m 1,32,-1
 541 1229 l 1,33,-1
 502 1065 l 1,34,-1
 338 1065 l 1,35,-1
 377 1229 l 1,32,-1
EndSplineSet
Validated: 1
EndChar

StartChar: uogonek
Encoding: 371 371 251
Width: 1110
VWidth: 0
Flags: W
HStem: -319 37<820 911> -20 102<380 690 896 1055> 860 41<281 455 918 1092>
VStem: 154 172<137 501> 657 119<-266 -112> 762 174<142 374> 1057 70<93 131>
AnchorPoint: "top" 719 1004 basechar 0
AnchorPoint: "bottom" 430 -287 basechar 0
LayerCount: 2
Fore
SplineSet
946 276 m 2,0,1
 936 232 936 232 936 182 c 0,2,3
 936 82 936 82 979 82 c 0,4,5
 1007 82 1007 82 1029.5 96.5 c 128,-1,6
 1052 111 1052 111 1057 131 c 1,7,-1
 1126 131 l 1,8,9
 1113 68 1113 68 1055 24 c 128,-1,10
 997 -20 997 -20 928 -20 c 0,11,12
 907 -20 907 -20 897 -18 c 1,13,14
 776 -87 776 -87 776 -195 c 0,15,16
 776 -239 776 -239 809 -261 c 128,-1,17
 842 -283 842 -283 920 -283 c 1,18,-1
 911 -319 l 1,19,20
 772 -319 772 -319 714.5 -286.5 c 128,-1,21
 657 -254 657 -254 657 -207 c 0,22,23
 657 -154 657 -154 714 -98.5 c 128,-1,24
 771 -43 771 -43 856 -5 c 1,25,26
 810 16 810 16 784 61 c 1,27,28
 714 23 714 23 631 1.5 c 128,-1,29
 548 -20 548 -20 475 -20 c 0,30,31
 309 -20 309 -20 231.5 43.5 c 128,-1,32
 154 107 154 107 154 240 c 0,33,34
 154 311 154 311 176 410 c 1,35,-1
 291 901 l 1,36,-1
 455 901 l 1,37,-1
 346 434 l 2,38,39
 326 350 326 350 326 281 c 0,40,41
 326 171 326 171 379.5 126.5 c 128,-1,42
 433 82 433 82 528 82 c 0,43,44
 646 82 646 82 762 174 c 1,45,46
 762 177 762 177 768 213 c 1,47,-1
 928 901 l 1,48,-1
 1092 901 l 1,49,-1
 946 276 l 2,0,1
EndSplineSet
Validated: 1
EndChar

StartChar: Amacron
Encoding: 256 256 252
Width: 1275
VWidth: 0
Flags: W
HStem: 0 43<31 219 1086 1255> 410 102<500 1024> 1393 41<860 1070> 1516 82<766 1219>
VStem: 748 489
AnchorPoint: "bottom" 639 0 basechar 0
AnchorPoint: "ogonek" 1092 0 basechar 0
LayerCount: 2
Fore
SplineSet
1092 0 m 1
EndSplineSet
Refer: 96 772 N 1 0 0 1 1288 246 2
Refer: 27 65 N 1 0 0 1 0 0 3
Validated: 1
EndChar

StartChar: kgreenlandic
Encoding: 312 312 305
Width: 917
VWidth: 0
Flags: W
HStem: 0 43G<82 255 649 848> 860 41G<281 455 785 1020>
AnchorPoint: "top" 639 1004 basechar 0
AnchorPoint: "bottom" 446 0 basechar 0
LayerCount: 2
Fore
SplineSet
309 270 m 1,0,-1
 246 0 l 1,1,-1
 82 0 l 1,2,-1
 291 901 l 1,3,-1
 455 901 l 1,4,-1
 356 479 l 1,5,-1
 831 901 l 1,6,-1
 1020 901 l 1,7,-1
 569 502 l 1,8,-1
 848 0 l 1,9,-1
 672 0 l 1,10,-1
 451 395 l 1,11,-1
 309 270 l 1,0,-1
EndSplineSet
Validated: 1
EndChar

StartChar: Tbar
Encoding: 358 358 306
Width: 1198
VWidth: 0
Flags: W
HStem: 0 43G<532 716> 901 102<604 741 938 1065> 1331 102<352 840 1014 1526>
AnchorPoint: "top" 954 1434 basechar 0
AnchorPoint: "bottom" 623 0 basechar 0
AnchorPoint: "cedilla" 618 0 basechar 0
LayerCount: 2
Fore
SplineSet
352 1434 m 1,0,-1
 1554 1434 l 1,1,-1
 1526 1331 l 1,2,-1
 1014 1331 l 1,3,-1
 938 1004 l 1,4,-1
 1090 1004 l 1,5,-1
 1065 901 l 1,6,-1
 915 901 l 1,7,-1
 707 0 l 1,8,-1
 532 0 l 1,9,-1
 741 901 l 1,10,-1
 580 901 l 1,11,-1
 604 1004 l 1,12,-1
 764 1004 l 1,13,-1
 840 1331 l 1,14,-1
 328 1331 l 1,15,-1
 352 1434 l 1,0,-1
EndSplineSet
Validated: 1
EndChar

StartChar: tbar
Encoding: 359 359 307
Width: 577
VWidth: 0
Flags: W
HStem: -20 102<346 523> 500 102<184 301 489 645> 799 102<291 371 559 696>
VStem: 229 174<85 270> 524 70<93 131>
AnchorPoint: "top" 582 1352 basechar 0
AnchorPoint: "cedilla" 393 4 basechar 0
AnchorPoint: "bottom" 262 0 basechar 0
LayerCount: 2
Fore
SplineSet
414 276 m 2,0,1
 403 228 403 228 403 182 c 0,2,3
 403 82 403 82 446 82 c 0,4,5
 474 82 474 82 496.5 96.5 c 128,-1,6
 519 111 519 111 524 131 c 1,7,-1
 594 131 l 1,8,9
 581 68 581 68 522.5 24 c 128,-1,10
 464 -20 464 -20 395 -20 c 0,11,12
 322 -20 322 -20 275.5 29.5 c 128,-1,13
 229 79 229 79 229 156 c 0,14,15
 229 178 229 178 236 213 c 2,16,-1
 301 500 l 1,17,-1
 160 500 l 1,18,-1
 184 602 l 1,19,-1
 326 602 l 1,20,-1
 371 799 l 1,21,-1
 236 799 l 1,22,-1
 291 901 l 1,23,-1
 395 901 l 1,24,-1
 463 1198 l 1,25,-1
 635 1229 l 1,26,-1
 559 901 l 1,27,-1
 721 901 l 1,28,-1
 696 799 l 1,29,-1
 535 799 l 1,30,-1
 489 602 l 1,31,-1
 670 602 l 1,32,-1
 645 500 l 1,33,-1
 465 500 l 1,34,-1
 414 276 l 2,0,1
EndSplineSet
Validated: 1
EndChar

StartChar: Eng
Encoding: 330 330 308
Width: 1271
VWidth: 0
Flags: W
HStem: -20 102<640 894> 0 43G<147 331> 1270 102<749 1105>
VStem: 1176 176<810 1200>
LayerCount: 2
Fore
SplineSet
1268 639 m 2,0,1
 1231 476 1231 476 1187 361.5 c 128,-1,2
 1143 247 1143 247 1079.5 157.5 c 128,-1,3
 1016 68 1016 68 927 24 c 128,-1,4
 838 -20 838 -20 721 -20 c 0,5,6
 644 -20 644 -20 580.5 3.5 c 128,-1,7
 517 27 517 27 442 72 c 1,8,-1
 569 178 l 1,9,10
 632 126 632 126 677 104 c 128,-1,11
 722 82 722 82 774 82 c 0,12,13
 805 82 805 82 832.5 91.5 c 128,-1,14
 860 101 860 101 882.5 115 c 128,-1,15
 905 129 905 129 925.5 155.5 c 128,-1,16
 946 182 946 182 961 206 c 128,-1,17
 976 230 976 230 992 270 c 128,-1,18
 1008 310 1008 310 1018 340.5 c 128,-1,19
 1028 371 1028 371 1041.5 421 c 128,-1,20
 1055 471 1055 471 1062.5 504.5 c 128,-1,21
 1070 538 1070 538 1083 594 c 2,22,-1
 1157 918 l 2,23,24
 1176 1002 1176 1002 1176 1055 c 0,25,26
 1176 1270 1176 1270 952 1270 c 0,27,28
 772 1270 772 1270 584 1135 c 1,29,-1
 322 0 l 1,30,-1
 147 0 l 1,31,-1
 459 1352 l 1,32,-1
 633 1352 l 1,33,-1
 618 1282 l 1,34,35
 623 1284 623 1284 646 1295 c 128,-1,36
 669 1306 669 1306 679 1310.5 c 128,-1,37
 689 1315 689 1315 713.5 1325 c 128,-1,38
 738 1335 738 1335 753.5 1340 c 128,-1,39
 769 1345 769 1345 795 1352 c 128,-1,40
 821 1359 821 1359 842.5 1362.5 c 128,-1,41
 864 1366 864 1366 891.5 1369 c 128,-1,42
 919 1372 919 1372 946 1372 c 0,43,44
 1135 1372 1135 1372 1243.5 1293.5 c 128,-1,45
 1352 1215 1352 1215 1352 1061 c 0,46,47
 1352 1006 1352 1006 1337 942 c 2,48,-1
 1268 639 l 2,0,1
EndSplineSet
Validated: 1
Substitution2: "'locl' Localized Forms in Sami-1" Engsami
EndChar

StartChar: eng
Encoding: 331 331 309
Width: 1075
VWidth: 0
Flags: W
HStem: -348 102<506 738> 0 43G<184 358> 819 102<221 380 602 914>
VStem: 150 70<770 808> 954 164<391 778>
AnchorPoint: "top" 821 1004 basechar 0
LayerCount: 2
Fore
SplineSet
967 -68 m 2,0,1
 950 -141 950 -141 910 -197 c 128,-1,2
 870 -253 870 -253 818 -285 c 128,-1,3
 766 -317 766 -317 710 -332.5 c 128,-1,4
 654 -348 654 -348 598 -348 c 0,5,6
 469 -348 469 -348 412 -256 c 1,7,-1
 555 -195 l 1,8,9
 577 -246 577 -246 651 -246 c 0,10,11
 711 -246 711 -246 750 -187.5 c 128,-1,12
 789 -129 789 -129 819 0 c 2,13,-1
 930 467 l 1,14,15
 954 575 954 575 954 643 c 0,16,17
 954 741 954 741 908.5 780 c 128,-1,18
 863 819 863 819 776 819 c 0,19,20
 648 819 648 819 512 721 c 1,21,22
 511 716 511 716 510 705 c 128,-1,23
 509 694 509 694 508 688 c 2,24,-1
 348 0 l 1,25,-1
 184 0 l 1,26,-1
 328 625 l 2,27,28
 340 678 340 678 340 719 c 0,29,30
 340 764 340 764 328 791.5 c 128,-1,31
 316 819 316 819 295 819 c 0,32,33
 267 819 267 819 245.5 804.5 c 128,-1,34
 224 790 224 790 219 770 c 1,35,-1
 150 770 l 1,36,37
 164 833 164 833 221.5 877.5 c 128,-1,38
 279 922 279 922 348 922 c 0,39,40
 442 922 442 922 489 842 c 1,41,42
 627 922 627 922 770 922 c 0,43,44
 1118 922 1118 922 1118 641 c 0,45,46
 1118 584 1118 584 1098 492 c 1,47,-1
 967 -68 l 2,0,1
EndSplineSet
Validated: 1
EndChar

StartChar: asciicircum
Encoding: 94 94 310
Width: 856
VWidth: 0
Flags: W
HStem: 193 627
LayerCount: 2
Fore
SplineSet
614 819 m 1,0,-1
 881 250 l 1,1,-1
 786 193 l 1,2,-1
 573 639 l 1,3,-1
 160 193 l 1,4,-1
 90 250 l 1,5,-1
 614 819 l 1,0,-1
EndSplineSet
Validated: 1
EndChar

StartChar: asciitilde
Encoding: 126 126 312
Width: 831
VWidth: 0
Flags: W
HStem: 420 117<532 774> 485 117<293 535>
LayerCount: 2
Fore
SplineSet
805 602 m 1,0,-1
 889 602 l 1,1,2
 861 524 861 524 787 472 c 128,-1,3
 713 420 713 420 625 420 c 0,4,5
 587 420 587 420 506 452.5 c 128,-1,6
 425 485 425 485 406 485 c 0,7,8
 356 485 356 485 314.5 468.5 c 128,-1,9
 273 452 273 452 262 420 c 1,10,-1
 178 420 l 1,11,12
 206 498 206 498 280 550 c 128,-1,13
 354 602 354 602 442 602 c 0,14,15
 480 602 480 602 561.5 569.5 c 128,-1,16
 643 537 643 537 662 537 c 0,17,18
 712 537 712 537 753 553.5 c 128,-1,19
 794 570 794 570 805 602 c 1,0,-1
EndSplineSet
Validated: 1
EndChar

StartChar: exclamdown
Encoding: 161 161 313
Width: 356
VWidth: 0
Flags: W
HStem: 1032 164<369 494>
VStem: 313 102<772 827>
LayerCount: 2
Fore
SplineSet
494 1032 m 1,0,-1
 330 1032 l 1,1,-1
 369 1196 l 1,2,-1
 532 1196 l 1,3,-1
 494 1032 l 1,0,-1
37 -238 m 25,4,-1
 313 827 l 1,5,-1
 416 827 l 1,6,-1
 201 -238 l 1,7,-1
 37 -238 l 25,4,-1
EndSplineSet
Validated: 1
EndChar

StartChar: questiondown
Encoding: 191 191 314
Width: 882
VWidth: 0
Flags: W
HStem: -238 102<323 613> -53 41G<664 792> 551 215<608 692> 971 164<664 788>
VStem: 78 164<-55 317>
LayerCount: 2
Fore
SplineSet
788 971 m 1,0,-1
 625 971 l 1,1,-1
 664 1135 l 1,2,-1
 827 1135 l 1,3,-1
 788 971 l 1,0,-1
565 651 m 1,4,-1
 608 766 l 1,5,-1
 711 766 l 1,6,-1
 692 551 l 1,7,-1
 621 551 l 2,8,9
 531 551 531 551 457 512 c 128,-1,10
 383 473 383 473 337 409 c 128,-1,11
 291 345 291 345 266.5 266 c 128,-1,12
 242 187 242 187 242 102 c 0,13,14
 242 -10 242 -10 300.5 -72.5 c 128,-1,15
 359 -135 359 -135 473 -135 c 0,16,17
 545 -135 545 -135 592.5 -106 c 128,-1,18
 640 -77 640 -77 696 -12 c 1,19,-1
 807 -59 l 1,20,21
 719 -146 719 -146 627.5 -192 c 128,-1,22
 536 -238 536 -238 418 -238 c 0,23,24
 255 -238 255 -238 166.5 -151 c 128,-1,25
 78 -64 78 -64 78 90 c 0,26,27
 78 206 78 206 118 307.5 c 128,-1,28
 158 409 158 409 225 480.5 c 128,-1,29
 292 552 292 552 380 597 c 128,-1,30
 468 642 468 642 565 651 c 1,4,-1
EndSplineSet
Validated: 1
EndChar

StartChar: cent
Encoding: 162 162 315
Width: 944
VWidth: 0
Flags: W
HStem: 20 102<476 530> 778 102<648 706>
VStem: 188 166<184 535> 821 150<628 749>
LayerCount: 2
Fore
SplineSet
379 39 m 1,0,1
 188 96 188 96 188 309 c 0,2,3
 188 395 188 395 214 483 c 128,-1,4
 240 571 240 571 287.5 648 c 128,-1,5
 335 725 335 725 409 783.5 c 128,-1,6
 483 842 483 842 571 866 c 1,7,-1
 602 1004 l 1,8,-1
 676 1004 l 1,9,-1
 647 879 l 1,10,11
 659 881 659 881 686 881 c 0,12,13
 715 881 715 881 729 879 c 1,14,-1
 758 1004 l 1,15,-1
 831 1004 l 1,16,-1
 799 864 l 1,17,18
 871 839 871 839 910.5 781 c 128,-1,19
 950 723 950 723 971 635 c 1,20,-1
 821 567 l 1,21,22
 819 641 819 641 810 685.5 c 128,-1,23
 801 730 801 730 774 754 c 1,24,-1
 629 127 l 1,25,26
 680 135 680 135 715 162.5 c 128,-1,27
 750 190 750 190 797 246 c 1,28,-1
 907 199 l 1,29,30
 833 125 833 125 763 82.5 c 128,-1,31
 693 40 693 40 606 27 c 1,32,-1
 575 -102 l 1,33,-1
 502 -102 l 1,34,-1
 530 20 l 1,35,-1
 528 20 l 2,36,37
 482 20 482 20 451 25 c 1,38,-1
 420 -102 l 1,39,-1
 346 -102 l 1,40,-1
 379 39 l 1,0,1
410 172 m 1,41,-1
 541 735 l 1,42,43
 488 701 488 701 449 644 c 128,-1,44
 410 587 410 587 390.5 525.5 c 128,-1,45
 371 464 371 464 362.5 413.5 c 128,-1,46
 354 363 354 363 354 324 c 0,47,48
 354 222 354 222 410 172 c 1,41,-1
475 137 m 1,49,50
 505 126 505 126 555 123 c 1,51,-1
 707 778 l 1,52,-1
 694 778 l 2,53,54
 654 778 654 778 623 770 c 1,55,-1
 475 137 l 1,49,50
EndSplineSet
Validated: 1
EndChar

StartChar: brokenbar
Encoding: 166 166 316
Width: 305
VWidth: 0
Flags: W
HStem: 0 43G<92 214> 1393 41G<414 537>
VStem: 92 444
LayerCount: 2
Fore
SplineSet
537 1434 m 25,0,-1
 385 778 l 1,1,-1
 272 778 l 1,2,-1
 424 1434 l 1,3,-1
 537 1434 l 25,0,-1
356 655 m 25,4,-1
 205 0 l 1,5,-1
 92 0 l 1,6,-1
 244 655 l 1,7,-1
 356 655 l 25,4,-1
EndSplineSet
Validated: 1
EndChar

StartChar: OE
Encoding: 338 338 317
Width: 1851
VWidth: 0
Flags: W
HStem: -20 102<553 867> 0 102<1169 1831> 799 102<1354 1798> 1331 102<1452 2105> 1352 102<810 1140>
VStem: 199 176<286 779>
AnchorPoint: "top" 1243 1434 basechar 0
AnchorPoint: "bottom" 926 0 basechar 0
LayerCount: 2
Fore
SplineSet
1831 0 m 1,0,-1
 971 0 l 1,1,-1
 983 55 l 1,2,3
 830 -20 830 -20 659 -20 c 0,4,5
 571 -20 571 -20 491 11 c 128,-1,6
 411 42 411 42 344.5 102 c 128,-1,7
 278 162 278 162 238.5 262 c 128,-1,8
 199 362 199 362 199 489 c 0,9,10
 199 621 199 621 236 758 c 128,-1,11
 273 895 273 895 344 1019 c 128,-1,12
 415 1143 415 1143 508.5 1240.5 c 128,-1,13
 602 1338 602 1338 725.5 1396 c 128,-1,14
 849 1454 849 1454 981 1454 c 0,15,16
 1157 1454 1157 1454 1288 1370 c 1,17,-1
 1303 1434 l 1,18,-1
 2130 1434 l 1,19,-1
 2105 1331 l 1,20,-1
 1452 1331 l 1,21,-1
 1354 901 l 1,22,-1
 1823 901 l 1,23,-1
 1798 799 l 1,24,-1
 1329 799 l 1,25,-1
 1169 102 l 1,26,-1
 1855 102 l 1,27,-1
 1831 0 l 1,0,-1
1026 236 m 1,28,-1
 1249 1202 l 1,29,30
 1201 1276 1201 1276 1127.5 1314 c 128,-1,31
 1054 1352 1054 1352 969 1352 c 0,32,33
 860 1352 860 1352 750.5 1276.5 c 128,-1,34
 641 1201 641 1201 559.5 1082 c 128,-1,35
 478 963 478 963 426.5 809.5 c 128,-1,36
 375 656 375 656 375 508 c 0,37,38
 375 401 375 401 405.5 316 c 128,-1,39
 436 231 436 231 484.5 182 c 128,-1,40
 533 133 533 133 587 107.5 c 128,-1,41
 641 82 641 82 694 82 c 0,42,43
 770 82 770 82 857.5 121.5 c 128,-1,44
 945 161 945 161 1026 236 c 1,28,-1
EndSplineSet
Validated: 1
EndChar

StartChar: oe
Encoding: 339 339 318
Width: 1683
VWidth: 0
Flags: W
HStem: -20 102<384 672 1134 1453> 451 102<1081 1591> 819 102<554 822 1271 1533>
VStem: 147 164<157 530> 897 137<362 449> 1591 160<554 758>
LayerCount: 2
Fore
SplineSet
532 82 m 0,0,1
 608 82 608 82 677.5 127.5 c 128,-1,2
 747 173 747 173 794 244.5 c 128,-1,3
 841 316 841 316 869 403.5 c 128,-1,4
 897 491 897 491 897 575 c 0,5,6
 897 686 897 686 844.5 752.5 c 128,-1,7
 792 819 792 819 702 819 c 0,8,9
 602 819 602 819 511 748 c 128,-1,10
 420 677 420 677 365.5 559 c 128,-1,11
 311 441 311 441 311 311 c 0,12,13
 311 201 311 201 366 141.5 c 128,-1,14
 421 82 421 82 532 82 c 0,0,1
1047 451 m 1,15,16
 1034 397 1034 397 1034 340 c 0,17,18
 1034 220 1034 220 1103 151 c 128,-1,19
 1172 82 1172 82 1292 82 c 0,20,21
 1439 82 1439 82 1546 205 c 1,22,-1
 1659 158 l 1,23,24
 1575 76 1575 76 1467.5 28 c 128,-1,25
 1360 -20 1360 -20 1239 -20 c 0,26,27
 1119 -20 1119 -20 1031.5 27.5 c 128,-1,28
 944 75 944 75 903 162 c 1,29,30
 742 -20 742 -20 479 -20 c 0,31,32
 318 -20 318 -20 232.5 65 c 128,-1,33
 147 150 147 150 147 301 c 0,34,35
 147 430 147 430 197.5 547.5 c 128,-1,36
 248 665 248 665 327 745.5 c 128,-1,37
 406 826 406 826 504 874 c 128,-1,38
 602 922 602 922 696 922 c 0,39,40
 822 922 822 922 911 875 c 128,-1,41
 1000 828 1000 828 1038 737 c 1,42,43
 1119 823 1119 823 1218.5 872.5 c 128,-1,44
 1318 922 1318 922 1415 922 c 0,45,46
 1499 922 1499 922 1565 893.5 c 128,-1,47
 1631 865 1631 865 1671 815.5 c 128,-1,48
 1711 766 1711 766 1731 704 c 128,-1,49
 1751 642 1751 642 1751 571 c 0,50,51
 1751 508 1751 508 1737 451 c 1,52,-1
 1047 451 l 1,15,16
1081 553 m 1,53,-1
 1589 553 l 1,54,55
 1591 567 1591 567 1591 596 c 0,56,57
 1591 699 1591 699 1548.5 759 c 128,-1,58
 1506 819 1506 819 1421 819 c 0,59,60
 1317 819 1317 819 1225.5 744.5 c 128,-1,61
 1134 670 1134 670 1081 553 c 1,53,-1
EndSplineSet
Validated: 1
EndChar

StartChar: Euro
Encoding: 8364 8364 319
Width: 1204
VWidth: 0
Flags: W
HStem: -20 102<624 916> 512 102<244 309 483 848> 819 102<315 367 565 918> 1331 102<849 1175>
VStem: 309 164<258 512 614 774>
LayerCount: 2
Fore
SplineSet
1171 209 m 1,0,1
 1083 107 1083 107 958.5 43.5 c 128,-1,2
 834 -20 834 -20 705 -20 c 0,3,4
 636 -20 636 -20 568 10.5 c 128,-1,5
 500 41 500 41 441 100 c 128,-1,6
 382 159 382 159 345.5 258.5 c 128,-1,7
 309 358 309 358 309 483 c 2,8,-1
 309 512 l 1,9,-1
 190 512 l 1,10,-1
 244 614 l 1,11,-1
 319 614 l 1,12,13
 331 698 331 698 367 819 c 1,14,-1
 260 819 l 1,15,-1
 315 922 l 1,16,-1
 403 922 l 1,17,18
 446 1027 446 1027 505.5 1114 c 128,-1,19
 565 1201 565 1201 628 1259 c 128,-1,20
 691 1317 691 1317 759.5 1357.5 c 128,-1,21
 828 1398 828 1398 890 1416 c 128,-1,22
 952 1434 952 1434 1008 1434 c 0,23,24
 1326 1434 1326 1434 1405 1245 c 1,25,-1
 1260 1178 l 1,26,27
 1207 1331 1207 1331 1008 1331 c 0,28,29
 883 1331 883 1331 764.5 1228.5 c 128,-1,30
 646 1126 646 1126 565 922 c 1,31,-1
 942 922 l 1,32,-1
 918 819 l 1,33,-1
 528 819 l 1,34,35
 498 716 498 716 483 614 c 1,36,-1
 870 614 l 1,37,-1
 848 512 l 1,38,-1
 473 512 l 1,39,-1
 473 485 l 2,40,41
 473 384 473 384 498.5 303.5 c 128,-1,42
 524 223 524 223 566 176.5 c 128,-1,43
 608 130 608 130 655.5 106 c 128,-1,44
 703 82 703 82 752 82 c 0,45,46
 926 82 926 82 1063 264 c 1,47,-1
 1171 209 l 1,0,1
EndSplineSet
Validated: 1
EndChar

StartChar: yen
Encoding: 165 165 320
Width: 1075
VWidth: 0
UnlinkRmOvrlpSave: 1
Flags: W
HStem: 0 43G<451 634> 274 102<371 514 713 831> 483 102<428 561 760 889> 1393 41G<414 609 1112 1327>
LayerCount: 2
Fore
SplineSet
745 899 m 1,0,-1
 1143 1434 l 1,1,-1
 1327 1434 l 1,2,-1
 788 709 l 1,3,-1
 760 586 l 1,4,-1
 913 586 l 1,5,-1
 889 483 l 1,6,-1
 737 483 l 1,7,-1
 713 377 l 1,8,-1
 856 377 l 1,9,-1
 831 274 l 1,10,-1
 688 274 l 1,11,-1
 625 0 l 1,12,-1
 451 0 l 1,13,-1
 514 274 l 1,14,-1
 346 274 l 1,15,-1
 371 377 l 1,16,-1
 537 377 l 1,17,-1
 561 483 l 1,18,-1
 403 483 l 1,19,-1
 428 586 l 1,20,-1
 586 586 l 1,21,-1
 614 711 l 1,22,-1
 414 1434 l 1,23,-1
 598 1434 l 1,24,-1
 745 899 l 1,0,-1
EndSplineSet
EndChar

StartChar: sterling
Encoding: 163 163 321
Width: 903
VWidth: 0
Flags: W
HStem: 0 102<76 134 229 821> 696 102<332 358 537 727> 1169 102<654 887>
LayerCount: 2
Fore
SplineSet
428 991 m 2,0,1
 450 1087 450 1087 512.5 1153 c 128,-1,2
 575 1219 575 1219 646.5 1245.5 c 128,-1,3
 718 1272 718 1272 795 1272 c 0,4,5
 926 1272 926 1272 983 1180 c 1,6,-1
 838 1118 l 1,7,8
 816 1169 816 1169 743 1169 c 0,9,10
 681 1169 681 1169 637.5 1109.5 c 128,-1,11
 594 1050 594 1050 565 924 c 2,12,-1
 537 799 l 1,13,-1
 752 799 l 1,14,-1
 727 696 l 1,15,-1
 512 696 l 1,16,-1
 455 446 l 2,17,18
 439 375 439 375 404 309 c 128,-1,19
 369 243 369 243 331 200.5 c 128,-1,20
 293 158 293 158 267 133.5 c 128,-1,21
 241 109 241 109 229 102 c 1,22,-1
 846 102 l 1,23,-1
 821 0 l 1,24,-1
 51 0 l 1,25,-1
 76 102 l 1,26,27
 96 102 96 102 142 154 c 128,-1,28
 188 206 188 206 236 289.5 c 128,-1,29
 284 373 284 373 301 446 c 2,30,-1
 358 696 l 1,31,-1
 276 696 l 1,32,-1
 332 799 l 1,33,-1
 383 799 l 1,34,-1
 428 991 l 2,0,1
EndSplineSet
Validated: 1
EndChar

StartChar: section
Encoding: 167 167 322
Width: 808
VWidth: 0
Flags: W
HStem: -18 102<275 504> 1268 102<607 836>
VStem: 139 98<122 220> 287 150<573 811> 379 152<960 1188> 582 152<169 391> 674 150<537 779> 874 96<1132 1230>
LayerCount: 2
Fore
SplineSet
733 307 m 0,0,1
 733 269 733 269 719 226 c 128,-1,2
 705 183 705 183 675 139.5 c 128,-1,3
 645 96 645 96 603.5 61 c 128,-1,4
 562 26 562 26 501 4 c 128,-1,5
 440 -18 440 -18 371 -18 c 0,6,7
 330 -18 330 -18 296.5 -8.5 c 128,-1,8
 263 1 263 1 229 24.5 c 128,-1,9
 195 48 195 48 172 97 c 128,-1,10
 149 146 149 146 139 217 c 1,11,-1
 238 238 l 1,12,13
 241 211 241 211 244 195 c 128,-1,14
 247 179 247 179 257.5 155 c 128,-1,15
 268 131 268 131 283.5 118 c 128,-1,16
 299 105 299 105 328 94.5 c 128,-1,17
 357 84 357 84 397 84 c 0,18,19
 447 84 447 84 486 111.5 c 128,-1,20
 525 139 525 139 544.5 177.5 c 128,-1,21
 564 216 564 216 573 248 c 128,-1,22
 582 280 582 280 582 299 c 0,23,24
 582 391 582 391 455 436 c 1,25,26
 372 467 372 467 329.5 526.5 c 128,-1,27
 287 586 287 586 287 662 c 0,28,29
 287 719 287 719 316.5 793.5 c 128,-1,30
 346 868 346 868 416 926 c 1,31,32
 379 981 379 981 379 1044 c 0,33,34
 379 1092 379 1092 402 1147 c 128,-1,35
 425 1202 425 1202 467.5 1252.5 c 128,-1,36
 510 1303 510 1303 581.5 1336.5 c 128,-1,37
 653 1370 653 1370 739 1370 c 0,38,39
 780 1370 780 1370 813.5 1360.5 c 128,-1,40
 847 1351 847 1351 881 1327.5 c 128,-1,41
 915 1304 915 1304 938 1255 c 128,-1,42
 961 1206 961 1206 971 1135 c 1,43,-1
 874 1114 l 1,44,45
 871 1140 871 1140 867.5 1156.5 c 128,-1,46
 864 1173 864 1173 853.5 1196.5 c 128,-1,47
 843 1220 843 1220 827.5 1234 c 128,-1,48
 812 1248 812 1248 782.5 1258 c 128,-1,49
 753 1268 753 1268 713 1268 c 0,50,51
 663 1268 663 1268 624 1240.5 c 128,-1,52
 585 1213 585 1213 566.5 1174 c 128,-1,53
 548 1135 548 1135 539 1103.5 c 128,-1,54
 530 1072 530 1072 530 1053 c 0,55,56
 530 960 530 960 655 915 c 1,57,58
 738 883 738 883 780.5 824 c 128,-1,59
 823 765 823 765 823 690 c 0,60,61
 823 633 823 633 793.5 558.5 c 128,-1,62
 764 484 764 484 694 426 c 1,63,64
 733 368 733 368 733 307 c 0,0,1
504 844 m 1,65,66
 468 802 468 802 452 749.5 c 128,-1,67
 436 697 436 697 436 662 c 0,68,69
 436 632 436 632 444 612.5 c 128,-1,70
 452 593 452 593 470 580 c 128,-1,71
 488 567 488 567 506.5 559 c 128,-1,72
 525 551 525 551 555 537 c 128,-1,73
 585 523 585 523 608 508 c 1,74,75
 644 549 644 549 659 601 c 128,-1,76
 674 653 674 653 674 690 c 128,-1,77
 674 727 674 727 659.5 750 c 128,-1,78
 645 773 645 773 626 782.5 c 128,-1,79
 607 792 607 792 569 809.5 c 128,-1,80
 531 827 531 827 504 844 c 1,65,66
EndSplineSet
Validated: 1
EndChar

StartChar: copyright
Encoding: 169 169 323
Width: 1101
VWidth: 0
Flags: W
HStem: -20 82<444 693> 193 61<541 726> 733 61<620 818> 946 82<629 879>
VStem: 219 115<183 591> 389 92<298 592> 989 115<415 825>
LayerCount: 2
Fore
SplineSet
764 946 m 0,0,1
 690 946 690 946 612 896 c 128,-1,2
 534 846 534 846 473 767 c 128,-1,3
 412 688 412 688 373 582 c 128,-1,4
 334 476 334 476 334 371 c 0,5,6
 334 235 334 235 398.5 148 c 128,-1,7
 463 61 463 61 559 61 c 0,8,9
 633 61 633 61 711 111 c 128,-1,10
 789 161 789 161 850 240 c 128,-1,11
 911 319 911 319 950 425.5 c 128,-1,12
 989 532 989 532 989 637 c 0,13,14
 989 773 989 773 924.5 859.5 c 128,-1,15
 860 946 860 946 764 946 c 0,0,1
219 365 m 0,16,17
 219 493 219 493 272.5 617 c 128,-1,18
 326 741 326 741 408 830 c 128,-1,19
 490 919 490 919 590.5 973.5 c 128,-1,20
 691 1028 691 1028 782 1028 c 0,21,22
 844 1028 844 1028 901.5 1001 c 128,-1,23
 959 974 959 974 1004.5 926 c 128,-1,24
 1050 878 1050 878 1077 804 c 128,-1,25
 1104 730 1104 730 1104 643 c 0,26,27
 1104 539 1104 539 1069 436.5 c 128,-1,28
 1034 334 1034 334 975.5 253.5 c 128,-1,29
 917 173 917 173 844 110.5 c 128,-1,30
 771 48 771 48 692 14 c 128,-1,31
 613 -20 613 -20 541 -20 c 0,32,33
 479 -20 479 -20 421.5 7 c 128,-1,34
 364 34 364 34 318.5 82 c 128,-1,35
 273 130 273 130 246 204 c 128,-1,36
 219 278 219 278 219 365 c 0,16,17
717 733 m 0,37,38
 662 733 662 733 615.5 701.5 c 128,-1,39
 569 670 569 670 540.5 622.5 c 128,-1,40
 512 575 512 575 496.5 522 c 128,-1,41
 481 469 481 469 481 422 c 0,42,43
 481 339 481 339 525.5 296.5 c 128,-1,44
 570 254 570 254 623 254 c 0,45,46
 653 254 653 254 678.5 261 c 128,-1,47
 704 268 704 268 724.5 282.5 c 128,-1,48
 745 297 745 297 754.5 306 c 128,-1,49
 764 315 764 315 778 330 c 1,50,-1
 840 299 l 1,51,52
 734 193 734 193 596 193 c 0,53,54
 515 193 515 193 452 249.5 c 128,-1,55
 389 306 389 306 389 412 c 0,56,57
 389 557 389 557 487 676 c 128,-1,58
 585 795 585 795 719 795 c 0,59,60
 811 795 811 795 857 773 c 128,-1,61
 903 751 903 751 930 705 c 1,62,-1
 840 670 l 1,63,64
 827 700 827 700 800.5 716.5 c 128,-1,65
 774 733 774 733 717 733 c 0,37,38
EndSplineSet
Validated: 1
EndChar

StartChar: registered
Encoding: 174 174 324
Width: 1101
VWidth: 0
Flags: W
HStem: -20 82<444 693> 469 61<578 660> 739 61<625 781> 946 82<629 879>
VStem: 219 115<183 591> 709 90<207 433> 791 90<559 736> 989 115<415 825>
LayerCount: 2
Fore
SplineSet
764 946 m 0,0,1
 690 946 690 946 612 896 c 128,-1,2
 534 846 534 846 473 767 c 128,-1,3
 412 688 412 688 373 582 c 128,-1,4
 334 476 334 476 334 371 c 0,5,6
 334 235 334 235 398.5 148 c 128,-1,7
 463 61 463 61 559 61 c 0,8,9
 633 61 633 61 711 111 c 128,-1,10
 789 161 789 161 850 240 c 128,-1,11
 911 319 911 319 950 425.5 c 128,-1,12
 989 532 989 532 989 637 c 0,13,14
 989 773 989 773 924.5 859.5 c 128,-1,15
 860 946 860 946 764 946 c 0,0,1
219 365 m 0,16,17
 219 493 219 493 272.5 617 c 128,-1,18
 326 741 326 741 408 830 c 128,-1,19
 490 919 490 919 590.5 973.5 c 128,-1,20
 691 1028 691 1028 782 1028 c 0,21,22
 844 1028 844 1028 901.5 1001 c 128,-1,23
 959 974 959 974 1004.5 926 c 128,-1,24
 1050 878 1050 878 1077 804 c 128,-1,25
 1104 730 1104 730 1104 643 c 0,26,27
 1104 539 1104 539 1069 436.5 c 128,-1,28
 1034 334 1034 334 975.5 253.5 c 128,-1,29
 917 173 917 173 844 110.5 c 128,-1,30
 771 48 771 48 692 14 c 128,-1,31
 613 -20 613 -20 541 -20 c 0,32,33
 479 -20 479 -20 421.5 7 c 128,-1,34
 364 34 364 34 318.5 82 c 128,-1,35
 273 130 273 130 246 204 c 128,-1,36
 219 278 219 278 219 365 c 0,16,17
881 670 m 0,37,38
 881 614 881 614 841.5 561 c 128,-1,39
 802 508 802 508 741 485 c 1,40,41
 759 454 759 454 779 392 c 128,-1,42
 799 330 799 330 799 268 c 0,43,44
 799 247 799 247 791 207 c 1,45,-1
 702 207 l 1,46,47
 709 238 709 238 709 262 c 0,48,49
 709 325 709 325 686.5 385.5 c 128,-1,50
 664 446 664 446 639 469 c 1,51,-1
 563 469 l 1,52,-1
 502 207 l 1,53,-1
 412 207 l 1,54,-1
 549 801 l 1,55,-1
 727 801 l 2,56,57
 809 801 809 801 845 762.5 c 128,-1,58
 881 724 881 724 881 670 c 0,37,38
678 530 m 2,59,60
 728 530 728 530 759.5 573.5 c 128,-1,61
 791 617 791 617 791 666 c 0,62,63
 791 739 791 739 725 739 c 2,64,-1
 625 739 l 1,65,-1
 578 530 l 1,66,-1
 678 530 l 2,59,60
EndSplineSet
Validated: 1
EndChar

StartChar: ordfeminine
Encoding: 170 170 325
Width: 624
VWidth: 0
Flags: W
HStem: 348 61<166 629> 516 61<337 507 578 662> 938 61<416 577>
VStem: 229 90<586 840> 508 96<585 819> 655 45<581 602>
LayerCount: 2
Fore
SplineSet
166 410 m 1,0,-1
 643 410 l 1,1,-1
 629 348 l 1,2,-1
 152 348 l 1,3,-1
 166 410 l 1,0,-1
229 686 m 0,4,5
 229 801 229 801 316 900 c 128,-1,6
 403 999 403 999 500 999 c 0,7,8
 514 999 514 999 527.5 998.5 c 128,-1,9
 541 998 541 998 553.5 995.5 c 128,-1,10
 566 993 566 993 575 991.5 c 128,-1,11
 584 990 584 990 595.5 986.5 c 128,-1,12
 607 983 607 983 613.5 981 c 128,-1,13
 620 979 620 979 631.5 974 c 128,-1,14
 643 969 643 969 646.5 967.5 c 128,-1,15
 650 966 650 966 662 960.5 c 128,-1,16
 674 955 674 955 676 954 c 1,17,-1
 610 672 l 2,18,19
 604 645 604 645 604 625 c 0,20,21
 604 603 604 603 609 590.5 c 128,-1,22
 614 578 614 578 621 578 c 0,23,24
 649 578 649 578 655 602 c 1,25,-1
 700 602 l 1,26,27
 690 560 690 560 658 538 c 128,-1,28
 626 516 626 516 592 516 c 0,29,30
 555 516 555 516 526 549 c 1,31,32
 445 516 445 516 375 516 c 0,33,34
 308 516 308 516 268.5 564 c 128,-1,35
 229 612 229 612 229 686 c 0,4,5
502 938 m 0,36,37
 461 938 461 938 427.5 916.5 c 128,-1,38
 394 895 394 895 374.5 863.5 c 128,-1,39
 355 832 355 832 342 794 c 128,-1,40
 329 756 329 756 324 726 c 128,-1,41
 319 696 319 696 319 674 c 0,42,43
 319 578 319 578 406 578 c 0,44,45
 453 578 453 578 508 600 c 1,46,47
 506 614 506 614 510 639 c 1,48,-1
 578 928 l 1,49,50
 548 938 548 938 502 938 c 0,36,37
EndSplineSet
Validated: 1
EndChar

StartChar: ordmasculine
Encoding: 186 186 326
Width: 620
VWidth: 0
Flags: W
HStem: 348 61<166 629> 516 61<371 531> 938 61<450 599>
VStem: 250 94<594 840> 627 92<670 923>
LayerCount: 2
Fore
SplineSet
166 410 m 1,0,-1
 643 410 l 1,1,-1
 629 348 l 1,2,-1
 152 348 l 1,3,-1
 166 410 l 1,0,-1
451 578 m 0,4,5
 524 578 524 578 575.5 657 c 128,-1,6
 627 736 627 736 627 819 c 0,7,8
 627 873 627 873 602.5 905.5 c 128,-1,9
 578 938 578 938 535 938 c 0,10,11
 462 938 462 938 403 863 c 128,-1,12
 344 788 344 788 344 688 c 0,13,14
 344 578 344 578 451 578 c 0,4,5
719 831 m 0,15,16
 719 795 719 795 710 755.5 c 128,-1,17
 701 716 701 716 678.5 672.5 c 128,-1,18
 656 629 656 629 623 595 c 128,-1,19
 590 561 590 561 537 538.5 c 128,-1,20
 484 516 484 516 420 516 c 0,21,22
 338 516 338 516 294 560 c 128,-1,23
 250 604 250 604 250 682 c 0,24,25
 250 750 250 750 276.5 810.5 c 128,-1,26
 303 871 303 871 344.5 911.5 c 128,-1,27
 386 952 386 952 436 975.5 c 128,-1,28
 486 999 486 999 532 999 c 0,29,30
 620 999 620 999 669.5 956 c 128,-1,31
 719 913 719 913 719 831 c 0,15,16
EndSplineSet
Validated: 1
EndChar

StartChar: guilsinglright
Encoding: 8250 8250 327
Width: 589
VWidth: 0
Flags: W
VStem: 131 461
LayerCount: 2
Fore
SplineSet
481 451 m 1,0,-1
 283 778 l 1,1,-1
 369 817 l 1,2,-1
 592 451 l 1,3,-1
 201 86 l 1,4,-1
 131 125 l 1,5,-1
 481 451 l 1,0,-1
EndSplineSet
Validated: 1
EndChar

StartChar: guilsinglleft
Encoding: 8249 8249 328
Width: 589
VWidth: 0
Flags: W
VStem: 207 461
LayerCount: 2
Fore
SplineSet
317 453 m 1,0,-1
 516 125 l 1,1,-1
 430 86 l 1,2,-1
 207 453 l 1,3,-1
 598 817 l 1,4,-1
 668 778 l 1,5,-1
 317 453 l 1,0,-1
EndSplineSet
Validated: 1
EndChar

StartChar: quoteleft
Encoding: 8216 8216 331
Width: 356
VWidth: 0
Flags: W
HStem: 985 367
VStem: 319 147<985 1058>
LayerCount: 2
Fore
SplineSet
557 1352 m 1,0,1
 469 1258 469 1258 469 1161 c 0,2,3
 469 1146 469 1146 472 1113 c 128,-1,4
 475 1080 475 1080 475 1059 c 0,5,6
 475 1021 475 1021 467 985 c 1,7,-1
 319 985 l 1,8,9
 334 1049 334 1049 350.5 1102 c 128,-1,10
 367 1155 367 1155 377.5 1185 c 128,-1,11
 388 1215 388 1215 407.5 1248.5 c 128,-1,12
 427 1282 427 1282 432.5 1290.5 c 128,-1,13
 438 1299 438 1299 459.5 1325 c 128,-1,14
 481 1351 481 1351 481 1352 c 1,15,-1
 557 1352 l 1,0,1
EndSplineSet
Validated: 1
EndChar

StartChar: quoteright
Encoding: 8217 8217 332
Width: 356
VWidth: 0
Flags: W
HStem: 985 367
VStem: 410 147<1279 1352>
LayerCount: 2
Fore
SplineSet
319 985 m 1,0,1
 408 1081 408 1081 408 1176 c 0,2,3
 408 1190 408 1190 404.5 1224 c 128,-1,4
 401 1258 401 1258 401 1278 c 0,5,6
 401 1312 401 1312 410 1352 c 1,7,-1
 557 1352 l 1,8,9
 542 1288 542 1288 525.5 1235 c 128,-1,10
 509 1182 509 1182 498.5 1152 c 128,-1,11
 488 1122 488 1122 468.5 1088.5 c 128,-1,12
 449 1055 449 1055 443.5 1046.5 c 128,-1,13
 438 1038 438 1038 416.5 1012 c 128,-1,14
 395 986 395 986 395 985 c 1,15,-1
 319 985 l 1,0,1
EndSplineSet
Validated: 1
EndChar

StartChar: bullet
Encoding: 8226 8226 338
Width: 620
VWidth: 0
Flags: W
HStem: 287 483<347 522>
VStem: 197 469<441 612>
LayerCount: 2
Fore
SplineSet
666 602 m 0,0,1
 666 566 666 566 657 526.5 c 128,-1,2
 648 487 648 487 625.5 443.5 c 128,-1,3
 603 400 603 400 570 366 c 128,-1,4
 537 332 537 332 484 309.5 c 128,-1,5
 431 287 431 287 367 287 c 0,6,7
 285 287 285 287 241 331 c 128,-1,8
 197 375 197 375 197 453 c 0,9,10
 197 521 197 521 223.5 581.5 c 128,-1,11
 250 642 250 642 291.5 682.5 c 128,-1,12
 333 723 333 723 383 746.5 c 128,-1,13
 433 770 433 770 479 770 c 0,14,15
 567 770 567 770 616.5 727 c 128,-1,16
 666 684 666 684 666 602 c 0,0,1
EndSplineSet
Validated: 1
EndChar

StartChar: endash
Encoding: 8211 8211 339
Width: 802
VWidth: 0
Flags: W
HStem: 348 102<186 801>
VStem: 162 664
LayerCount: 2
Fore
SplineSet
186 451 m 1,0,-1
 825 451 l 1,1,-1
 801 348 l 1,2,-1
 162 348 l 1,3,-1
 186 451 l 1,0,-1
EndSplineSet
Validated: 1
EndChar

StartChar: emdash
Encoding: 8212 8212 340
Width: 1110
VWidth: 0
Flags: W
HStem: 348 102<186 1108>
LayerCount: 2
Fore
SplineSet
186 451 m 1,0,-1
 1133 451 l 1,1,-1
 1108 348 l 1,2,-1
 162 348 l 1,3,-1
 186 451 l 1,0,-1
EndSplineSet
Validated: 1
EndChar

StartChar: degree
Encoding: 176 176 342
Width: 577
VWidth: 0
Flags: W
HStem: 1010 96<478 630> 1286 96<500 652>
VStem: 373 100<1111 1260> 657 98<1132 1281>
LayerCount: 2
Fore
SplineSet
586 1286 m 0,0,1
 546 1286 546 1286 509.5 1253.5 c 128,-1,2
 473 1221 473 1221 473 1176 c 0,3,4
 473 1146 473 1146 493 1126 c 128,-1,5
 513 1106 513 1106 545 1106 c 0,6,7
 584 1106 584 1106 620.5 1139 c 128,-1,8
 657 1172 657 1172 657 1217 c 0,9,10
 657 1247 657 1247 637.5 1266.5 c 128,-1,11
 618 1286 618 1286 586 1286 c 0,0,1
373 1155 m 0,12,13
 373 1242 373 1242 445.5 1312 c 128,-1,14
 518 1382 518 1382 608 1382 c 0,15,16
 673 1382 673 1382 714.5 1340.5 c 128,-1,17
 756 1299 756 1299 756 1237 c 0,18,19
 756 1150 756 1150 684 1080 c 128,-1,20
 612 1010 612 1010 522 1010 c 0,21,22
 457 1010 457 1010 415 1051.5 c 128,-1,23
 373 1093 373 1093 373 1155 c 0,12,13
EndSplineSet
Validated: 1
EndChar

StartChar: currency
Encoding: 164 164 343
Width: 724
VWidth: 0
Flags: W
HStem: 248 96<366 533> 561 96<401 568>
VStem: 256 100<354 522> 578 100<383 551>
LayerCount: 2
Fore
SplineSet
492 561 m 0,0,1
 444 561 444 561 400 521 c 128,-1,2
 356 481 356 481 356 428 c 0,3,4
 356 392 356 392 380 368 c 128,-1,5
 404 344 404 344 442 344 c 0,6,7
 490 344 490 344 534 384 c 128,-1,8
 578 424 578 424 578 477 c 0,9,10
 578 513 578 513 554 537 c 128,-1,11
 530 561 530 561 492 561 c 0,0,1
266 348 m 1,12,13
 256 378 256 378 256 408 c 0,14,15
 256 485 256 485 315 557 c 1,16,-1
 236 662 l 1,17,-1
 324 733 l 1,18,-1
 403 629 l 1,19,20
 457 657 457 657 514 657 c 0,21,22
 570 657 570 657 612 629 c 1,23,-1
 741 733 l 1,24,-1
 797 662 l 1,25,-1
 668 557 l 1,26,27
 678 527 678 527 678 498 c 0,28,29
 678 421 678 421 618 348 c 1,30,-1
 698 244 l 1,31,-1
 610 172 l 1,32,-1
 530 276 l 1,33,34
 476 248 476 248 420 248 c 128,-1,35
 364 248 364 248 322 276 c 1,36,-1
 193 172 l 1,37,-1
 137 244 l 1,38,-1
 266 348 l 1,12,13
EndSplineSet
Validated: 1
EndChar

StartChar: logicalnot
Encoding: 172 172 347
Width: 696
VWidth: 0
Flags: W
HStem: 348 102<186 612>
VStem: 162 557
LayerCount: 2
Fore
SplineSet
186 451 m 1,0,-1
 719 451 l 1,1,-1
 659 195 l 1,2,-1
 578 195 l 1,3,-1
 612 348 l 1,4,-1
 162 348 l 1,5,-1
 186 451 l 1,0,-1
EndSplineSet
Validated: 1
EndChar

StartChar: plusminus
Encoding: 177 177 348
Width: 856
VWidth: 0
Flags: W
HStem: 53 102<119 786> 453 102<211 481 608 879>
LayerCount: 2
Fore
SplineSet
119 156 m 1,0,-1
 811 156 l 1,1,-1
 786 53 l 1,2,-1
 94 53 l 1,3,-1
 119 156 l 1,0,-1
584 453 m 1,4,-1
 539 260 l 1,5,-1
 436 260 l 1,6,-1
 481 453 l 1,7,-1
 186 453 l 1,8,-1
 211 555 l 1,9,-1
 506 555 l 1,10,-1
 549 748 l 1,11,-1
 651 748 l 1,12,-1
 608 555 l 1,13,-1
 903 555 l 1,14,-1
 879 453 l 1,15,-1
 584 453 l 1,4,-1
EndSplineSet
Validated: 1
EndChar

StartChar: uni00B5
Encoding: 181 181 349
Width: 1110
VWidth: 0
Flags: W
HStem: -20 102<395 676 892 1055> 860 41G<281 455 918 1092>
VStem: 1057 70<93 131>
LayerCount: 2
Fore
SplineSet
946 276 m 2,0,1
 936 232 936 232 936 182 c 0,2,3
 936 82 936 82 979 82 c 0,4,5
 1007 82 1007 82 1029.5 96.5 c 128,-1,6
 1052 111 1052 111 1057 131 c 1,7,-1
 1126 131 l 1,8,9
 1113 68 1113 68 1055 24 c 128,-1,10
 997 -20 997 -20 928 -20 c 0,11,12
 875 -20 875 -20 835 6.5 c 128,-1,13
 795 33 795 33 776 78 c 1,14,15
 709 32 709 32 627 6 c 128,-1,16
 545 -20 545 -20 475 -20 c 0,17,18
 333 -20 333 -20 254 37 c 1,19,-1
 178 -293 l 1,20,-1
 14 -293 l 1,21,-1
 291 901 l 1,22,-1
 455 901 l 1,23,-1
 354 467 l 1,24,25
 332 368 332 368 332 305 c 0,26,27
 332 188 332 188 384.5 135 c 128,-1,28
 437 82 437 82 528 82 c 0,29,30
 652 82 652 82 764 188 c 1,31,32
 765 192 765 192 766 200.5 c 128,-1,33
 767 209 767 209 768 213 c 2,34,-1
 928 901 l 1,35,-1
 1092 901 l 1,36,-1
 946 276 l 2,0,1
EndSplineSet
Validated: 1
EndChar

StartChar: divide
Encoding: 247 247 350
Width: 710
VWidth: 0
Flags: W
HStem: 117 150<336 451> 348 102<186 709> 532 150<432 547>
VStem: 162 571
CounterMasks: 1 e0
LayerCount: 2
Fore
SplineSet
336 266 m 1,0,-1
 485 266 l 1,1,-1
 451 117 l 1,2,-1
 301 117 l 1,3,-1
 336 266 l 1,0,-1
432 682 m 1,4,-1
 582 682 l 1,5,-1
 547 532 l 1,6,-1
 397 532 l 1,7,-1
 432 682 l 1,4,-1
186 451 m 1,8,-1
 733 451 l 1,9,-1
 709 348 l 1,10,-1
 162 348 l 1,11,-1
 186 451 l 1,8,-1
EndSplineSet
Validated: 1
EndChar

StartChar: paragraph
Encoding: 182 182 351
Width: 995
VWidth: 0
Flags: W
HStem: 0 43G<518 650 772 904> 655 102<548 670> 1331 102<660 825 948 1079>
VStem: 313 174<816 1138>
LayerCount: 2
Fore
SplineSet
803 1331 m 2,0,1
 735 1331 735 1331 674.5 1297 c 128,-1,2
 614 1263 614 1263 574 1209 c 128,-1,3
 534 1155 534 1155 510.5 1089.5 c 128,-1,4
 487 1024 487 1024 487 961 c 0,5,6
 487 875 487 875 531 816.5 c 128,-1,7
 575 758 575 758 670 758 c 2,8,-1
 692 758 l 1,9,-1
 825 1331 l 1,10,-1
 803 1331 l 2,0,1
1079 1331 m 1,11,-1
 948 1331 l 1,12,-1
 641 0 l 1,13,-1
 518 0 l 1,14,-1
 670 655 l 1,15,16
 574 656 574 656 502.5 683.5 c 128,-1,17
 431 711 431 711 391 756 c 128,-1,18
 351 801 351 801 332 853 c 128,-1,19
 313 905 313 905 313 963 c 0,20,21
 313 1024 313 1024 334.5 1088.5 c 128,-1,22
 356 1153 356 1153 401.5 1215 c 128,-1,23
 447 1277 447 1277 509.5 1325.5 c 128,-1,24
 572 1374 572 1374 660.5 1404 c 128,-1,25
 749 1434 749 1434 850 1434 c 2,26,-1
 1227 1434 l 1,27,-1
 895 0 l 1,28,-1
 772 0 l 1,29,-1
 1079 1331 l 1,11,-1
EndSplineSet
Validated: 1
EndChar

StartChar: uni00B9
Encoding: 185 185 352
Width: 321
VWidth: 0
Flags: W
HStem: 1282 66<393 436>
VStem: 313 242
LayerCount: 2
Fore
SplineSet
555 1366 m 1,0,-1
 414 754 l 1,1,-1
 313 754 l 1,2,-1
 436 1288 l 1,3,-1
 379 1282 l 1,4,-1
 393 1348 l 1,5,-1
 555 1366 l 1,0,-1
EndSplineSet
Validated: 1
EndChar

StartChar: uni00B2
Encoding: 178 178 353
Width: 559
VWidth: 0
Flags: W
HStem: 752 66<373 651> 1292 66<487 637>
VStem: 649 100<1106 1287>
LayerCount: 2
Fore
SplineSet
258 752 m 1,0,1
 272 810 272 810 301 857 c 128,-1,2
 330 904 330 904 365.5 934 c 128,-1,3
 401 964 401 964 440.5 989 c 128,-1,4
 480 1014 480 1014 516.5 1036 c 128,-1,5
 553 1058 553 1058 583 1081.5 c 128,-1,6
 613 1105 613 1105 631 1138.5 c 128,-1,7
 649 1172 649 1172 649 1214 c 0,8,9
 649 1253 649 1253 628.5 1272.5 c 128,-1,10
 608 1292 608 1292 578 1292 c 0,11,12
 493 1292 493 1292 442 1204 c 1,13,-1
 367 1235 l 1,14,15
 457 1358 457 1358 610 1358 c 0,16,17
 673 1358 673 1358 711.5 1320.5 c 128,-1,18
 750 1283 750 1283 750 1221 c 0,19,20
 750 1158 750 1158 715.5 1109 c 128,-1,21
 681 1060 681 1060 629.5 1027.5 c 128,-1,22
 578 995 578 995 525.5 966.5 c 128,-1,23
 473 938 473 938 429 900 c 128,-1,24
 385 862 385 862 373 817 c 1,25,-1
 666 817 l 1,26,-1
 651 752 l 1,27,-1
 258 752 l 1,0,1
EndSplineSet
Validated: 1
EndChar

StartChar: uni00B3
Encoding: 179 179 354
Width: 583
VWidth: 0
Flags: W
HStem: 741 68<393 559> 1034 66<492 592> 1290 68<500 652>
VStem: 283 88<824 871> 616 102<853 1016> 659 100<1133 1285>
LayerCount: 2
Fore
SplineSet
492 1100 m 1,0,1
 542 1100 542 1100 577 1112 c 128,-1,2
 612 1124 612 1124 628.5 1143.5 c 128,-1,3
 645 1163 645 1163 652 1182.5 c 128,-1,4
 659 1202 659 1202 659 1223 c 0,5,6
 659 1257 659 1257 637.5 1273.5 c 128,-1,7
 616 1290 616 1290 584 1290 c 0,8,9
 553 1290 553 1290 529 1277 c 128,-1,10
 505 1264 505 1264 492.5 1249.5 c 128,-1,11
 480 1235 480 1235 459 1204 c 1,12,-1
 385 1235 l 1,13,14
 427 1293 427 1293 480.5 1325.5 c 128,-1,15
 534 1358 534 1358 616 1358 c 0,16,17
 680 1358 680 1358 720 1318 c 128,-1,18
 760 1278 760 1278 760 1223 c 0,19,20
 760 1122 760 1122 651 1067 c 1,21,22
 719 1027 719 1027 719 958 c 0,23,24
 719 872 719 872 646.5 806.5 c 128,-1,25
 574 741 574 741 475 741 c 0,26,27
 315 741 315 741 283 866 c 1,28,-1
 371 897 l 1,29,30
 375 860 375 860 398.5 834.5 c 128,-1,31
 422 809 422 809 473 809 c 0,32,33
 517 809 517 809 566.5 847 c 128,-1,34
 616 885 616 885 616 944 c 0,35,36
 616 1034 616 1034 477 1034 c 1,37,-1
 492 1100 l 1,0,1
EndSplineSet
Validated: 1
EndChar

StartChar: threequarters
Encoding: 190 190 355
Width: 1081
VWidth: 0
Flags: W
HStem: 0 43G<731 841> 131 66<610 762 877 924> 741 68<393 559> 1034 66<492 592> 1290 68<500 652>
VStem: 283 88<824 871> 616 102<853 1016> 659 100<1133 1285>
LayerCount: 2
Fore
SplineSet
492 1100 m 1,0,1
 542 1100 542 1100 577 1112 c 128,-1,2
 612 1124 612 1124 628.5 1143.5 c 128,-1,3
 645 1163 645 1163 652 1182.5 c 128,-1,4
 659 1202 659 1202 659 1223 c 0,5,6
 659 1257 659 1257 637.5 1273.5 c 128,-1,7
 616 1290 616 1290 584 1290 c 0,8,9
 553 1290 553 1290 529 1277 c 128,-1,10
 505 1264 505 1264 492.5 1249.5 c 128,-1,11
 480 1235 480 1235 459 1204 c 1,12,-1
 385 1235 l 1,13,14
 427 1293 427 1293 480.5 1325.5 c 128,-1,15
 534 1358 534 1358 616 1358 c 0,16,17
 680 1358 680 1358 720 1318 c 128,-1,18
 760 1278 760 1278 760 1223 c 0,19,20
 760 1122 760 1122 651 1067 c 1,21,22
 719 1027 719 1027 719 958 c 0,23,24
 719 872 719 872 646.5 806.5 c 128,-1,25
 574 741 574 741 475 741 c 0,26,27
 315 741 315 741 283 866 c 1,28,-1
 371 897 l 1,29,30
 375 860 375 860 398.5 834.5 c 128,-1,31
 422 809 422 809 473 809 c 0,32,33
 517 809 517 809 566.5 847 c 128,-1,34
 616 885 616 885 616 944 c 0,35,36
 616 1034 616 1034 477 1034 c 1,37,-1
 492 1100 l 1,0,1
143 264 m 1,38,-1
 1083 1047 l 1,39,-1
 1241 1047 l 1,40,-1
 301 264 l 1,41,-1
 143 264 l 1,38,-1
512 174 m 1,42,-1
 872 606 l 1,43,-1
 971 606 l 1,44,-1
 877 197 l 1,45,-1
 938 197 l 1,46,-1
 924 131 l 1,47,-1
 862 131 l 1,48,-1
 831 0 l 1,49,-1
 731 0 l 1,50,-1
 762 131 l 1,51,-1
 502 131 l 1,52,-1
 512 174 l 1,42,-1
840 473 m 1,53,-1
 610 197 l 1,54,-1
 776 197 l 1,55,-1
 840 473 l 1,53,-1
EndSplineSet
Validated: 1
EndChar

StartChar: onequarter
Encoding: 188 188 356
Width: 1081
VWidth: 0
Flags: W
HStem: 0 43G<731 841> 131 66<610 762 877 924> 1282 66<571 614>
LayerCount: 2
Fore
SplineSet
733 1366 m 1,0,-1
 592 754 l 1,1,-1
 492 754 l 1,2,-1
 614 1288 l 1,3,-1
 557 1282 l 1,4,-1
 571 1348 l 1,5,-1
 733 1366 l 1,0,-1
143 264 m 1,6,-1
 1083 1047 l 1,7,-1
 1241 1047 l 1,8,-1
 301 264 l 1,9,-1
 143 264 l 1,6,-1
512 174 m 1,10,-1
 872 606 l 1,11,-1
 971 606 l 1,12,-1
 877 197 l 1,13,-1
 938 197 l 1,14,-1
 924 131 l 1,15,-1
 862 131 l 1,16,-1
 831 0 l 1,17,-1
 731 0 l 1,18,-1
 762 131 l 1,19,-1
 502 131 l 1,20,-1
 512 174 l 1,10,-1
840 473 m 1,21,-1
 610 197 l 1,22,-1
 776 197 l 1,23,-1
 840 473 l 1,21,-1
EndSplineSet
Validated: 1
EndChar

StartChar: onehalf
Encoding: 189 189 357
Width: 1085
VWidth: 0
Flags: W
HStem: 0 66<725 1004> 541 66<839 990> 1282 66<571 614>
VStem: 1001 100<355 535>
LayerCount: 2
Fore
SplineSet
733 1366 m 1,0,-1
 592 754 l 1,1,-1
 492 754 l 1,2,-1
 614 1288 l 1,3,-1
 557 1282 l 1,4,-1
 571 1348 l 1,5,-1
 733 1366 l 1,0,-1
143 264 m 1,6,-1
 1083 1047 l 1,7,-1
 1241 1047 l 1,8,-1
 301 264 l 1,9,-1
 143 264 l 1,6,-1
610 0 m 1,10,11
 624 58 624 58 653 105 c 128,-1,12
 682 152 682 152 717.5 182 c 128,-1,13
 753 212 753 212 792.5 237.5 c 128,-1,14
 832 263 832 263 868.5 284.5 c 128,-1,15
 905 306 905 306 935 330 c 128,-1,16
 965 354 965 354 983 387.5 c 128,-1,17
 1001 421 1001 421 1001 463 c 0,18,19
 1001 502 1001 502 980.5 521.5 c 128,-1,20
 960 541 960 541 930 541 c 0,21,22
 846 541 846 541 795 453 c 1,23,-1
 719 483 l 1,24,25
 809 606 809 606 963 606 c 0,26,27
 1026 606 1026 606 1064 568.5 c 128,-1,28
 1102 531 1102 531 1102 469 c 0,29,30
 1102 406 1102 406 1067.5 357 c 128,-1,31
 1033 308 1033 308 981.5 276 c 128,-1,32
 930 244 930 244 877.5 215.5 c 128,-1,33
 825 187 825 187 781 149 c 128,-1,34
 737 111 737 111 725 66 c 1,35,-1
 1018 66 l 1,36,-1
 1004 0 l 1,37,-1
 610 0 l 1,10,11
EndSplineSet
Validated: 1
EndChar

StartChar: afii00208
Encoding: 8213 8213 358
Width: 1384
VWidth: 0
Flags: W
HStem: 348 102<186 1382>
LayerCount: 2
Fore
SplineSet
186 451 m 1,0,-1
 1407 451 l 1,1,-1
 1382 348 l 1,2,-1
 162 348 l 1,3,-1
 186 451 l 1,0,-1
EndSplineSet
Validated: 1
EndChar

StartChar: longs
Encoding: 383 383 363
Width: 731
VWidth: 0
Flags: W
HStem: 0 43G<92 266> 1270 102<579 874>
LayerCount: 2
Fore
SplineSet
92 0 m 1,0,-1
 291 864 l 2,1,2
 317 978 317 978 336 1045 c 128,-1,3
 355 1112 355 1112 384 1176.5 c 128,-1,4
 413 1241 413 1241 444.5 1273 c 128,-1,5
 476 1305 476 1305 527.5 1330.5 c 128,-1,6
 579 1356 579 1356 642.5 1364 c 128,-1,7
 706 1372 706 1372 799 1372 c 0,8,9
 852 1372 852 1372 903 1357.5 c 128,-1,10
 954 1343 954 1343 985.5 1327 c 128,-1,11
 1017 1311 1017 1311 1069 1280 c 1,12,-1
 942 1174 l 1,13,14
 877 1227 877 1227 835.5 1248.5 c 128,-1,15
 794 1270 794 1270 743 1270 c 0,16,17
 693 1270 693 1270 658.5 1263.5 c 128,-1,18
 624 1257 624 1257 598.5 1242 c 128,-1,19
 573 1227 573 1227 556.5 1204.5 c 128,-1,20
 540 1182 540 1182 527 1148 c 128,-1,21
 514 1114 514 1114 503.5 1072.5 c 128,-1,22
 493 1031 493 1031 481 974 c 0,23,24
 472 932 472 932 467 909 c 2,25,-1
 256 0 l 1,26,-1
 92 0 l 1,0,-1
EndSplineSet
Validated: 1
EndChar

StartChar: uniFB00
Encoding: 64256 64256 365
Width: 1191
VWidth: 0
Flags: W
HStem: -276 102<36 145 619 729> 799 102<311 391 580 975 1163 1300> 1270 102<687 874 1270 1458>
VStem: -39 74<-172 -125> 545 74<-172 -125>
LayerCount: 2
Fore
SplineSet
256 799 m 1,0,-1
 311 901 l 1,1,-1
 416 901 l 1,2,-1
 461 1096 l 2,3,4
 491 1222 491 1222 575 1297 c 128,-1,5
 659 1372 659 1372 780 1372 c 0,6,7
 865 1372 865 1372 920 1350 c 1,8,-1
 852 1239 l 1,9,10
 833 1270 833 1270 786 1270 c 0,11,12
 722 1270 722 1270 682 1221 c 128,-1,13
 642 1172 642 1172 612 1042 c 2,14,-1
 580 901 l 1,15,-1
 999 901 l 1,16,-1
 1044 1096 l 2,17,18
 1074 1222 1074 1222 1158.5 1297 c 128,-1,19
 1243 1372 1243 1372 1364 1372 c 0,20,21
 1448 1372 1448 1372 1503 1350 c 1,22,-1
 1436 1239 l 1,23,24
 1417 1270 1417 1270 1370 1270 c 0,25,26
 1306 1270 1306 1270 1266 1221 c 128,-1,27
 1226 1172 1226 1172 1196 1042 c 2,28,-1
 1163 901 l 1,29,-1
 1325 901 l 1,30,-1
 1300 799 l 1,31,-1
 1139 799 l 1,32,-1
 944 -43 l 2,33,34
 921 -140 921 -140 843.5 -208 c 128,-1,35
 766 -276 766 -276 678 -276 c 0,36,37
 618 -276 618 -276 581.5 -242.5 c 128,-1,38
 545 -209 545 -209 545 -156 c 0,39,40
 545 -145 545 -145 549 -125 c 1,41,-1
 618 -125 l 1,42,-1
 618 -133 l 2,43,44
 618 -151 618 -151 633 -162.5 c 128,-1,45
 648 -174 648 -174 672 -174 c 0,46,47
 703 -174 703 -174 739.5 -116.5 c 128,-1,48
 776 -59 776 -59 795 20 c 2,49,-1
 975 799 l 1,50,-1
 555 799 l 1,51,-1
 360 -43 l 2,52,53
 337 -140 337 -140 259.5 -208 c 128,-1,54
 182 -276 182 -276 94 -276 c 0,55,56
 34 -276 34 -276 -2.5 -242.5 c 128,-1,57
 -39 -209 -39 -209 -39 -156 c 0,58,59
 -39 -145 -39 -145 -35 -125 c 1,60,-1
 35 -125 l 1,61,-1
 35 -133 l 2,62,63
 35 -151 35 -151 49.5 -162.5 c 128,-1,64
 64 -174 64 -174 88 -174 c 0,65,66
 119 -174 119 -174 155.5 -116.5 c 128,-1,67
 192 -59 192 -59 211 20 c 2,68,-1
 391 799 l 1,69,-1
 256 799 l 1,0,-1
EndSplineSet
Validated: 1
LCarets2: 1 0 
Ligature2: "'liga' Standard Ligatures in Latin lookup 0-1" f f
EndChar

StartChar: fi
Encoding: 64257 64257 366
Width: 1163
VWidth: 0
Flags: W
HStem: -276 102<36 145> -20 102<932 1108> 799 102<311 391 580 956> 1065 164<1057 1182> 1270 102<687 874>
VStem: -39 74<-172 -125> 815 172<85 272> 1110 70<93 131>
LayerCount: 2
Fore
SplineSet
1057 1229 m 1,0,-1
 1221 1229 l 1,1,-1
 1182 1065 l 1,2,-1
 1018 1065 l 1,3,-1
 1057 1229 l 1,0,-1
360 -43 m 2,4,5
 337 -140 337 -140 259.5 -208 c 128,-1,6
 182 -276 182 -276 94 -276 c 0,7,8
 34 -276 34 -276 -2.5 -242.5 c 128,-1,9
 -39 -209 -39 -209 -39 -156 c 0,10,11
 -39 -145 -39 -145 -35 -125 c 1,12,-1
 35 -125 l 1,13,-1
 35 -133 l 2,14,15
 35 -151 35 -151 49.5 -162.5 c 128,-1,16
 64 -174 64 -174 88 -174 c 0,17,18
 119 -174 119 -174 155.5 -116.5 c 128,-1,19
 192 -59 192 -59 211 20 c 2,20,-1
 391 799 l 1,21,-1
 256 799 l 1,22,-1
 311 901 l 1,23,-1
 416 901 l 1,24,-1
 461 1096 l 2,25,26
 491 1222 491 1222 575 1297 c 128,-1,27
 659 1372 659 1372 780 1372 c 0,28,29
 865 1372 865 1372 920 1350 c 1,30,-1
 852 1239 l 1,31,32
 833 1270 833 1270 786 1270 c 0,33,34
 722 1270 722 1270 682 1221 c 128,-1,35
 642 1172 642 1172 612 1042 c 2,36,-1
 580 901 l 1,37,-1
 1145 901 l 1,38,-1
 999 276 l 2,39,40
 987 223 987 223 987 182 c 0,41,42
 987 137 987 137 999 109.5 c 128,-1,43
 1011 82 1011 82 1032 82 c 0,44,45
 1060 82 1060 82 1082.5 96.5 c 128,-1,46
 1105 111 1105 111 1110 131 c 1,47,-1
 1180 131 l 1,48,49
 1167 68 1167 68 1108.5 24 c 128,-1,50
 1050 -20 1050 -20 981 -20 c 0,51,52
 908 -20 908 -20 861.5 29.5 c 128,-1,53
 815 79 815 79 815 156 c 0,54,55
 815 183 815 183 821 213 c 2,56,-1
 956 799 l 1,57,-1
 555 799 l 1,58,-1
 360 -43 l 2,4,5
EndSplineSet
Validated: 1
LCarets2: 1 0 
Ligature2: "'liga' Standard Ligatures in Latin lookup 0-1" f i
EndChar

StartChar: fl
Encoding: 64258 64258 367
Width: 1153
VWidth: 0
Flags: W
HStem: -276 102<36 145> -20 102<909 1086> 799 102<311 391 580 717> 1270 102<708 1035>
VStem: -39 74<-172 -125> 793 172<86 273> 1087 70<93 131>
LayerCount: 2
Fore
SplineSet
360 -43 m 2,0,1
 337 -140 337 -140 259.5 -208 c 128,-1,2
 182 -276 182 -276 94 -276 c 0,3,4
 34 -276 34 -276 -2.5 -242.5 c 128,-1,5
 -39 -209 -39 -209 -39 -156 c 0,6,7
 -39 -145 -39 -145 -35 -125 c 1,8,-1
 35 -125 l 1,9,-1
 35 -133 l 2,10,11
 35 -151 35 -151 49.5 -162.5 c 128,-1,12
 64 -174 64 -174 88 -174 c 0,13,14
 119 -174 119 -174 155.5 -116.5 c 128,-1,15
 192 -59 192 -59 211 20 c 2,16,-1
 391 799 l 1,17,-1
 256 799 l 1,18,-1
 311 901 l 1,19,-1
 416 901 l 1,20,-1
 461 1096 l 2,21,22
 524 1372 524 1372 862 1372 c 0,23,24
 911 1372 911 1372 982 1366 c 128,-1,25
 1053 1360 1053 1360 1077 1352 c 1,26,-1
 1225 1352 l 1,27,-1
 977 276 l 2,28,29
 965 223 965 223 965 182 c 0,30,31
 965 137 965 137 977 109.5 c 128,-1,32
 989 82 989 82 1010 82 c 0,33,34
 1038 82 1038 82 1060 96.5 c 128,-1,35
 1082 111 1082 111 1087 131 c 1,36,-1
 1157 131 l 1,37,38
 1144 68 1144 68 1085.5 24 c 128,-1,39
 1027 -20 1027 -20 958 -20 c 0,40,41
 885 -20 885 -20 839 30 c 128,-1,42
 793 80 793 80 793 156 c 0,43,44
 793 183 793 183 799 213 c 2,45,-1
 1036 1241 l 1,46,47
 1022 1251 1022 1251 959.5 1260.5 c 128,-1,48
 897 1270 897 1270 868 1270 c 0,49,50
 834 1270 834 1270 814 1268.5 c 128,-1,51
 794 1267 794 1267 759 1255 c 128,-1,52
 724 1243 724 1243 700.5 1220.5 c 128,-1,53
 677 1198 677 1198 652 1152.5 c 128,-1,54
 627 1107 627 1107 612 1042 c 2,55,-1
 580 901 l 1,56,-1
 741 901 l 1,57,-1
 717 799 l 1,58,-1
 555 799 l 1,59,-1
 360 -43 l 2,0,1
EndSplineSet
Validated: 1
LCarets2: 1 0 
Ligature2: "'liga' Standard Ligatures in Latin lookup 0-1" f l
EndChar

StartChar: uniFB03
Encoding: 64259 64259 368
Width: 1746
VWidth: 0
Flags: W
HStem: -276 102<36 145 619 729> -20 102<1516 1692> 799 102<311 391 580 975 1163 1540> 1065 164<1640 1765> 1270 102<687 874 1270 1458>
VStem: -39 74<-172 -125> 545 74<-172 -125> 1399 172<85 272> 1694 70<93 131>
LayerCount: 2
Fore
SplineSet
256 799 m 1,0,-1
 311 901 l 1,1,-1
 416 901 l 1,2,-1
 461 1096 l 2,3,4
 491 1222 491 1222 575 1297 c 128,-1,5
 659 1372 659 1372 780 1372 c 0,6,7
 865 1372 865 1372 920 1350 c 1,8,-1
 852 1239 l 1,9,10
 833 1270 833 1270 786 1270 c 0,11,12
 722 1270 722 1270 682 1221 c 128,-1,13
 642 1172 642 1172 612 1042 c 2,14,-1
 580 901 l 1,15,-1
 999 901 l 1,16,-1
 1044 1096 l 2,17,18
 1074 1222 1074 1222 1158.5 1297 c 128,-1,19
 1243 1372 1243 1372 1364 1372 c 0,20,21
 1448 1372 1448 1372 1503 1350 c 1,22,-1
 1436 1239 l 1,23,24
 1417 1270 1417 1270 1370 1270 c 0,25,26
 1306 1270 1306 1270 1266 1221 c 128,-1,27
 1226 1172 1226 1172 1196 1042 c 2,28,-1
 1163 901 l 1,29,-1
 1729 901 l 1,30,-1
 1583 276 l 2,31,32
 1571 223 1571 223 1571 182 c 0,33,34
 1571 137 1571 137 1583 109.5 c 128,-1,35
 1595 82 1595 82 1616 82 c 0,36,37
 1644 82 1644 82 1666.5 96.5 c 128,-1,38
 1689 111 1689 111 1694 131 c 1,39,-1
 1763 131 l 1,40,41
 1750 68 1750 68 1692 24 c 128,-1,42
 1634 -20 1634 -20 1565 -20 c 0,43,44
 1492 -20 1492 -20 1445.5 29.5 c 128,-1,45
 1399 79 1399 79 1399 156 c 0,46,47
 1399 183 1399 183 1405 213 c 2,48,-1
 1540 799 l 1,49,-1
 1139 799 l 1,50,-1
 944 -43 l 2,51,52
 921 -140 921 -140 843.5 -208 c 128,-1,53
 766 -276 766 -276 678 -276 c 0,54,55
 618 -276 618 -276 581.5 -242.5 c 128,-1,56
 545 -209 545 -209 545 -156 c 0,57,58
 545 -145 545 -145 549 -125 c 1,59,-1
 618 -125 l 1,60,-1
 618 -133 l 2,61,62
 618 -151 618 -151 633 -162.5 c 128,-1,63
 648 -174 648 -174 672 -174 c 0,64,65
 703 -174 703 -174 739.5 -116.5 c 128,-1,66
 776 -59 776 -59 795 20 c 2,67,-1
 975 799 l 1,68,-1
 555 799 l 1,69,-1
 360 -43 l 2,70,71
 337 -140 337 -140 259.5 -208 c 128,-1,72
 182 -276 182 -276 94 -276 c 0,73,74
 34 -276 34 -276 -2.5 -242.5 c 128,-1,75
 -39 -209 -39 -209 -39 -156 c 0,76,77
 -39 -145 -39 -145 -35 -125 c 1,78,-1
 35 -125 l 1,79,-1
 35 -133 l 2,80,81
 35 -151 35 -151 49.5 -162.5 c 128,-1,82
 64 -174 64 -174 88 -174 c 0,83,84
 119 -174 119 -174 155.5 -116.5 c 128,-1,85
 192 -59 192 -59 211 20 c 2,86,-1
 391 799 l 1,87,-1
 256 799 l 1,0,-1
1640 1229 m 1,88,-1
 1804 1229 l 1,89,-1
 1765 1065 l 1,90,-1
 1602 1065 l 1,91,-1
 1640 1229 l 1,88,-1
EndSplineSet
Validated: 1
LCarets2: 2 0 0 
Ligature2: "'liga' Standard Ligatures in Latin lookup 0-1" f f i
EndChar

StartChar: uniFB04
Encoding: 64260 64260 369
Width: 1738
VWidth: 0
Flags: W
HStem: -276 102<36 145 621 731> -20 102<1495 1671> 799 102<311 391 580 977 1165 1303> 1270 102<687 874 1293 1620>
VStem: -39 74<-172 -125> 547 74<-172 -125> 1378 172<86 273> 1673 70<93 131>
LayerCount: 2
Fore
SplineSet
946 -43 m 2,0,1
 923 -140 923 -140 845.5 -208 c 128,-1,2
 768 -276 768 -276 680 -276 c 0,3,4
 620 -276 620 -276 583.5 -242.5 c 128,-1,5
 547 -209 547 -209 547 -156 c 0,6,7
 547 -145 547 -145 551 -125 c 1,8,-1
 621 -125 l 1,9,-1
 621 -133 l 2,10,11
 621 -151 621 -151 635.5 -162.5 c 128,-1,12
 650 -174 650 -174 674 -174 c 0,13,14
 705 -174 705 -174 741.5 -116.5 c 128,-1,15
 778 -59 778 -59 797 20 c 2,16,-1
 977 799 l 1,17,-1
 555 799 l 1,18,-1
 360 -43 l 2,19,20
 337 -140 337 -140 259.5 -208 c 128,-1,21
 182 -276 182 -276 94 -276 c 0,22,23
 34 -276 34 -276 -2.5 -242.5 c 128,-1,24
 -39 -209 -39 -209 -39 -156 c 0,25,26
 -39 -145 -39 -145 -35 -125 c 1,27,-1
 35 -125 l 1,28,-1
 35 -133 l 2,29,30
 35 -151 35 -151 49.5 -162.5 c 128,-1,31
 64 -174 64 -174 88 -174 c 0,32,33
 119 -174 119 -174 155.5 -116.5 c 128,-1,34
 192 -59 192 -59 211 20 c 2,35,-1
 391 799 l 1,36,-1
 256 799 l 1,37,-1
 311 901 l 1,38,-1
 416 901 l 1,39,-1
 461 1096 l 2,40,41
 491 1222 491 1222 575 1297 c 128,-1,42
 659 1372 659 1372 780 1372 c 0,43,44
 865 1372 865 1372 920 1350 c 1,45,-1
 852 1239 l 1,46,47
 833 1270 833 1270 786 1270 c 0,48,49
 722 1270 722 1270 682 1221 c 128,-1,50
 642 1172 642 1172 612 1042 c 2,51,-1
 580 901 l 1,52,-1
 1001 901 l 1,53,-1
 1047 1096 l 1,54,55
 1110 1372 1110 1372 1448 1372 c 0,56,57
 1497 1372 1497 1372 1568 1366 c 128,-1,58
 1639 1360 1639 1360 1663 1352 c 1,59,-1
 1810 1352 l 1,60,-1
 1563 276 l 2,61,62
 1550 219 1550 219 1550 182 c 0,63,64
 1550 137 1550 137 1562 109.5 c 128,-1,65
 1574 82 1574 82 1595 82 c 0,66,67
 1623 82 1623 82 1645.5 96.5 c 128,-1,68
 1668 111 1668 111 1673 131 c 1,69,-1
 1743 131 l 1,70,71
 1730 68 1730 68 1671.5 24 c 128,-1,72
 1613 -20 1613 -20 1544 -20 c 0,73,74
 1471 -20 1471 -20 1424.5 30 c 128,-1,75
 1378 80 1378 80 1378 156 c 0,76,77
 1378 183 1378 183 1384 213 c 2,78,-1
 1622 1241 l 1,79,80
 1608 1251 1608 1251 1545.5 1260.5 c 128,-1,81
 1483 1270 1483 1270 1454 1270 c 0,82,83
 1420 1270 1420 1270 1400 1268.5 c 128,-1,84
 1380 1267 1380 1267 1345 1255 c 128,-1,85
 1310 1243 1310 1243 1286.5 1220.5 c 128,-1,86
 1263 1198 1263 1198 1238 1152.5 c 128,-1,87
 1213 1107 1213 1107 1198 1042 c 2,88,-1
 1165 901 l 1,89,-1
 1327 901 l 1,90,-1
 1303 799 l 1,91,-1
 1141 799 l 1,92,-1
 946 -43 l 2,0,1
EndSplineSet
Validated: 1
LCarets2: 2 565 946 
Ligature2: "'liga' Standard Ligatures in Latin lookup 0-1" f f l
EndChar

